<svg width="31" height="32" viewBox="0 0 31 32" fill="none" xmlns="http://www.w3.org/2000/svg">
<path d="M5.23782 7.13901C6.09181 16.8834 14.4499 25.2415 24.1943 26.0955C25.144 26.1788 25.9673 25.4944 26.1542 24.5595L26.8248 21.2069C27.0016 20.3225 26.5647 19.4292 25.758 19.0258L23.4506 17.8721C22.5861 17.4399 21.5361 17.6877 20.9562 18.461L20.6202 18.909C20.2425 19.4126 19.639 19.7238 19.0487 19.505C16.5691 18.5855 12.7479 14.7642 11.8284 12.2846C11.6095 11.6943 11.9207 11.0909 12.4244 10.7132L12.8724 10.3771C13.6456 9.7972 13.8935 8.74724 13.4612 7.88271L12.3075 5.5753C11.9042 4.76862 11.0108 4.33169 10.1264 4.50857L6.77379 5.1791C5.83894 5.36607 5.15458 6.18929 5.23782 7.13901Z" stroke="black" stroke-width="2" stroke-linecap="round" stroke-linejoin="round"/>
</svg>
