<svg width="32" height="33" viewBox="0 0 32 33" fill="none" xmlns="http://www.w3.org/2000/svg">
<path d="M6.66602 27.0007H25.3327M15.9993 11.0007H16.0127M11.2566 6.262C12.5691 4.97665 14.15 4.33398 15.9993 4.33398C17.8487 4.33398 19.4222 4.96935 20.7197 6.24009C22.0173 7.51083 22.666 9.05176 22.666 10.8629C22.666 11.7685 22.4348 12.8055 21.9725 13.974C21.5102 15.1425 20.9509 16.238 20.2947 17.2604C19.6384 18.2829 18.9897 19.2396 18.3483 20.1305C17.707 21.0215 17.1627 21.7299 16.7152 22.2557L15.9993 23.0007C15.8204 22.7962 15.5818 22.526 15.2835 22.19C14.9852 21.8541 14.4483 21.1822 13.6727 20.1744C12.8972 19.1665 12.2186 18.1879 11.6369 17.2385C11.0553 16.2891 10.5258 15.2156 10.0486 14.0179C9.57131 12.8202 9.33268 11.7685 9.33268 10.8629C9.33268 9.05176 9.97399 7.51813 11.2566 6.262Z" stroke="black" stroke-width="2" stroke-linecap="round" stroke-linejoin="round"/>
</svg>
