<svg width="704" height="258" viewBox="0 0 704 258" fill="none" xmlns="http://www.w3.org/2000/svg">
<path d="M111.873 202.55C111.84 200.583 111.64 198.95 111.273 197.65C110.906 196.35 110.256 195.383 109.323 194.75C108.423 194.083 107.106 193.767 105.373 193.8H101.123L101.073 221.05C101.073 221.95 101.056 222.733 101.023 223.4C101.023 224.033 100.99 224.567 100.923 225C101.623 224.967 102.306 224.933 102.973 224.9C103.673 224.867 104.373 224.833 105.073 224.8V227H93.3229V225.35C94.5895 225.283 95.4395 224.983 95.8729 224.45C96.3395 223.917 96.5895 223.2 96.6229 222.3C96.6895 221.367 96.7229 220.333 96.7229 219.2L96.7729 193.85L91.6229 193.9C89.5229 193.9 88.0395 194.6 87.1729 196C86.3062 197.4 85.8729 199.583 85.8729 202.55H84.0229L84.3229 192H113.473L113.773 202.55H111.873ZM118.873 225.5C119.906 225.5 120.623 225.25 121.023 224.75C121.423 224.217 121.656 223.5 121.723 222.6C121.79 221.667 121.823 220.6 121.823 219.4V208C121.823 207.467 121.823 206.933 121.823 206.4C121.856 205.867 121.923 205.317 122.023 204.75C121.423 204.783 120.823 204.817 120.223 204.85C119.656 204.85 119.073 204.867 118.473 204.9V202.85H120.023C121.456 202.85 122.44 202.717 122.973 202.45C123.54 202.15 124.006 201.833 124.373 201.5H125.823C125.89 202.033 125.94 202.7 125.973 203.5C126.006 204.267 126.04 205.25 126.073 206.45C126.573 205.617 127.256 204.8 128.123 204C128.99 203.2 129.956 202.533 131.023 202C132.123 201.467 133.273 201.2 134.473 201.2C135.406 201.2 136.223 201.45 136.923 201.95C137.623 202.45 137.973 203.25 137.973 204.35C137.973 204.617 137.89 204.95 137.723 205.35C137.556 205.717 137.29 206.05 136.923 206.35C136.556 206.617 136.073 206.75 135.473 206.75C134.74 206.717 134.156 206.433 133.723 205.9C133.29 205.333 133.123 204.683 133.223 203.95C132.39 203.917 131.523 204.133 130.623 204.6C129.756 205.067 128.94 205.717 128.173 206.55C127.406 207.35 126.723 208.3 126.123 209.4L126.173 221.7C126.173 222.367 126.156 222.967 126.123 223.5C126.123 224 126.073 224.533 125.973 225.1C126.506 225.067 127.023 225.05 127.523 225.05C128.056 225.017 128.59 224.983 129.123 224.95V227H118.873V225.5ZM157.862 227C157.762 226.433 157.695 225.933 157.662 225.5C157.629 225.067 157.579 224.617 157.512 224.15C156.379 225.283 155.145 226.183 153.812 226.85C152.512 227.483 151.129 227.8 149.662 227.8C147.129 227.8 145.245 227.233 144.012 226.1C142.779 224.933 142.162 223.517 142.162 221.85C142.162 220.317 142.629 219 143.562 217.9C144.529 216.767 145.762 215.85 147.262 215.15C148.795 214.417 150.445 213.883 152.212 213.55C154.012 213.183 155.745 213.017 157.412 213.05V209.95C157.412 208.783 157.312 207.683 157.112 206.65C156.912 205.617 156.479 204.767 155.812 204.1C155.145 203.433 154.079 203.083 152.612 203.05C151.645 203.017 150.645 203.2 149.612 203.6C148.612 204 147.879 204.683 147.412 205.65C147.679 205.917 147.845 206.233 147.912 206.6C148.012 206.933 148.062 207.25 148.062 207.55C148.062 207.95 147.895 208.417 147.562 208.95C147.229 209.45 146.645 209.683 145.812 209.65C145.112 209.65 144.579 209.417 144.212 208.95C143.845 208.45 143.662 207.867 143.662 207.2C143.662 206.067 144.079 205.05 144.912 204.15C145.779 203.25 146.962 202.533 148.462 202C149.962 201.467 151.662 201.2 153.562 201.2C156.362 201.2 158.429 201.95 159.762 203.45C161.095 204.917 161.745 207.25 161.712 210.45C161.712 211.683 161.712 212.933 161.712 214.2C161.712 215.433 161.695 216.683 161.662 217.95C161.662 219.183 161.662 220.433 161.662 221.7C161.662 222.233 161.645 222.767 161.612 223.3C161.579 223.833 161.529 224.433 161.462 225.1C162.062 225.067 162.645 225.033 163.212 225C163.812 224.967 164.412 224.933 165.012 224.9V227H157.862ZM157.412 214.75C156.279 214.783 155.079 214.933 153.812 215.2C152.579 215.433 151.429 215.8 150.362 216.3C149.329 216.8 148.479 217.467 147.812 218.3C147.179 219.1 146.879 220.083 146.912 221.25C146.979 222.483 147.379 223.417 148.112 224.05C148.879 224.65 149.779 224.95 150.812 224.95C152.179 224.95 153.362 224.7 154.362 224.2C155.395 223.667 156.412 222.933 157.412 222C157.379 221.633 157.362 221.233 157.362 220.8C157.362 220.367 157.362 219.917 157.362 219.45C157.362 219.283 157.362 218.75 157.362 217.85C157.395 216.95 157.412 215.917 157.412 214.75ZM170.943 227V225.5C171.976 225.5 172.693 225.25 173.093 224.75C173.493 224.217 173.726 223.5 173.793 222.6C173.86 221.667 173.893 220.6 173.893 219.4L173.943 208C173.943 207.467 173.943 206.933 173.943 206.4C173.976 205.867 174.043 205.317 174.143 204.75C173.543 204.783 172.943 204.817 172.343 204.85C171.776 204.883 171.193 204.917 170.593 204.95V202.85C172.06 202.85 173.16 202.783 173.893 202.65C174.66 202.517 175.226 202.35 175.593 202.15C175.96 201.95 176.26 201.733 176.493 201.5H177.943C177.976 201.733 177.993 202 177.993 202.3C178.026 202.6 178.06 202.933 178.093 203.3C178.126 203.667 178.143 204.083 178.143 204.55C178.876 203.917 179.676 203.35 180.543 202.85C181.443 202.35 182.376 201.95 183.343 201.65C184.343 201.35 185.326 201.2 186.293 201.2C189.193 201.2 191.31 202.117 192.643 203.95C193.976 205.75 194.643 208.567 194.643 212.4V221.7C194.643 222.367 194.626 222.967 194.593 223.5C194.593 224 194.543 224.533 194.443 225.1C194.976 225.067 195.493 225.05 195.993 225.05C196.526 225.017 197.06 224.983 197.593 224.95V227H187.393V225.5C188.426 225.5 189.143 225.25 189.543 224.75C189.943 224.217 190.176 223.5 190.243 222.6C190.31 221.667 190.343 220.6 190.343 219.4V212.4C190.31 209.533 189.826 207.367 188.893 205.9C187.993 204.433 186.56 203.717 184.593 203.75C183.393 203.783 182.21 204.1 181.043 204.7C179.91 205.3 178.96 206.067 178.193 207C178.226 207.267 178.243 207.567 178.243 207.9C178.243 208.233 178.243 208.583 178.243 208.95L178.193 221.7C178.193 222.367 178.176 222.967 178.143 223.5C178.143 224 178.093 224.533 177.993 225.1C178.526 225.067 179.043 225.05 179.543 225.05C180.076 225.017 180.61 224.983 181.143 224.95V227H170.943ZM214.064 227.8C212.398 227.8 210.914 227.567 209.614 227.1C208.314 226.667 207.248 226.167 206.414 225.6L206.614 227.35H204.514L204.214 218.75H205.764C205.831 220.117 206.214 221.35 206.914 222.45C207.614 223.517 208.514 224.35 209.614 224.95C210.714 225.55 211.898 225.85 213.164 225.85C214.031 225.85 214.881 225.717 215.714 225.45C216.548 225.15 217.248 224.717 217.814 224.15C218.381 223.55 218.664 222.8 218.664 221.9C218.664 220.967 218.381 220.2 217.814 219.6C217.281 218.967 216.564 218.417 215.664 217.95C214.764 217.483 213.798 217.05 212.764 216.65C211.764 216.25 210.764 215.833 209.764 215.4C208.764 214.967 207.831 214.45 206.964 213.85C206.131 213.25 205.464 212.517 204.964 211.65C204.464 210.783 204.214 209.717 204.214 208.45C204.214 207.75 204.348 206.983 204.614 206.15C204.881 205.317 205.331 204.533 205.964 203.8C206.598 203.033 207.464 202.417 208.564 201.95C209.664 201.45 211.064 201.2 212.764 201.2C213.664 201.2 214.664 201.35 215.764 201.65C216.864 201.95 217.931 202.517 218.964 203.35L218.864 201.45H220.964V210.2H219.364C219.298 209.033 219.031 207.917 218.564 206.85C218.098 205.75 217.414 204.85 216.514 204.15C215.614 203.417 214.448 203.05 213.014 203.05C211.481 203.05 210.281 203.433 209.414 204.2C208.548 204.967 208.114 205.85 208.114 206.85C208.114 207.883 208.431 208.75 209.064 209.45C209.731 210.117 210.581 210.7 211.614 211.2C212.648 211.7 213.748 212.183 214.914 212.65C216.181 213.183 217.414 213.767 218.614 214.4C219.814 215.033 220.798 215.833 221.564 216.8C222.331 217.733 222.714 218.95 222.714 220.45C222.714 222.117 222.281 223.5 221.414 224.6C220.581 225.7 219.498 226.5 218.164 227C216.864 227.533 215.498 227.8 214.064 227.8ZM228.959 225.5C229.992 225.5 230.709 225.25 231.109 224.75C231.509 224.217 231.742 223.5 231.809 222.6C231.875 221.667 231.909 220.6 231.909 219.4V195.75C231.909 195.217 231.909 194.717 231.909 194.25C231.942 193.75 231.992 193.167 232.059 192.5C231.459 192.533 230.859 192.567 230.259 192.6C229.692 192.633 229.109 192.667 228.509 192.7V190.6C229.975 190.6 231.109 190.533 231.909 190.4C232.742 190.267 233.359 190.1 233.759 189.9C234.192 189.7 234.525 189.483 234.759 189.25H236.209L236.259 221.7C236.259 222.367 236.242 222.967 236.209 223.5C236.175 224 236.109 224.533 236.009 225.1C236.542 225.067 237.059 225.05 237.559 225.05C238.092 225.017 238.625 224.983 239.159 224.95V227H228.959V225.5ZM260.782 227C260.682 226.433 260.615 225.933 260.582 225.5C260.549 225.067 260.499 224.617 260.432 224.15C259.299 225.283 258.065 226.183 256.732 226.85C255.432 227.483 254.049 227.8 252.582 227.8C250.049 227.8 248.165 227.233 246.932 226.1C245.699 224.933 245.082 223.517 245.082 221.85C245.082 220.317 245.549 219 246.482 217.9C247.449 216.767 248.682 215.85 250.182 215.15C251.715 214.417 253.365 213.883 255.132 213.55C256.932 213.183 258.665 213.017 260.332 213.05V209.95C260.332 208.783 260.232 207.683 260.032 206.65C259.832 205.617 259.399 204.767 258.732 204.1C258.065 203.433 256.999 203.083 255.532 203.05C254.565 203.017 253.565 203.2 252.532 203.6C251.532 204 250.799 204.683 250.332 205.65C250.599 205.917 250.765 206.233 250.832 206.6C250.932 206.933 250.982 207.25 250.982 207.55C250.982 207.95 250.815 208.417 250.482 208.95C250.149 209.45 249.565 209.683 248.732 209.65C248.032 209.65 247.499 209.417 247.132 208.95C246.765 208.45 246.582 207.867 246.582 207.2C246.582 206.067 246.999 205.05 247.832 204.15C248.699 203.25 249.882 202.533 251.382 202C252.882 201.467 254.582 201.2 256.482 201.2C259.282 201.2 261.349 201.95 262.682 203.45C264.015 204.917 264.665 207.25 264.632 210.45C264.632 211.683 264.632 212.933 264.632 214.2C264.632 215.433 264.615 216.683 264.582 217.95C264.582 219.183 264.582 220.433 264.582 221.7C264.582 222.233 264.565 222.767 264.532 223.3C264.499 223.833 264.449 224.433 264.382 225.1C264.982 225.067 265.565 225.033 266.132 225C266.732 224.967 267.332 224.933 267.932 224.9V227H260.782ZM260.332 214.75C259.199 214.783 257.999 214.933 256.732 215.2C255.499 215.433 254.349 215.8 253.282 216.3C252.249 216.8 251.399 217.467 250.732 218.3C250.099 219.1 249.799 220.083 249.832 221.25C249.899 222.483 250.299 223.417 251.032 224.05C251.799 224.65 252.699 224.95 253.732 224.95C255.099 224.95 256.282 224.7 257.282 224.2C258.315 223.667 259.332 222.933 260.332 222C260.299 221.633 260.282 221.233 260.282 220.8C260.282 220.367 260.282 219.917 260.282 219.45C260.282 219.283 260.282 218.75 260.282 217.85C260.315 216.95 260.332 215.917 260.332 214.75ZM282.921 227.8C282.155 227.8 281.371 227.683 280.571 227.45C279.771 227.25 279.021 226.833 278.321 226.2C277.655 225.567 277.121 224.65 276.721 223.45C276.321 222.217 276.121 220.6 276.121 218.6L276.221 204.1L272.371 204.15V202C273.238 201.967 274.121 201.65 275.021 201.05C275.921 200.417 276.721 199.567 277.421 198.5C278.155 197.433 278.655 196.267 278.921 195H280.621V202H289.021V203.95L280.621 204.05L280.521 217.95C280.521 219.45 280.638 220.733 280.871 221.8C281.138 222.833 281.555 223.617 282.121 224.15C282.688 224.683 283.421 224.95 284.321 224.95C285.255 224.95 286.121 224.683 286.921 224.15C287.755 223.617 288.488 222.883 289.121 221.95L290.471 223.05C289.738 224.15 289.005 225.017 288.271 225.65C287.571 226.283 286.888 226.75 286.221 227.05C285.555 227.383 284.938 227.583 284.371 227.65C283.805 227.75 283.321 227.8 282.921 227.8ZM307.457 227.8C305.157 227.8 303.074 227.267 301.207 226.2C299.374 225.1 297.924 223.567 296.857 221.6C295.791 219.6 295.257 217.25 295.257 214.55C295.257 212.217 295.774 210.033 296.807 208C297.874 205.967 299.357 204.333 301.257 203.1C303.157 201.833 305.357 201.2 307.857 201.2C309.257 201.2 310.557 201.433 311.757 201.9C312.991 202.333 314.074 203.017 315.007 203.95C315.941 204.85 316.674 206 317.207 207.4C317.741 208.767 318.007 210.383 318.007 212.25L300.407 212.55C300.407 215.083 300.674 217.317 301.207 219.25C301.774 221.15 302.674 222.633 303.907 223.7C305.141 224.733 306.724 225.25 308.657 225.25C309.691 225.25 310.741 225.067 311.807 224.7C312.907 224.333 313.924 223.833 314.857 223.2C315.791 222.567 316.541 221.867 317.107 221.1L318.307 222.1C317.407 223.5 316.324 224.617 315.057 225.45C313.791 226.283 312.491 226.883 311.157 227.25C309.824 227.617 308.591 227.8 307.457 227.8ZM300.557 210.45H313.307C313.307 209.25 313.124 208.1 312.757 207C312.424 205.867 311.857 204.95 311.057 204.25C310.257 203.517 309.207 203.15 307.907 203.15C305.974 203.15 304.357 203.733 303.057 204.9C301.791 206.033 300.957 207.883 300.557 210.45ZM340.592 225.5C341.625 225.5 342.342 225.25 342.742 224.75C343.142 224.217 343.375 223.5 343.442 222.6C343.508 221.667 343.542 220.6 343.542 219.4V208C343.542 207.467 343.558 206.967 343.592 206.5C343.625 206 343.675 205.417 343.742 204.75C343.142 204.783 342.542 204.817 341.942 204.85C341.375 204.883 340.792 204.917 340.192 204.95V202.85C341.658 202.85 342.792 202.783 343.592 202.65C344.392 202.517 344.992 202.35 345.392 202.15C345.825 201.95 346.158 201.733 346.392 201.5H347.842V221.7C347.842 222.367 347.825 222.967 347.792 223.5C347.792 224 347.742 224.533 347.642 225.1C348.175 225.067 348.692 225.05 349.192 225.05C349.725 225.017 350.258 224.983 350.792 224.95V227H340.592V225.5ZM345.442 196.55C344.742 196.55 344.125 196.267 343.592 195.7C343.058 195.133 342.792 194.433 342.792 193.6C342.792 192.767 343.058 192.067 343.592 191.5C344.158 190.9 344.792 190.6 345.492 190.6C346.258 190.6 346.892 190.9 347.392 191.5C347.925 192.067 348.192 192.767 348.192 193.6C348.192 194.433 347.908 195.133 347.342 195.7C346.808 196.267 346.175 196.55 345.442 196.55ZM357.154 227V225.5C358.187 225.5 358.904 225.25 359.304 224.75C359.704 224.217 359.937 223.5 360.004 222.6C360.071 221.667 360.104 220.6 360.104 219.4L360.154 208C360.154 207.467 360.154 206.933 360.154 206.4C360.187 205.867 360.254 205.317 360.354 204.75C359.754 204.783 359.154 204.817 358.554 204.85C357.987 204.883 357.404 204.917 356.804 204.95V202.85C358.271 202.85 359.371 202.783 360.104 202.65C360.871 202.517 361.437 202.35 361.804 202.15C362.171 201.95 362.471 201.733 362.704 201.5H364.154C364.187 201.733 364.204 202 364.204 202.3C364.237 202.6 364.271 202.933 364.304 203.3C364.337 203.667 364.354 204.083 364.354 204.55C365.087 203.917 365.887 203.35 366.754 202.85C367.654 202.35 368.587 201.95 369.554 201.65C370.554 201.35 371.537 201.2 372.504 201.2C375.404 201.2 377.521 202.117 378.854 203.95C380.187 205.75 380.854 208.567 380.854 212.4V221.7C380.854 222.367 380.837 222.967 380.804 223.5C380.804 224 380.754 224.533 380.654 225.1C381.187 225.067 381.704 225.05 382.204 225.05C382.737 225.017 383.271 224.983 383.804 224.95V227H373.604V225.5C374.637 225.5 375.354 225.25 375.754 224.75C376.154 224.217 376.387 223.5 376.454 222.6C376.521 221.667 376.554 220.6 376.554 219.4V212.4C376.521 209.533 376.037 207.367 375.104 205.9C374.204 204.433 372.771 203.717 370.804 203.75C369.604 203.783 368.421 204.1 367.254 204.7C366.121 205.3 365.171 206.067 364.404 207C364.437 207.267 364.454 207.567 364.454 207.9C364.454 208.233 364.454 208.583 364.454 208.95L364.404 221.7C364.404 222.367 364.387 222.967 364.354 223.5C364.354 224 364.304 224.533 364.204 225.1C364.737 225.067 365.254 225.05 365.754 225.05C366.287 225.017 366.821 224.983 367.354 224.95V227H357.154ZM418.06 227.8C415.727 227.8 413.61 227.267 411.71 226.2C409.81 225.1 408.293 223.6 407.16 221.7C406.06 219.767 405.51 217.567 405.51 215.1C405.51 212.467 406.06 210.1 407.16 208C408.26 205.9 409.76 204.25 411.66 203.05C413.56 201.817 415.693 201.2 418.06 201.2C420.393 201.2 422.51 201.767 424.41 202.9C426.31 204 427.827 205.5 428.96 207.4C430.093 209.3 430.66 211.467 430.66 213.9C430.66 216.467 430.093 218.817 428.96 220.95C427.86 223.05 426.36 224.717 424.46 225.95C422.56 227.183 420.427 227.8 418.06 227.8ZM418.46 225.8C420.227 225.8 421.627 225.3 422.66 224.3C423.693 223.3 424.427 222 424.86 220.4C425.327 218.8 425.56 217.117 425.56 215.35C425.56 213.85 425.41 212.383 425.11 210.95C424.843 209.483 424.41 208.167 423.81 207C423.21 205.8 422.427 204.85 421.46 204.15C420.527 203.45 419.393 203.1 418.06 203.1C416.327 203.1 414.91 203.6 413.81 204.6C412.71 205.6 411.893 206.9 411.36 208.5C410.86 210.1 410.61 211.817 410.61 213.65C410.61 215.717 410.893 217.683 411.46 219.55C412.027 221.383 412.893 222.883 414.06 224.05C415.227 225.217 416.693 225.8 418.46 225.8ZM437.408 227V225.5C438.441 225.5 439.158 225.25 439.558 224.75C439.958 224.217 440.191 223.5 440.258 222.6C440.325 221.667 440.358 220.6 440.358 219.4L440.408 208C440.408 207.467 440.408 206.933 440.408 206.4C440.441 205.867 440.508 205.317 440.608 204.75C440.008 204.783 439.408 204.817 438.808 204.85C438.241 204.883 437.658 204.917 437.058 204.95V202.85C438.525 202.85 439.625 202.783 440.358 202.65C441.125 202.517 441.691 202.35 442.058 202.15C442.425 201.95 442.725 201.733 442.958 201.5H444.408C444.441 201.733 444.458 202 444.458 202.3C444.491 202.6 444.525 202.933 444.558 203.3C444.591 203.667 444.608 204.083 444.608 204.55C445.341 203.917 446.141 203.35 447.008 202.85C447.908 202.35 448.841 201.95 449.808 201.65C450.808 201.35 451.791 201.2 452.758 201.2C455.658 201.2 457.775 202.117 459.108 203.95C460.441 205.75 461.108 208.567 461.108 212.4V221.7C461.108 222.367 461.091 222.967 461.058 223.5C461.058 224 461.008 224.533 460.908 225.1C461.441 225.067 461.958 225.05 462.458 225.05C462.991 225.017 463.525 224.983 464.058 224.95V227H453.858V225.5C454.891 225.5 455.608 225.25 456.008 224.75C456.408 224.217 456.641 223.5 456.708 222.6C456.775 221.667 456.808 220.6 456.808 219.4V212.4C456.775 209.533 456.291 207.367 455.358 205.9C454.458 204.433 453.025 203.717 451.058 203.75C449.858 203.783 448.675 204.1 447.508 204.7C446.375 205.3 445.425 206.067 444.658 207C444.691 207.267 444.708 207.567 444.708 207.9C444.708 208.233 444.708 208.583 444.708 208.95L444.658 221.7C444.658 222.367 444.641 222.967 444.608 223.5C444.608 224 444.558 224.533 444.458 225.1C444.991 225.067 445.508 225.05 446.008 225.05C446.541 225.017 447.075 224.983 447.608 224.95V227H437.408ZM482.379 227.8C480.079 227.8 477.996 227.267 476.129 226.2C474.296 225.1 472.846 223.567 471.779 221.6C470.712 219.6 470.179 217.25 470.179 214.55C470.179 212.217 470.696 210.033 471.729 208C472.796 205.967 474.279 204.333 476.179 203.1C478.079 201.833 480.279 201.2 482.779 201.2C484.179 201.2 485.479 201.433 486.679 201.9C487.912 202.333 488.996 203.017 489.929 203.95C490.862 204.85 491.596 206 492.129 207.4C492.662 208.767 492.929 210.383 492.929 212.25L475.329 212.55C475.329 215.083 475.596 217.317 476.129 219.25C476.696 221.15 477.596 222.633 478.829 223.7C480.062 224.733 481.646 225.25 483.579 225.25C484.612 225.25 485.662 225.067 486.729 224.7C487.829 224.333 488.846 223.833 489.779 223.2C490.712 222.567 491.462 221.867 492.029 221.1L493.229 222.1C492.329 223.5 491.246 224.617 489.979 225.45C488.712 226.283 487.412 226.883 486.079 227.25C484.746 227.617 483.512 227.8 482.379 227.8ZM475.479 210.45H488.229C488.229 209.25 488.046 208.1 487.679 207C487.346 205.867 486.779 204.95 485.979 204.25C485.179 203.517 484.129 203.15 482.829 203.15C480.896 203.15 479.279 203.733 477.979 204.9C476.712 206.033 475.879 207.883 475.479 210.45ZM527.713 227.8C525.48 227.8 523.413 227.3 521.513 226.3C519.647 225.267 518.147 223.8 517.013 221.9C515.913 219.967 515.363 217.65 515.363 214.95C515.363 213.217 515.68 211.533 516.313 209.9C516.947 208.267 517.83 206.8 518.963 205.5C520.13 204.167 521.513 203.117 523.113 202.35C524.713 201.583 526.48 201.2 528.413 201.2C530.28 201.2 531.897 201.483 533.263 202.05C534.663 202.617 535.747 203.367 536.513 204.3C537.28 205.233 537.663 206.25 537.663 207.35C537.663 208.083 537.463 208.717 537.063 209.25C536.663 209.75 536.08 210 535.313 210C534.48 210.033 533.88 209.783 533.513 209.25C533.18 208.683 533.013 208.183 533.013 207.75C533.013 207.417 533.063 207.083 533.163 206.75C533.263 206.383 533.463 206.05 533.763 205.75C533.497 204.95 533.03 204.367 532.363 204C531.697 203.6 530.997 203.35 530.263 203.25C529.563 203.117 528.98 203.05 528.513 203.05C526.247 203.05 524.33 203.967 522.763 205.8C521.23 207.6 520.463 210.233 520.463 213.7C520.463 215.933 520.813 217.917 521.513 219.65C522.247 221.383 523.263 222.75 524.563 223.75C525.863 224.717 527.363 225.2 529.063 225.2C530.63 225.2 532.13 224.783 533.563 223.95C534.997 223.117 536.113 222.1 536.913 220.9L538.213 221.9C537.347 223.3 536.297 224.433 535.063 225.3C533.863 226.167 532.613 226.8 531.313 227.2C530.047 227.6 528.847 227.8 527.713 227.8ZM544.125 225.5C545.158 225.5 545.875 225.25 546.275 224.75C546.675 224.217 546.908 223.5 546.975 222.6C547.041 221.667 547.075 220.6 547.075 219.4V195.75C547.075 195.217 547.075 194.717 547.075 194.25C547.108 193.75 547.158 193.167 547.225 192.5C546.625 192.533 546.025 192.567 545.425 192.6C544.858 192.633 544.275 192.667 543.675 192.7V190.6C545.141 190.6 546.275 190.533 547.075 190.4C547.908 190.267 548.525 190.1 548.925 189.9C549.358 189.7 549.691 189.483 549.925 189.25H551.375L551.425 221.7C551.425 222.367 551.408 222.967 551.375 223.5C551.341 224 551.275 224.533 551.175 225.1C551.708 225.067 552.225 225.05 552.725 225.05C553.258 225.017 553.791 224.983 554.325 224.95V227H544.125V225.5ZM560.748 225.5C561.781 225.5 562.498 225.25 562.898 224.75C563.298 224.217 563.531 223.5 563.598 222.6C563.665 221.667 563.698 220.6 563.698 219.4V208C563.698 207.467 563.715 206.967 563.748 206.5C563.781 206 563.831 205.417 563.898 204.75C563.298 204.783 562.698 204.817 562.098 204.85C561.531 204.883 560.948 204.917 560.348 204.95V202.85C561.815 202.85 562.948 202.783 563.748 202.65C564.548 202.517 565.148 202.35 565.548 202.15C565.981 201.95 566.315 201.733 566.548 201.5H567.998V221.7C567.998 222.367 567.981 222.967 567.948 223.5C567.948 224 567.898 224.533 567.798 225.1C568.331 225.067 568.848 225.05 569.348 225.05C569.881 225.017 570.415 224.983 570.948 224.95V227H560.748V225.5ZM565.598 196.55C564.898 196.55 564.281 196.267 563.748 195.7C563.215 195.133 562.948 194.433 562.948 193.6C562.948 192.767 563.215 192.067 563.748 191.5C564.315 190.9 564.948 190.6 565.648 190.6C566.415 190.6 567.048 190.9 567.548 191.5C568.081 192.067 568.348 192.767 568.348 193.6C568.348 194.433 568.065 195.133 567.498 195.7C566.965 196.267 566.331 196.55 565.598 196.55ZM589.51 227.8C587.277 227.8 585.21 227.3 583.31 226.3C581.444 225.267 579.944 223.8 578.81 221.9C577.71 219.967 577.16 217.65 577.16 214.95C577.16 213.217 577.477 211.533 578.11 209.9C578.744 208.267 579.627 206.8 580.76 205.5C581.927 204.167 583.31 203.117 584.91 202.35C586.51 201.583 588.277 201.2 590.21 201.2C592.077 201.2 593.694 201.483 595.06 202.05C596.46 202.617 597.544 203.367 598.31 204.3C599.077 205.233 599.46 206.25 599.46 207.35C599.46 208.083 599.26 208.717 598.86 209.25C598.46 209.75 597.877 210 597.11 210C596.277 210.033 595.677 209.783 595.31 209.25C594.977 208.683 594.81 208.183 594.81 207.75C594.81 207.417 594.86 207.083 594.96 206.75C595.06 206.383 595.26 206.05 595.56 205.75C595.294 204.95 594.827 204.367 594.16 204C593.494 203.6 592.794 203.35 592.06 203.25C591.36 203.117 590.777 203.05 590.31 203.05C588.044 203.05 586.127 203.967 584.56 205.8C583.027 207.6 582.26 210.233 582.26 213.7C582.26 215.933 582.61 217.917 583.31 219.65C584.044 221.383 585.06 222.75 586.36 223.75C587.66 224.717 589.16 225.2 590.86 225.2C592.427 225.2 593.927 224.783 595.36 223.95C596.794 223.117 597.91 222.1 598.71 220.9L600.01 221.9C599.144 223.3 598.094 224.433 596.86 225.3C595.66 226.167 594.41 226.8 593.11 227.2C591.844 227.6 590.644 227.8 589.51 227.8ZM605.972 227V225.5C607.005 225.5 607.705 225.25 608.072 224.75C608.472 224.217 608.705 223.5 608.772 222.6C608.838 221.667 608.872 220.6 608.872 219.4L608.922 195.75C608.922 195.217 608.922 194.717 608.922 194.25C608.955 193.75 609.005 193.167 609.072 192.5C608.472 192.533 607.872 192.567 607.272 192.6C606.705 192.633 606.122 192.667 605.522 192.7V190.6C606.988 190.6 608.122 190.533 608.922 190.4C609.722 190.267 610.322 190.1 610.722 189.9C611.155 189.7 611.488 189.483 611.722 189.25H613.172V212.9H615.172L621.272 206.5C621.838 205.933 622.355 205.433 622.822 205C623.288 204.533 623.755 204.15 624.222 203.85L620.822 204V202H629.922V203.5C628.788 203.6 627.722 203.967 626.722 204.6C625.755 205.2 624.855 205.883 624.022 206.65C623.222 207.417 622.522 208.117 621.922 208.75L618.022 212.85C618.688 213.15 619.255 213.533 619.722 214C620.188 214.467 620.655 214.983 621.122 215.55L624.672 220.1C624.838 220.3 625.122 220.683 625.522 221.25C625.955 221.817 626.455 222.433 627.022 223.1C627.622 223.767 628.238 224.333 628.872 224.8C629.538 225.267 630.155 225.5 630.722 225.5V227H626.172C625.238 227 624.355 226.517 623.522 225.55C622.688 224.583 621.805 223.5 620.872 222.3C620.005 221.1 619.222 220.017 618.522 219.05C617.855 218.05 617.238 217.183 616.672 216.45C616.138 215.717 615.655 215.15 615.222 214.75L613.172 214.85V221.7C613.172 222.367 613.155 222.967 613.122 223.5C613.122 224 613.072 224.533 612.972 225.1C613.505 225.067 614.038 225.05 614.572 225.05C615.105 225.017 615.638 224.983 616.172 224.95V227H605.972Z" fill="black"/>
<g filter="url(#filter0_d_588_2100)">
<rect x="7" y="5" width="690" height="136" rx="4" fill="#181818" fill-opacity="0.9" shape-rendering="crispEdges"/>
<path d="M71.9873 91V89.35C73.254 89.2833 74.1206 89 74.5873 88.5C75.054 87.9667 75.304 87.25 75.3373 86.35C75.404 85.4167 75.4373 84.3667 75.4373 83.2V61.6C75.4373 60.9333 75.454 60.3 75.4873 59.7C75.5206 59.0667 75.554 58.5 75.5873 58C74.9873 58.0333 74.3873 58.0667 73.7873 58.1C73.1873 58.1333 72.5873 58.1667 71.9873 58.2V56H104.537V57.65C103.304 57.6833 102.437 57.9667 101.937 58.5C101.471 59.0333 101.204 59.75 101.137 60.65C101.104 61.55 101.087 62.6 101.087 63.8V85.05C101.087 85.95 101.071 86.7333 101.037 87.4C101.037 88.0333 101.004 88.5667 100.937 89C101.537 88.9667 102.137 88.9333 102.737 88.9C103.337 88.8667 103.937 88.8333 104.537 88.8V91H93.2373V89.35C94.504 89.2833 95.3706 89 95.8373 88.5C96.3373 87.9667 96.604 87.25 96.6373 86.35C96.704 85.4167 96.7373 84.3667 96.7373 83.2V57.95L83.2373 58.15C82.2373 58.1833 81.4873 58.3833 80.9873 58.75C80.5206 59.0833 80.204 59.55 80.0373 60.15C79.904 60.75 79.8206 61.45 79.7873 62.25V85.05C79.7873 85.95 79.7706 86.7333 79.7373 87.4C79.7373 88.0333 79.704 88.5667 79.6373 89C80.2373 88.9667 80.8373 88.9333 81.4373 88.9C82.0373 88.8667 82.6373 88.8333 83.2373 88.8V91H71.9873ZM122.951 91.8C120.651 91.8 118.568 91.2667 116.701 90.2C114.868 89.1 113.418 87.5667 112.351 85.6C111.285 83.6 110.751 81.25 110.751 78.55C110.751 76.2167 111.268 74.0333 112.301 72C113.368 69.9667 114.851 68.3333 116.751 67.1C118.651 65.8333 120.851 65.2 123.351 65.2C124.751 65.2 126.051 65.4333 127.251 65.9C128.485 66.3333 129.568 67.0167 130.501 67.95C131.435 68.85 132.168 70 132.701 71.4C133.235 72.7667 133.501 74.3833 133.501 76.25L115.901 76.55C115.901 79.0833 116.168 81.3167 116.701 83.25C117.268 85.15 118.168 86.6333 119.401 87.7C120.635 88.7333 122.218 89.25 124.151 89.25C125.185 89.25 126.235 89.0667 127.301 88.7C128.401 88.3333 129.418 87.8333 130.351 87.2C131.285 86.5667 132.035 85.8667 132.601 85.1L133.801 86.1C132.901 87.5 131.818 88.6167 130.551 89.45C129.285 90.2833 127.985 90.8833 126.651 91.25C125.318 91.6167 124.085 91.8 122.951 91.8ZM116.051 74.45H128.801C128.801 73.25 128.618 72.1 128.251 71C127.918 69.8667 127.351 68.95 126.551 68.25C125.751 67.5167 124.701 67.15 123.401 67.15C121.468 67.15 119.851 67.7333 118.551 68.9C117.285 70.0333 116.451 71.8833 116.051 74.45ZM140.001 103.75V102.25C141.034 102.25 141.751 101.983 142.151 101.45C142.551 100.95 142.784 100.233 142.851 99.3C142.918 98.4 142.951 97.35 142.951 96.15L143.051 72C143.051 71.4667 143.051 70.9333 143.051 70.4C143.084 69.8667 143.151 69.3167 143.251 68.75C142.651 68.7833 142.051 68.8167 141.451 68.85C140.884 68.8833 140.301 68.9167 139.701 68.95V66.85C141.168 66.85 142.268 66.7833 143.001 66.65C143.768 66.5167 144.318 66.35 144.651 66.15C145.018 65.95 145.318 65.7333 145.551 65.5H147.051C147.084 65.8333 147.118 66.2333 147.151 66.7C147.184 67.1333 147.218 67.6333 147.251 68.2C148.251 67.3 149.434 66.5833 150.801 66.05C152.201 65.4833 153.601 65.2 155.001 65.2C156.934 65.2 158.734 65.7 160.401 66.7C162.068 67.7 163.418 69.1333 164.451 71C165.484 72.8333 166.001 75.0333 166.001 77.6C166.001 80.4333 165.401 82.9167 164.201 85.05C163.034 87.1833 161.484 88.85 159.551 90.05C157.618 91.2167 155.518 91.8 153.251 91.8C152.084 91.8 151.001 91.65 150.001 91.35C149.034 91.0833 148.118 90.6833 147.251 90.15V98.45C147.251 99.1167 147.234 99.7 147.201 100.2C147.201 100.733 147.151 101.283 147.051 101.85C147.584 101.817 148.101 101.783 148.601 101.75C149.134 101.75 149.668 101.733 150.201 101.7V103.75H140.001ZM153.151 89.8C154.751 89.8 156.118 89.3167 157.251 88.35C158.418 87.35 159.301 86 159.901 84.3C160.534 82.5667 160.851 80.6 160.851 78.4C160.851 76.6 160.584 74.8833 160.051 73.25C159.551 71.5833 158.734 70.2333 157.601 69.2C156.501 68.1667 155.034 67.65 153.201 67.65C152.068 67.65 150.968 67.9333 149.901 68.5C148.868 69.0333 148.001 69.6833 147.301 70.45C147.301 70.5833 147.301 70.7833 147.301 71.05C147.334 71.2833 147.351 71.7167 147.351 72.35C147.351 72.95 147.351 73.8667 147.351 75.1C147.351 76.3 147.334 77.9333 147.301 80C147.301 82.0667 147.301 84.6833 147.301 87.85C148.134 88.4833 149.034 88.9667 150.001 89.3C151.001 89.6333 152.051 89.8 153.151 89.8ZM184.885 91.8C182.585 91.8 180.502 91.2667 178.635 90.2C176.802 89.1 175.352 87.5667 174.285 85.6C173.218 83.6 172.685 81.25 172.685 78.55C172.685 76.2167 173.202 74.0333 174.235 72C175.302 69.9667 176.785 68.3333 178.685 67.1C180.585 65.8333 182.785 65.2 185.285 65.2C186.685 65.2 187.985 65.4333 189.185 65.9C190.418 66.3333 191.502 67.0167 192.435 67.95C193.368 68.85 194.102 70 194.635 71.4C195.168 72.7667 195.435 74.3833 195.435 76.25L177.835 76.55C177.835 79.0833 178.102 81.3167 178.635 83.25C179.202 85.15 180.102 86.6333 181.335 87.7C182.568 88.7333 184.152 89.25 186.085 89.25C187.118 89.25 188.168 89.0667 189.235 88.7C190.335 88.3333 191.352 87.8333 192.285 87.2C193.218 86.5667 193.968 85.8667 194.535 85.1L195.735 86.1C194.835 87.5 193.752 88.6167 192.485 89.45C191.218 90.2833 189.918 90.8833 188.585 91.25C187.252 91.6167 186.018 91.8 184.885 91.8ZM177.985 74.45H190.735C190.735 73.25 190.552 72.1 190.185 71C189.852 69.8667 189.285 68.95 188.485 68.25C187.685 67.5167 186.635 67.15 185.335 67.15C183.402 67.15 181.785 67.7333 180.485 68.9C179.218 70.0333 178.385 71.8833 177.985 74.45ZM202.385 91V89.5C203.618 89.4667 204.418 89.0833 204.785 88.35C205.185 87.5833 205.385 86.55 205.385 85.25V70.8C205.385 70.2 205.401 69.6667 205.435 69.2C205.468 68.7333 205.518 68.3 205.585 67.9C205.051 67.9333 204.518 67.9667 203.985 68C203.485 68 202.968 68.0167 202.435 68.05V66C203.335 66 204.485 66 205.885 66C207.285 65.9667 208.818 65.95 210.485 65.95C212.185 65.95 213.868 65.95 215.535 65.95C217.868 65.95 219.768 66.4333 221.235 67.4C222.735 68.3333 223.468 69.7667 223.435 71.7C223.401 73.0333 222.935 74.2833 222.035 75.45C221.168 76.5833 219.785 77.3833 217.885 77.85C220.151 77.95 221.868 78.5667 223.035 79.7C224.201 80.8 224.785 82.2 224.785 83.9C224.785 85.4 224.385 86.6833 223.585 87.75C222.785 88.8167 221.735 89.6333 220.435 90.2C219.135 90.7333 217.735 91 216.235 91H202.385ZM209.585 88.95C209.951 88.9833 210.435 89 211.035 89C211.668 89 212.251 89 212.785 89C213.351 89 213.701 89 213.835 89C215.701 89 217.185 88.6167 218.285 87.85C219.418 87.05 219.985 85.7833 219.985 84.05C219.985 82.2833 219.368 81.0333 218.135 80.3C216.901 79.5333 215.468 79.15 213.835 79.15C213.135 79.15 212.401 79.1667 211.635 79.2C210.901 79.2 210.251 79.2167 209.685 79.25V86.15C209.685 86.7833 209.668 87.3333 209.635 87.8C209.635 88.2667 209.618 88.65 209.585 88.95ZM209.685 77.35L213.435 77.3C214.801 77.2667 215.885 76.9833 216.685 76.45C217.485 75.8833 218.051 75.2 218.385 74.4C218.718 73.5667 218.868 72.75 218.835 71.95C218.835 70.7833 218.585 69.9 218.085 69.3C217.585 68.7 216.935 68.3 216.135 68.1C215.368 67.8667 214.535 67.75 213.635 67.75C212.435 67.75 211.468 67.9667 210.735 68.4C210.035 68.8333 209.685 69.7667 209.685 71.2V77.35ZM243.359 91.8C241.025 91.8 238.909 91.2667 237.009 90.2C235.109 89.1 233.592 87.6 232.459 85.7C231.359 83.7667 230.809 81.5667 230.809 79.1C230.809 76.4667 231.359 74.1 232.459 72C233.559 69.9 235.059 68.25 236.959 67.05C238.859 65.8167 240.992 65.2 243.359 65.2C245.692 65.2 247.809 65.7667 249.709 66.9C251.609 68 253.125 69.5 254.259 71.4C255.392 73.3 255.959 75.4667 255.959 77.9C255.959 80.4667 255.392 82.8167 254.259 84.95C253.159 87.05 251.659 88.7167 249.759 89.95C247.859 91.1833 245.725 91.8 243.359 91.8ZM243.759 89.8C245.525 89.8 246.925 89.3 247.959 88.3C248.992 87.3 249.725 86 250.159 84.4C250.625 82.8 250.859 81.1167 250.859 79.35C250.859 77.85 250.709 76.3833 250.409 74.95C250.142 73.4833 249.709 72.1667 249.109 71C248.509 69.8 247.725 68.85 246.759 68.15C245.825 67.45 244.692 67.1 243.359 67.1C241.625 67.1 240.209 67.6 239.109 68.6C238.009 69.6 237.192 70.9 236.659 72.5C236.159 74.1 235.909 75.8167 235.909 77.65C235.909 79.7167 236.192 81.6833 236.759 83.55C237.325 85.3833 238.192 86.8833 239.359 88.05C240.525 89.2167 241.992 89.8 243.759 89.8ZM261.607 99.9V89.1H263.657C264.457 89.1 265.124 88.9167 265.657 88.55C266.19 88.15 266.707 87.2833 267.207 85.95C267.574 84.95 267.89 83.85 268.157 82.65C268.457 81.45 268.707 80.1167 268.907 78.65C269.107 77.15 269.274 75.5167 269.407 73.75C269.54 71.9833 269.64 70.05 269.707 67.95L265.307 68.15V66H287.407V67.5C286.374 67.5 285.657 67.7667 285.257 68.3C284.857 68.8 284.624 69.5167 284.557 70.45C284.49 71.35 284.457 72.4 284.457 73.6V85.7C284.424 86.3667 284.39 86.9667 284.357 87.5C284.324 88 284.257 88.5333 284.157 89.1L288.707 88.9V99.9H286.807C286.807 97.1667 286.524 95 285.957 93.4C285.424 91.8 284.324 91 282.657 91H267.707C266.074 91 264.957 91.7833 264.357 93.35C263.79 94.95 263.507 97.1333 263.507 99.9H261.607ZM268.157 89.1H277.107C278.14 89.1 278.857 88.85 279.257 88.35C279.69 87.8167 279.94 87.1 280.007 86.2C280.107 85.2667 280.157 84.2 280.157 83V71.3C280.157 70.6333 280.157 70.05 280.157 69.55C280.19 69.0167 280.24 68.4667 280.307 67.9H275.107C274.074 67.9 273.357 68.2 272.957 68.8C272.59 69.4 272.34 70.2167 272.207 71.25C272.04 73.4833 271.807 75.5833 271.507 77.55C271.24 79.4833 270.957 81.2 270.657 82.7C270.39 84.1667 270.107 85.3167 269.807 86.15C269.574 86.7833 269.324 87.35 269.057 87.85C268.79 88.3167 268.49 88.7333 268.157 89.1ZM305.048 67.5C304.015 67.5 303.298 67.7667 302.898 68.3C302.498 68.8 302.265 69.5167 302.198 70.45C302.131 71.35 302.081 72.4 302.048 73.6L301.998 85.7C301.998 86.3667 301.981 86.9667 301.948 87.5C301.948 88 301.898 88.5333 301.798 89.1C302.331 89.0667 302.848 89.05 303.348 89.05C303.881 89.0167 304.415 88.9833 304.948 88.95V91H294.748V89.5C295.781 89.5 296.498 89.25 296.898 88.75C297.298 88.2167 297.531 87.5 297.598 86.6C297.698 85.6667 297.748 84.6 297.748 83.4V71.3C297.748 70.6333 297.748 70.05 297.748 69.55C297.781 69.0167 297.848 68.4667 297.948 67.9C297.415 67.9333 296.881 67.9667 296.348 68C295.848 68 295.331 68.0167 294.798 68.05V66H305.048V67.5ZM314.848 68.4L316.448 69.6L301.098 88.85L299.398 87.45L314.848 68.4ZM321.698 67.5C320.698 67.5 319.981 67.7667 319.548 68.3C319.148 68.8 318.915 69.5167 318.848 70.45C318.781 71.35 318.748 72.4 318.748 73.6L318.648 85.7C318.648 86.3667 318.631 86.9667 318.598 87.5C318.598 88 318.565 88.5333 318.498 89.1C319.031 89.0667 319.548 89.05 320.048 89.05C320.581 89.0167 321.115 88.9833 321.648 88.95V91H311.398V89.5C312.431 89.5 313.148 89.25 313.548 88.75C313.948 88.2167 314.181 87.5 314.248 86.6C314.348 85.6667 314.398 84.6 314.398 83.4L314.448 71.3C314.448 70.6333 314.448 70.05 314.448 69.55C314.481 69.0167 314.548 68.4667 314.648 67.9C314.115 67.9333 313.581 67.9667 313.048 68C312.548 68 312.031 68.0167 311.498 68.05V66H321.698V67.5ZM344.23 91V89.5C345.464 89.4667 346.264 89.0833 346.63 88.35C347.03 87.5833 347.23 86.55 347.23 85.25V70.8C347.23 70.2 347.247 69.6667 347.28 69.2C347.314 68.7333 347.364 68.3 347.43 67.9C346.897 67.9333 346.364 67.9667 345.83 68C345.33 68 344.814 68.0167 344.28 68.05V66C345.18 66 346.33 66 347.73 66C349.13 65.9667 350.664 65.95 352.33 65.95C354.03 65.95 355.714 65.95 357.38 65.95C359.714 65.95 361.614 66.4333 363.08 67.4C364.58 68.3333 365.314 69.7667 365.28 71.7C365.247 73.0333 364.78 74.2833 363.88 75.45C363.014 76.5833 361.63 77.3833 359.73 77.85C361.997 77.95 363.714 78.5667 364.88 79.7C366.047 80.8 366.63 82.2 366.63 83.9C366.63 85.4 366.23 86.6833 365.43 87.75C364.63 88.8167 363.58 89.6333 362.28 90.2C360.98 90.7333 359.58 91 358.08 91H344.23ZM351.43 88.95C351.797 88.9833 352.28 89 352.88 89C353.514 89 354.097 89 354.63 89C355.197 89 355.547 89 355.68 89C357.547 89 359.03 88.6167 360.13 87.85C361.264 87.05 361.83 85.7833 361.83 84.05C361.83 82.2833 361.214 81.0333 359.98 80.3C358.747 79.5333 357.314 79.15 355.68 79.15C354.98 79.15 354.247 79.1667 353.48 79.2C352.747 79.2 352.097 79.2167 351.53 79.25V86.15C351.53 86.7833 351.514 87.3333 351.48 87.8C351.48 88.2667 351.464 88.65 351.43 88.95ZM351.53 77.35L355.28 77.3C356.647 77.2667 357.73 76.9833 358.53 76.45C359.33 75.8833 359.897 75.2 360.23 74.4C360.564 73.5667 360.714 72.75 360.68 71.95C360.68 70.7833 360.43 69.9 359.93 69.3C359.43 68.7 358.78 68.3 357.98 68.1C357.214 67.8667 356.38 67.75 355.48 67.75C354.28 67.75 353.314 67.9667 352.58 68.4C351.88 68.8333 351.53 69.7667 351.53 71.2V77.35ZM400.839 91.8C398.506 91.8 396.389 91.2667 394.489 90.2C392.589 89.1 391.073 87.6 389.939 85.7C388.839 83.7667 388.289 81.5667 388.289 79.1C388.289 76.4667 388.839 74.1 389.939 72C391.039 69.9 392.539 68.25 394.439 67.05C396.339 65.8167 398.473 65.2 400.839 65.2C403.173 65.2 405.289 65.7667 407.189 66.9C409.089 68 410.606 69.5 411.739 71.4C412.873 73.3 413.439 75.4667 413.439 77.9C413.439 80.4667 412.873 82.8167 411.739 84.95C410.639 87.05 409.139 88.7167 407.239 89.95C405.339 91.1833 403.206 91.8 400.839 91.8ZM401.239 89.8C403.006 89.8 404.406 89.3 405.439 88.3C406.473 87.3 407.206 86 407.639 84.4C408.106 82.8 408.339 81.1167 408.339 79.35C408.339 77.85 408.189 76.3833 407.889 74.95C407.623 73.4833 407.189 72.1667 406.589 71C405.989 69.8 405.206 68.85 404.239 68.15C403.306 67.45 402.173 67.1 400.839 67.1C399.106 67.1 397.689 67.6 396.589 68.6C395.489 69.6 394.673 70.9 394.139 72.5C393.639 74.1 393.389 75.8167 393.389 77.65C393.389 79.7167 393.673 81.6833 394.239 83.55C394.806 85.3833 395.673 86.8833 396.839 88.05C398.006 89.2167 399.473 89.8 401.239 89.8ZM419.087 99.9V89.1H421.137C421.937 89.1 422.604 88.9167 423.137 88.55C423.671 88.15 424.187 87.2833 424.687 85.95C425.054 84.95 425.371 83.85 425.637 82.65C425.937 81.45 426.187 80.1167 426.387 78.65C426.587 77.15 426.754 75.5167 426.887 73.75C427.021 71.9833 427.121 70.05 427.187 67.95L422.787 68.15V66H444.887V67.5C443.854 67.5 443.137 67.7667 442.737 68.3C442.337 68.8 442.104 69.5167 442.037 70.45C441.971 71.35 441.937 72.4 441.937 73.6V85.7C441.904 86.3667 441.871 86.9667 441.837 87.5C441.804 88 441.737 88.5333 441.637 89.1L446.187 88.9V99.9H444.287C444.287 97.1667 444.004 95 443.437 93.4C442.904 91.8 441.804 91 440.137 91H425.187C423.554 91 422.437 91.7833 421.837 93.35C421.271 94.95 420.987 97.1333 420.987 99.9H419.087ZM425.637 89.1H434.587C435.621 89.1 436.337 88.85 436.737 88.35C437.171 87.8167 437.421 87.1 437.487 86.2C437.587 85.2667 437.637 84.2 437.637 83V71.3C437.637 70.6333 437.637 70.05 437.637 69.55C437.671 69.0167 437.721 68.4667 437.787 67.9H432.587C431.554 67.9 430.837 68.2 430.437 68.8C430.071 69.4 429.821 70.2167 429.687 71.25C429.521 73.4833 429.287 75.5833 428.987 77.55C428.721 79.4833 428.437 81.2 428.137 82.7C427.871 84.1667 427.587 85.3167 427.287 86.15C427.054 86.7833 426.804 87.35 426.537 87.85C426.271 88.3167 425.971 88.7333 425.637 89.1ZM462.528 67.5C461.495 67.5 460.778 67.7667 460.378 68.3C459.978 68.8 459.745 69.5167 459.678 70.45C459.612 71.35 459.562 72.4 459.528 73.6L459.478 85.7C459.478 86.3667 459.462 86.9667 459.428 87.5C459.428 88 459.378 88.5333 459.278 89.1C459.812 89.0667 460.328 89.05 460.828 89.05C461.362 89.0167 461.895 88.9833 462.428 88.95V91H452.228V89.5C453.262 89.5 453.978 89.25 454.378 88.75C454.778 88.2167 455.012 87.5 455.078 86.6C455.178 85.6667 455.228 84.6 455.228 83.4V71.3C455.228 70.6333 455.228 70.05 455.228 69.55C455.262 69.0167 455.328 68.4667 455.428 67.9C454.895 67.9333 454.362 67.9667 453.828 68C453.328 68 452.812 68.0167 452.278 68.05V66H462.528V67.5ZM472.328 68.4L473.928 69.6L458.578 88.85L456.878 87.45L472.328 68.4ZM479.178 67.5C478.178 67.5 477.462 67.7667 477.028 68.3C476.628 68.8 476.395 69.5167 476.328 70.45C476.262 71.35 476.228 72.4 476.228 73.6L476.128 85.7C476.128 86.3667 476.112 86.9667 476.078 87.5C476.078 88 476.045 88.5333 475.978 89.1C476.512 89.0667 477.028 89.05 477.528 89.05C478.062 89.0167 478.595 88.9833 479.128 88.95V91H468.878V89.5C469.912 89.5 470.628 89.25 471.028 88.75C471.428 88.2167 471.662 87.5 471.728 86.6C471.828 85.6667 471.878 84.6 471.878 83.4L471.928 71.3C471.928 70.6333 471.928 70.05 471.928 69.55C471.962 69.0167 472.028 68.4667 472.128 67.9C471.595 67.9333 471.062 67.9667 470.528 68C470.028 68 469.512 68.0167 468.978 68.05V66H479.178V67.5ZM496.376 67.5C495.343 67.5 494.626 67.7667 494.226 68.3C493.826 68.8 493.593 69.5167 493.526 70.45C493.459 71.35 493.409 72.4 493.376 73.6L493.326 85.7C493.326 86.3667 493.309 86.9667 493.276 87.5C493.276 88 493.226 88.5333 493.126 89.1L496.276 88.95V91H486.076V89.5C487.109 89.5 487.826 89.25 488.226 88.75C488.626 88.2167 488.859 87.5 488.926 86.6C489.026 85.6667 489.076 84.6 489.076 83.4V71.3C489.076 70.6333 489.076 70.05 489.076 69.55C489.109 69.0167 489.176 68.4667 489.276 67.9L486.126 68.05V66H496.376V67.5ZM512.776 67.5C511.776 67.5 511.059 67.7667 510.626 68.3C510.226 68.8 509.993 69.5167 509.926 70.45C509.893 71.35 509.859 72.4 509.826 73.6L509.776 85.7C509.776 86.3667 509.759 86.9667 509.726 87.5C509.726 88 509.676 88.5333 509.576 89.1L512.726 88.95V91H502.526V89.5C503.559 89.5 504.276 89.25 504.676 88.75C505.076 88.2167 505.309 87.5 505.376 86.6C505.443 85.6667 505.476 84.6 505.476 83.4L505.526 71.3C505.526 70.6333 505.526 70.05 505.526 69.55C505.559 69.0167 505.626 68.4667 505.726 67.9L502.576 68.05V66H512.776V67.5ZM491.576 77.2H507.276V79.15L491.576 79.35V77.2ZM534.814 91V89.5C535.848 89.5 536.564 89.25 536.964 88.75C537.364 88.2167 537.598 87.5 537.664 86.6C537.764 85.6667 537.814 84.6 537.814 83.4L537.864 71.3C537.864 70.6333 537.864 70.05 537.864 69.55C537.898 69.0167 537.964 68.4667 538.064 67.9C537.531 67.9333 536.998 67.9667 536.464 68C535.964 68 535.448 68.0167 534.914 68.05V66H545.114V67.5C544.114 67.5 543.398 67.7667 542.964 68.3C542.564 68.8 542.331 69.5167 542.264 70.45C542.198 71.35 542.164 72.4 542.164 73.6L542.114 76.9H544.064L550.164 70.5C550.731 69.9333 551.248 69.4333 551.714 69C552.181 68.5333 552.648 68.15 553.114 67.85L549.714 68V66H558.814V67.5C557.681 67.6 556.614 67.9667 555.614 68.6C554.648 69.2 553.748 69.8833 552.914 70.65C552.114 71.4167 551.414 72.1167 550.814 72.75L546.914 76.85C547.581 77.15 548.148 77.5333 548.614 78C549.081 78.4667 549.548 78.9833 550.014 79.55L553.564 84.1C553.731 84.3 554.014 84.6833 554.414 85.25C554.848 85.8167 555.348 86.4333 555.914 87.1C556.514 87.7667 557.131 88.3333 557.764 88.8C558.431 89.2667 559.048 89.5 559.614 89.5V91H555.064C554.131 91 553.248 90.5167 552.414 89.55C551.581 88.5833 550.698 87.5 549.764 86.3C548.898 85.1 548.114 84.0167 547.414 83.05C546.748 82.05 546.131 81.1833 545.564 80.45C545.031 79.7167 544.548 79.15 544.114 78.75L542.114 78.85L542.064 85.7C542.064 86.3667 542.048 86.9667 542.014 87.5C542.014 88 541.964 88.5333 541.864 89.1C542.398 89.0667 542.914 89.05 543.414 89.05C543.948 89.0167 544.481 88.9833 545.014 88.95V91H534.814ZM566.57 91.55C565.37 91.55 564.436 91.3167 563.77 90.85C563.136 90.35 562.82 89.7 562.82 88.9C562.82 88.1667 563.003 87.5667 563.37 87.1C563.736 86.6333 564.286 86.3833 565.02 86.35C565.82 86.35 566.386 86.55 566.72 86.95C567.086 87.35 567.27 87.75 567.27 88.15C567.27 88.25 567.253 88.3833 567.22 88.55C567.22 88.6833 567.203 88.8 567.17 88.9C567.37 88.9667 567.52 89 567.62 89C568.286 89 568.986 88.3333 569.72 87C570.453 85.6667 571.12 83.4667 571.72 80.4C572.353 77.3 572.786 73.15 573.02 67.95L568.32 68.15V66H589.87V67.5C588.87 67.5 588.153 67.7667 587.72 68.3C587.32 68.8 587.086 69.5167 587.02 70.45C586.953 71.35 586.92 72.4 586.92 73.6V85.7C586.886 86.3667 586.853 86.9667 586.82 87.5C586.786 88 586.72 88.5333 586.62 89.1L589.77 88.95V91H579.57V89.5C580.603 89.5 581.32 89.25 581.72 88.75C582.12 88.2167 582.353 87.5 582.42 86.6C582.52 85.6667 582.586 84.6 582.62 83.4V71.3C582.62 70.6333 582.62 70.05 582.62 69.55C582.653 69.0167 582.72 68.4667 582.82 67.9H578.42C577.286 67.9 576.503 68.2667 576.07 69C575.67 69.7 575.47 70.65 575.47 71.85C575.336 74.2167 575.086 76.5667 574.72 78.9C574.386 81.2333 573.886 83.35 573.22 85.25C572.553 87.15 571.67 88.6833 570.57 89.85C569.503 90.9833 568.17 91.55 566.57 91.55ZM607.06 67.5C606.026 67.5 605.31 67.7667 604.91 68.3C604.51 68.8 604.276 69.5167 604.21 70.45C604.143 71.35 604.093 72.4 604.06 73.6L604.01 85.7C604.01 86.3667 603.993 86.9667 603.96 87.5C603.96 88 603.91 88.5333 603.81 89.1C604.343 89.0667 604.86 89.05 605.36 89.05C605.893 89.0167 606.426 88.9833 606.96 88.95V91H596.76V89.5C597.793 89.5 598.51 89.25 598.91 88.75C599.31 88.2167 599.543 87.5 599.61 86.6C599.71 85.6667 599.76 84.6 599.76 83.4V71.3C599.76 70.6333 599.76 70.05 599.76 69.55C599.793 69.0167 599.86 68.4667 599.96 67.9C599.426 67.9333 598.893 67.9667 598.36 68C597.86 68 597.343 68.0167 596.81 68.05V66H607.06V67.5ZM616.86 68.4L618.46 69.6L603.11 88.85L601.41 87.45L616.86 68.4ZM623.71 67.5C622.71 67.5 621.993 67.7667 621.56 68.3C621.16 68.8 620.926 69.5167 620.86 70.45C620.793 71.35 620.76 72.4 620.76 73.6L620.66 85.7C620.66 86.3667 620.643 86.9667 620.61 87.5C620.61 88 620.576 88.5333 620.51 89.1C621.043 89.0667 621.56 89.05 622.06 89.05C622.593 89.0167 623.126 88.9833 623.66 88.95V91H613.41V89.5C614.443 89.5 615.16 89.25 615.56 88.75C615.96 88.2167 616.193 87.5 616.26 86.6C616.36 85.6667 616.41 84.6 616.41 83.4L616.46 71.3C616.46 70.6333 616.46 70.05 616.46 69.55C616.493 69.0167 616.56 68.4667 616.66 67.9C616.126 67.9333 615.593 67.9667 615.06 68C614.56 68 614.043 68.0167 613.51 68.05V66H623.71V67.5ZM630.107 91V89.5C631.141 89.5 631.857 89.25 632.257 88.75C632.657 88.2167 632.891 87.5 632.957 86.6C633.057 85.6667 633.107 84.6 633.107 83.4L633.157 71.3C633.157 70.6333 633.157 70.05 633.157 69.55C633.191 69.0167 633.257 68.4667 633.357 67.9C632.824 67.9333 632.291 67.9667 631.757 68C631.257 68 630.741 68.0167 630.207 68.05V66H640.407V67.5C639.407 67.5 638.691 67.7667 638.257 68.3C637.857 68.8 637.624 69.5167 637.557 70.45C637.491 71.35 637.457 72.4 637.457 73.6L637.407 76.9H639.357L645.457 70.5C646.024 69.9333 646.541 69.4333 647.007 69C647.474 68.5333 647.941 68.15 648.407 67.85L645.007 68V66H654.107V67.5C652.974 67.6 651.907 67.9667 650.907 68.6C649.941 69.2 649.041 69.8833 648.207 70.65C647.407 71.4167 646.707 72.1167 646.107 72.75L642.207 76.85C642.874 77.15 643.441 77.5333 643.907 78C644.374 78.4667 644.841 78.9833 645.307 79.55L648.857 84.1C649.024 84.3 649.307 84.6833 649.707 85.25C650.141 85.8167 650.641 86.4333 651.207 87.1C651.807 87.7667 652.424 88.3333 653.057 88.8C653.724 89.2667 654.341 89.5 654.907 89.5V91H650.357C649.424 91 648.541 90.5167 647.707 89.55C646.874 88.5833 645.991 87.5 645.057 86.3C644.191 85.1 643.407 84.0167 642.707 83.05C642.041 82.05 641.424 81.1833 640.857 80.45C640.324 79.7167 639.841 79.15 639.407 78.75L637.407 78.85L637.357 85.7C637.357 86.3667 637.341 86.9667 637.307 87.5C637.307 88 637.257 88.5333 637.157 89.1C637.691 89.0667 638.207 89.05 638.707 89.05C639.241 89.0167 639.774 88.9833 640.307 88.95V91H630.107Z" fill="#F5F5F5"/>
<path d="M354.34 156C353.57 157.333 351.645 157.333 350.876 156L342.215 141H363L354.34 156Z" fill="#181818" fill-opacity="0.9"/>
</g>
<defs>
<filter id="filter0_d_588_2100" x="0" y="0" width="704" height="166" filterUnits="userSpaceOnUse" color-interpolation-filters="sRGB">
<feFlood flood-opacity="0" result="BackgroundImageFix"/>
<feColorMatrix in="SourceAlpha" type="matrix" values="0 0 0 0 0 0 0 0 0 0 0 0 0 0 0 0 0 0 127 0" result="hardAlpha"/>
<feOffset dy="2"/>
<feGaussianBlur stdDeviation="3.5"/>
<feComposite in2="hardAlpha" operator="out"/>
<feColorMatrix type="matrix" values="0 0 0 0 0 0 0 0 0 0 0 0 0 0 0 0 0 0 0.12 0"/>
<feBlend mode="normal" in2="BackgroundImageFix" result="effect1_dropShadow_588_2100"/>
<feBlend mode="normal" in="SourceGraphic" in2="effect1_dropShadow_588_2100" result="shape"/>
</filter>
</defs>
</svg>
