<svg width="704" height="258" viewBox="0 0 704 258" fill="none" xmlns="http://www.w3.org/2000/svg">
<path d="M162.481 180.15C162.148 177.017 161.048 174.583 159.181 172.85C157.348 171.117 154.981 170.25 152.081 170.25C150.314 170.25 148.648 170.633 147.081 171.4C145.548 172.133 144.198 173.2 143.031 174.6C141.864 176 140.948 177.683 140.281 179.65C139.614 181.617 139.281 183.833 139.281 186.3C139.281 189.433 139.881 192.2 141.081 194.6C142.281 197 143.898 198.867 145.931 200.2C147.964 201.533 150.214 202.2 152.681 202.2C154.848 202.2 156.981 201.717 159.081 200.75C161.181 199.75 162.898 198.317 164.231 196.45L165.531 197.5C164.098 199.467 162.548 200.983 160.881 202.05C159.214 203.117 157.548 203.833 155.881 204.2C154.248 204.6 152.748 204.8 151.381 204.8C148.881 204.8 146.581 204.35 144.481 203.45C142.414 202.55 140.614 201.3 139.081 199.7C137.581 198.067 136.414 196.183 135.581 194.05C134.781 191.883 134.381 189.55 134.381 187.05C134.381 184.683 134.731 182.383 135.431 180.15C136.164 177.917 137.248 175.9 138.681 174.1C140.114 172.3 141.914 170.867 144.081 169.8C146.281 168.733 148.831 168.2 151.731 168.2C153.598 168.2 155.364 168.45 157.031 168.95C158.698 169.45 160.298 170.217 161.831 171.25L161.581 168.55H164.281V180.15H162.481ZM187.792 202.5C188.825 202.5 189.542 202.25 189.942 201.75C190.342 201.217 190.575 200.5 190.642 199.6C190.709 198.667 190.742 197.6 190.742 196.4V189.4C190.742 186.533 190.275 184.383 189.342 182.95C188.442 181.517 187.009 180.817 185.042 180.85C183.809 180.883 182.592 181.183 181.392 181.75C180.225 182.317 179.275 183.05 178.542 183.95V198.7C178.542 199.367 178.525 199.967 178.492 200.5C178.459 201 178.392 201.533 178.292 202.1C178.825 202.067 179.342 202.05 179.842 202.05C180.375 202.017 180.909 201.983 181.442 201.95V204H171.242V202.5C172.275 202.5 172.992 202.25 173.392 201.75C173.792 201.217 174.025 200.5 174.092 199.6C174.192 198.667 174.242 197.6 174.242 196.4V172.75C174.242 172.217 174.242 171.717 174.242 171.25C174.275 170.75 174.325 170.167 174.392 169.5C173.792 169.533 173.192 169.567 172.592 169.6C172.025 169.633 171.442 169.667 170.842 169.7V167.6C172.309 167.6 173.442 167.533 174.242 167.4C175.075 167.267 175.692 167.1 176.092 166.9C176.525 166.7 176.859 166.483 177.092 166.25H178.542V181.5C179.275 180.867 180.092 180.317 180.992 179.85C181.925 179.35 182.875 178.95 183.842 178.65C184.842 178.35 185.809 178.2 186.742 178.2C189.642 178.2 191.725 179.117 192.992 180.95C194.292 182.75 194.959 185.567 194.992 189.4L195.042 198.7C195.042 199.367 195.025 199.967 194.992 200.5C194.992 201 194.942 201.533 194.842 202.1C195.375 202.067 195.892 202.05 196.392 202.05C196.925 202.017 197.459 201.983 197.992 201.95V204H187.792V202.5ZM216.574 204.8C214.24 204.8 212.124 204.267 210.224 203.2C208.324 202.1 206.807 200.6 205.674 198.7C204.574 196.767 204.024 194.567 204.024 192.1C204.024 189.467 204.574 187.1 205.674 185C206.774 182.9 208.274 181.25 210.174 180.05C212.074 178.817 214.207 178.2 216.574 178.2C218.907 178.2 221.024 178.767 222.924 179.9C224.824 181 226.34 182.5 227.474 184.4C228.607 186.3 229.174 188.467 229.174 190.9C229.174 193.467 228.607 195.817 227.474 197.95C226.374 200.05 224.874 201.717 222.974 202.95C221.074 204.183 218.94 204.8 216.574 204.8ZM216.974 202.8C218.74 202.8 220.14 202.3 221.174 201.3C222.207 200.3 222.94 199 223.374 197.4C223.84 195.8 224.074 194.117 224.074 192.35C224.074 190.85 223.924 189.383 223.624 187.95C223.357 186.483 222.924 185.167 222.324 184C221.724 182.8 220.94 181.85 219.974 181.15C219.04 180.45 217.907 180.1 216.574 180.1C214.84 180.1 213.424 180.6 212.324 181.6C211.224 182.6 210.407 183.9 209.874 185.5C209.374 187.1 209.124 188.817 209.124 190.65C209.124 192.717 209.407 194.683 209.974 196.55C210.54 198.383 211.407 199.883 212.574 201.05C213.74 202.217 215.207 202.8 216.974 202.8ZM248.322 204.8C245.988 204.8 243.872 204.267 241.972 203.2C240.072 202.1 238.555 200.6 237.422 198.7C236.322 196.767 235.772 194.567 235.772 192.1C235.772 189.467 236.322 187.1 237.422 185C238.522 182.9 240.022 181.25 241.922 180.05C243.822 178.817 245.955 178.2 248.322 178.2C250.655 178.2 252.772 178.767 254.672 179.9C256.572 181 258.088 182.5 259.222 184.4C260.355 186.3 260.922 188.467 260.922 190.9C260.922 193.467 260.355 195.817 259.222 197.95C258.122 200.05 256.622 201.717 254.722 202.95C252.822 204.183 250.688 204.8 248.322 204.8ZM248.722 202.8C250.488 202.8 251.888 202.3 252.922 201.3C253.955 200.3 254.688 199 255.122 197.4C255.588 195.8 255.822 194.117 255.822 192.35C255.822 190.85 255.672 189.383 255.372 187.95C255.105 186.483 254.672 185.167 254.072 184C253.472 182.8 252.688 181.85 251.722 181.15C250.788 180.45 249.655 180.1 248.322 180.1C246.588 180.1 245.172 180.6 244.072 181.6C242.972 182.6 242.155 183.9 241.622 185.5C241.122 187.1 240.872 188.817 240.872 190.65C240.872 192.717 241.155 194.683 241.722 196.55C242.288 198.383 243.155 199.883 244.322 201.05C245.488 202.217 246.955 202.8 248.722 202.8ZM277.92 204.8C276.253 204.8 274.77 204.567 273.47 204.1C272.17 203.667 271.103 203.167 270.27 202.6L270.47 204.35H268.37L268.07 195.75H269.62C269.686 197.117 270.07 198.35 270.77 199.45C271.47 200.517 272.37 201.35 273.47 201.95C274.57 202.55 275.753 202.85 277.02 202.85C277.886 202.85 278.736 202.717 279.57 202.45C280.403 202.15 281.103 201.717 281.67 201.15C282.236 200.55 282.52 199.8 282.52 198.9C282.52 197.967 282.236 197.2 281.67 196.6C281.136 195.967 280.42 195.417 279.52 194.95C278.62 194.483 277.653 194.05 276.62 193.65C275.62 193.25 274.62 192.833 273.62 192.4C272.62 191.967 271.686 191.45 270.82 190.85C269.986 190.25 269.32 189.517 268.82 188.65C268.32 187.783 268.07 186.717 268.07 185.45C268.07 184.75 268.203 183.983 268.47 183.15C268.736 182.317 269.186 181.533 269.82 180.8C270.453 180.033 271.32 179.417 272.42 178.95C273.52 178.45 274.92 178.2 276.62 178.2C277.52 178.2 278.52 178.35 279.62 178.65C280.72 178.95 281.786 179.517 282.82 180.35L282.72 178.45H284.82V187.2H283.22C283.153 186.033 282.886 184.917 282.42 183.85C281.953 182.75 281.27 181.85 280.37 181.15C279.47 180.417 278.303 180.05 276.87 180.05C275.336 180.05 274.136 180.433 273.27 181.2C272.403 181.967 271.97 182.85 271.97 183.85C271.97 184.883 272.286 185.75 272.92 186.45C273.586 187.117 274.436 187.7 275.47 188.2C276.503 188.7 277.603 189.183 278.77 189.65C280.036 190.183 281.27 190.767 282.47 191.4C283.67 192.033 284.653 192.833 285.42 193.8C286.186 194.733 286.57 195.95 286.57 197.45C286.57 199.117 286.136 200.5 285.27 201.6C284.436 202.7 283.353 203.5 282.02 204C280.72 204.533 279.353 204.8 277.92 204.8ZM305.414 204.8C303.114 204.8 301.031 204.267 299.164 203.2C297.331 202.1 295.881 200.567 294.814 198.6C293.748 196.6 293.214 194.25 293.214 191.55C293.214 189.217 293.731 187.033 294.764 185C295.831 182.967 297.314 181.333 299.214 180.1C301.114 178.833 303.314 178.2 305.814 178.2C307.214 178.2 308.514 178.433 309.714 178.9C310.948 179.333 312.031 180.017 312.964 180.95C313.898 181.85 314.631 183 315.164 184.4C315.698 185.767 315.964 187.383 315.964 189.25L298.364 189.55C298.364 192.083 298.631 194.317 299.164 196.25C299.731 198.15 300.631 199.633 301.864 200.7C303.098 201.733 304.681 202.25 306.614 202.25C307.648 202.25 308.698 202.067 309.764 201.7C310.864 201.333 311.881 200.833 312.814 200.2C313.748 199.567 314.498 198.867 315.064 198.1L316.264 199.1C315.364 200.5 314.281 201.617 313.014 202.45C311.748 203.283 310.448 203.883 309.114 204.25C307.781 204.617 306.548 204.8 305.414 204.8ZM298.514 187.45H311.264C311.264 186.25 311.081 185.1 310.714 184C310.381 182.867 309.814 181.95 309.014 181.25C308.214 180.517 307.164 180.15 305.864 180.15C303.931 180.15 302.314 180.733 301.014 181.9C299.748 183.033 298.914 184.883 298.514 187.45ZM353.749 204C353.649 203.433 353.582 202.933 353.549 202.5C353.515 202.067 353.465 201.617 353.399 201.15C352.265 202.283 351.032 203.183 349.699 203.85C348.399 204.483 347.015 204.8 345.549 204.8C343.015 204.8 341.132 204.233 339.899 203.1C338.665 201.933 338.049 200.517 338.049 198.85C338.049 197.317 338.515 196 339.449 194.9C340.415 193.767 341.649 192.85 343.149 192.15C344.682 191.417 346.332 190.883 348.099 190.55C349.899 190.183 351.632 190.017 353.299 190.05V186.95C353.299 185.783 353.199 184.683 352.999 183.65C352.799 182.617 352.365 181.767 351.699 181.1C351.032 180.433 349.965 180.083 348.499 180.05C347.532 180.017 346.532 180.2 345.499 180.6C344.499 181 343.765 181.683 343.299 182.65C343.565 182.917 343.732 183.233 343.799 183.6C343.899 183.933 343.949 184.25 343.949 184.55C343.949 184.95 343.782 185.417 343.449 185.95C343.115 186.45 342.532 186.683 341.699 186.65C340.999 186.65 340.465 186.417 340.099 185.95C339.732 185.45 339.549 184.867 339.549 184.2C339.549 183.067 339.965 182.05 340.799 181.15C341.665 180.25 342.849 179.533 344.349 179C345.849 178.467 347.549 178.2 349.449 178.2C352.249 178.2 354.315 178.95 355.649 180.45C356.982 181.917 357.632 184.25 357.599 187.45C357.599 188.683 357.599 189.933 357.599 191.2C357.599 192.433 357.582 193.683 357.549 194.95C357.549 196.183 357.549 197.433 357.549 198.7C357.549 199.233 357.532 199.767 357.499 200.3C357.465 200.833 357.415 201.433 357.349 202.1C357.949 202.067 358.532 202.033 359.099 202C359.699 201.967 360.299 201.933 360.899 201.9V204H353.749ZM353.299 191.75C352.165 191.783 350.965 191.933 349.699 192.2C348.465 192.433 347.315 192.8 346.249 193.3C345.215 193.8 344.365 194.467 343.699 195.3C343.065 196.1 342.765 197.083 342.799 198.25C342.865 199.483 343.265 200.417 343.999 201.05C344.765 201.65 345.665 201.95 346.699 201.95C348.065 201.95 349.249 201.7 350.249 201.2C351.282 200.667 352.299 199.933 353.299 199C353.265 198.633 353.249 198.233 353.249 197.8C353.249 197.367 353.249 196.917 353.249 196.45C353.249 196.283 353.249 195.75 353.249 194.85C353.282 193.95 353.299 192.917 353.299 191.75ZM382.015 216.75V215.25C383.048 215.25 383.765 214.983 384.165 214.45C384.565 213.95 384.798 213.233 384.865 212.3C384.931 211.4 384.965 210.35 384.965 209.15L385.065 185C385.065 184.467 385.065 183.933 385.065 183.4C385.098 182.867 385.165 182.317 385.265 181.75C384.665 181.783 384.065 181.817 383.465 181.85C382.898 181.883 382.315 181.917 381.715 181.95V179.85C383.181 179.85 384.281 179.783 385.015 179.65C385.781 179.517 386.331 179.35 386.665 179.15C387.031 178.95 387.331 178.733 387.565 178.5H389.065C389.098 178.833 389.131 179.233 389.165 179.7C389.198 180.133 389.231 180.633 389.265 181.2C390.265 180.3 391.448 179.583 392.815 179.05C394.215 178.483 395.615 178.2 397.015 178.2C398.948 178.2 400.748 178.7 402.415 179.7C404.081 180.7 405.431 182.133 406.465 184C407.498 185.833 408.015 188.033 408.015 190.6C408.015 193.433 407.415 195.917 406.215 198.05C405.048 200.183 403.498 201.85 401.565 203.05C399.631 204.217 397.531 204.8 395.265 204.8C394.098 204.8 393.015 204.65 392.015 204.35C391.048 204.083 390.131 203.683 389.265 203.15V211.45C389.265 212.117 389.248 212.7 389.215 213.2C389.215 213.733 389.165 214.283 389.065 214.85C389.598 214.817 390.115 214.783 390.615 214.75C391.148 214.75 391.681 214.733 392.215 214.7V216.75H382.015ZM395.165 202.8C396.765 202.8 398.131 202.317 399.265 201.35C400.431 200.35 401.315 199 401.915 197.3C402.548 195.567 402.865 193.6 402.865 191.4C402.865 189.6 402.598 187.883 402.065 186.25C401.565 184.583 400.748 183.233 399.615 182.2C398.515 181.167 397.048 180.65 395.215 180.65C394.081 180.65 392.981 180.933 391.915 181.5C390.881 182.033 390.015 182.683 389.315 183.45C389.315 183.583 389.315 183.783 389.315 184.05C389.348 184.283 389.365 184.717 389.365 185.35C389.365 185.95 389.365 186.867 389.365 188.1C389.365 189.3 389.348 190.933 389.315 193C389.315 195.067 389.315 197.683 389.315 200.85C390.148 201.483 391.048 201.967 392.015 202.3C393.015 202.633 394.065 202.8 395.165 202.8ZM429.999 204C429.899 203.433 429.832 202.933 429.799 202.5C429.765 202.067 429.715 201.617 429.649 201.15C428.515 202.283 427.282 203.183 425.949 203.85C424.649 204.483 423.265 204.8 421.799 204.8C419.265 204.8 417.382 204.233 416.149 203.1C414.915 201.933 414.299 200.517 414.299 198.85C414.299 197.317 414.765 196 415.699 194.9C416.665 193.767 417.899 192.85 419.399 192.15C420.932 191.417 422.582 190.883 424.349 190.55C426.149 190.183 427.882 190.017 429.549 190.05V186.95C429.549 185.783 429.449 184.683 429.249 183.65C429.049 182.617 428.615 181.767 427.949 181.1C427.282 180.433 426.215 180.083 424.749 180.05C423.782 180.017 422.782 180.2 421.749 180.6C420.749 181 420.015 181.683 419.549 182.65C419.815 182.917 419.982 183.233 420.049 183.6C420.149 183.933 420.199 184.25 420.199 184.55C420.199 184.95 420.032 185.417 419.699 185.95C419.365 186.45 418.782 186.683 417.949 186.65C417.249 186.65 416.715 186.417 416.349 185.95C415.982 185.45 415.799 184.867 415.799 184.2C415.799 183.067 416.215 182.05 417.049 181.15C417.915 180.25 419.099 179.533 420.599 179C422.099 178.467 423.799 178.2 425.699 178.2C428.499 178.2 430.565 178.95 431.899 180.45C433.232 181.917 433.882 184.25 433.849 187.45C433.849 188.683 433.849 189.933 433.849 191.2C433.849 192.433 433.832 193.683 433.799 194.95C433.799 196.183 433.799 197.433 433.799 198.7C433.799 199.233 433.782 199.767 433.749 200.3C433.715 200.833 433.665 201.433 433.599 202.1C434.199 202.067 434.782 202.033 435.349 202C435.949 201.967 436.549 201.933 437.149 201.9V204H429.999ZM429.549 191.75C428.415 191.783 427.215 191.933 425.949 192.2C424.715 192.433 423.565 192.8 422.499 193.3C421.465 193.8 420.615 194.467 419.949 195.3C419.315 196.1 419.015 197.083 419.049 198.25C419.115 199.483 419.515 200.417 420.249 201.05C421.015 201.65 421.915 201.95 422.949 201.95C424.315 201.95 425.499 201.7 426.499 201.2C427.532 200.667 428.549 199.933 429.549 199C429.515 198.633 429.499 198.233 429.499 197.8C429.499 197.367 429.499 196.917 429.499 196.45C429.499 196.283 429.499 195.75 429.499 194.85C429.532 193.95 429.549 192.917 429.549 191.75ZM443.08 202.5C444.113 202.5 444.83 202.25 445.23 201.75C445.63 201.217 445.863 200.5 445.93 199.6C445.997 198.667 446.03 197.6 446.03 196.4V185C446.03 184.467 446.03 183.933 446.03 183.4C446.063 182.867 446.13 182.317 446.23 181.75C445.63 181.783 445.03 181.817 444.43 181.85C443.863 181.85 443.28 181.867 442.68 181.9V179.85H444.23C445.663 179.85 446.647 179.717 447.18 179.45C447.747 179.15 448.213 178.833 448.58 178.5H450.03C450.097 179.033 450.147 179.7 450.18 180.5C450.213 181.267 450.247 182.25 450.28 183.45C450.78 182.617 451.463 181.8 452.33 181C453.197 180.2 454.163 179.533 455.23 179C456.33 178.467 457.48 178.2 458.68 178.2C459.613 178.2 460.43 178.45 461.13 178.95C461.83 179.45 462.18 180.25 462.18 181.35C462.18 181.617 462.097 181.95 461.93 182.35C461.763 182.717 461.497 183.05 461.13 183.35C460.763 183.617 460.28 183.75 459.68 183.75C458.947 183.717 458.363 183.433 457.93 182.9C457.497 182.333 457.33 181.683 457.43 180.95C456.597 180.917 455.73 181.133 454.83 181.6C453.963 182.067 453.147 182.717 452.38 183.55C451.613 184.35 450.93 185.3 450.33 186.4L450.38 198.7C450.38 199.367 450.363 199.967 450.33 200.5C450.33 201 450.28 201.533 450.18 202.1C450.713 202.067 451.23 202.05 451.73 202.05C452.263 202.017 452.797 201.983 453.33 201.95V204H443.08V202.5ZM482.069 204C481.969 203.433 481.902 202.933 481.869 202.5C481.836 202.067 481.786 201.617 481.719 201.15C480.586 202.283 479.352 203.183 478.019 203.85C476.719 204.483 475.336 204.8 473.869 204.8C471.336 204.8 469.452 204.233 468.219 203.1C466.986 201.933 466.369 200.517 466.369 198.85C466.369 197.317 466.836 196 467.769 194.9C468.736 193.767 469.969 192.85 471.469 192.15C473.002 191.417 474.652 190.883 476.419 190.55C478.219 190.183 479.952 190.017 481.619 190.05V186.95C481.619 185.783 481.519 184.683 481.319 183.65C481.119 182.617 480.686 181.767 480.019 181.1C479.352 180.433 478.286 180.083 476.819 180.05C475.852 180.017 474.852 180.2 473.819 180.6C472.819 181 472.086 181.683 471.619 182.65C471.886 182.917 472.052 183.233 472.119 183.6C472.219 183.933 472.269 184.25 472.269 184.55C472.269 184.95 472.102 185.417 471.769 185.95C471.436 186.45 470.852 186.683 470.019 186.65C469.319 186.65 468.786 186.417 468.419 185.95C468.052 185.45 467.869 184.867 467.869 184.2C467.869 183.067 468.286 182.05 469.119 181.15C469.986 180.25 471.169 179.533 472.669 179C474.169 178.467 475.869 178.2 477.769 178.2C480.569 178.2 482.636 178.95 483.969 180.45C485.302 181.917 485.952 184.25 485.919 187.45C485.919 188.683 485.919 189.933 485.919 191.2C485.919 192.433 485.902 193.683 485.869 194.95C485.869 196.183 485.869 197.433 485.869 198.7C485.869 199.233 485.852 199.767 485.819 200.3C485.786 200.833 485.736 201.433 485.669 202.1C486.269 202.067 486.852 202.033 487.419 202C488.019 201.967 488.619 201.933 489.219 201.9V204H482.069ZM481.619 191.75C480.486 191.783 479.286 191.933 478.019 192.2C476.786 192.433 475.636 192.8 474.569 193.3C473.536 193.8 472.686 194.467 472.019 195.3C471.386 196.1 471.086 197.083 471.119 198.25C471.186 199.483 471.586 200.417 472.319 201.05C473.086 201.65 473.986 201.95 475.019 201.95C476.386 201.95 477.569 201.7 478.569 201.2C479.602 200.667 480.619 199.933 481.619 199C481.586 198.633 481.569 198.233 481.569 197.8C481.569 197.367 481.569 196.917 481.569 196.45C481.569 196.283 481.569 195.75 481.569 194.85C481.602 193.95 481.619 192.917 481.619 191.75ZM494.65 202.5C495.684 202.5 496.4 202.25 496.8 201.75C497.2 201.217 497.434 200.5 497.5 199.6C497.567 198.667 497.6 197.6 497.6 196.4V172.75C497.6 172.217 497.6 171.717 497.6 171.25C497.634 170.75 497.684 170.167 497.75 169.5C497.15 169.533 496.55 169.567 495.95 169.6C495.384 169.633 494.8 169.667 494.2 169.7V167.6C495.667 167.6 496.8 167.533 497.6 167.4C498.434 167.267 499.05 167.1 499.45 166.9C499.884 166.7 500.217 166.483 500.45 166.25H501.9L501.95 198.7C501.95 199.367 501.934 199.967 501.9 200.5C501.867 201 501.8 201.533 501.7 202.1C502.234 202.067 502.75 202.05 503.25 202.05C503.784 202.017 504.317 201.983 504.85 201.95V204H494.65V202.5ZM510.773 202.5C511.807 202.5 512.523 202.25 512.923 201.75C513.323 201.217 513.557 200.5 513.623 199.6C513.69 198.667 513.723 197.6 513.723 196.4V172.75C513.723 172.217 513.723 171.717 513.723 171.25C513.757 170.75 513.807 170.167 513.873 169.5C513.273 169.533 512.673 169.567 512.073 169.6C511.507 169.633 510.923 169.667 510.323 169.7V167.6C511.79 167.6 512.923 167.533 513.723 167.4C514.557 167.267 515.173 167.1 515.573 166.9C516.007 166.7 516.34 166.483 516.573 166.25H518.023L518.073 198.7C518.073 199.367 518.057 199.967 518.023 200.5C517.99 201 517.923 201.533 517.823 202.1C518.357 202.067 518.873 202.05 519.373 202.05C519.907 202.017 520.44 201.983 520.973 201.95V204H510.773V202.5ZM539.496 204.8C537.196 204.8 535.113 204.267 533.246 203.2C531.413 202.1 529.963 200.567 528.896 198.6C527.83 196.6 527.296 194.25 527.296 191.55C527.296 189.217 527.813 187.033 528.846 185C529.913 182.967 531.396 181.333 533.296 180.1C535.196 178.833 537.396 178.2 539.896 178.2C541.296 178.2 542.596 178.433 543.796 178.9C545.03 179.333 546.113 180.017 547.046 180.95C547.98 181.85 548.713 183 549.246 184.4C549.78 185.767 550.046 187.383 550.046 189.25L532.446 189.55C532.446 192.083 532.713 194.317 533.246 196.25C533.813 198.15 534.713 199.633 535.946 200.7C537.18 201.733 538.763 202.25 540.696 202.25C541.73 202.25 542.78 202.067 543.846 201.7C544.946 201.333 545.963 200.833 546.896 200.2C547.83 199.567 548.58 198.867 549.146 198.1L550.346 199.1C549.446 200.5 548.363 201.617 547.096 202.45C545.83 203.283 544.53 203.883 543.196 204.25C541.863 204.617 540.63 204.8 539.496 204.8ZM532.596 187.45H545.346C545.346 186.25 545.163 185.1 544.796 184C544.463 182.867 543.896 181.95 543.096 181.25C542.296 180.517 541.246 180.15 539.946 180.15C538.013 180.15 536.396 180.733 535.096 181.9C533.83 183.033 532.996 184.883 532.596 187.45ZM556.496 202.5C557.529 202.5 558.246 202.25 558.646 201.75C559.046 201.217 559.279 200.5 559.346 199.6C559.413 198.667 559.446 197.6 559.446 196.4V172.75C559.446 172.217 559.446 171.717 559.446 171.25C559.479 170.75 559.529 170.167 559.596 169.5C558.996 169.533 558.396 169.567 557.796 169.6C557.229 169.633 556.646 169.667 556.046 169.7V167.6C557.513 167.6 558.646 167.533 559.446 167.4C560.279 167.267 560.896 167.1 561.296 166.9C561.729 166.7 562.063 166.483 562.296 166.25H563.746L563.796 198.7C563.796 199.367 563.779 199.967 563.746 200.5C563.713 201 563.646 201.533 563.546 202.1C564.079 202.067 564.596 202.05 565.096 202.05C565.629 202.017 566.163 201.983 566.696 201.95V204H556.496V202.5ZM224.599 249.8C223.832 249.8 223.049 249.683 222.249 249.45C221.449 249.25 220.699 248.833 219.999 248.2C219.332 247.567 218.799 246.65 218.399 245.45C217.999 244.217 217.799 242.6 217.799 240.6L217.899 226.1L214.049 226.15V224C214.916 223.967 215.799 223.65 216.699 223.05C217.599 222.417 218.399 221.567 219.099 220.5C219.832 219.433 220.332 218.267 220.599 217H222.299V224H230.699V225.95L222.299 226.05L222.199 239.95C222.199 241.45 222.316 242.733 222.549 243.8C222.816 244.833 223.232 245.617 223.799 246.15C224.366 246.683 225.099 246.95 225.999 246.95C226.932 246.95 227.799 246.683 228.599 246.15C229.432 245.617 230.166 244.883 230.799 243.95L232.149 245.05C231.416 246.15 230.682 247.017 229.949 247.65C229.249 248.283 228.566 248.75 227.899 249.05C227.232 249.383 226.616 249.583 226.049 249.65C225.482 249.75 224.999 249.8 224.599 249.8ZM237.035 247.5C238.068 247.5 238.785 247.25 239.185 246.75C239.585 246.217 239.818 245.5 239.885 244.6C239.952 243.667 239.985 242.6 239.985 241.4V230C239.985 229.467 239.985 228.933 239.985 228.4C240.018 227.867 240.085 227.317 240.185 226.75C239.585 226.783 238.985 226.817 238.385 226.85C237.818 226.85 237.235 226.867 236.635 226.9V224.85H238.185C239.618 224.85 240.602 224.717 241.135 224.45C241.702 224.15 242.168 223.833 242.535 223.5H243.985C244.052 224.033 244.102 224.7 244.135 225.5C244.168 226.267 244.202 227.25 244.235 228.45C244.735 227.617 245.418 226.8 246.285 226C247.152 225.2 248.118 224.533 249.185 224C250.285 223.467 251.435 223.2 252.635 223.2C253.568 223.2 254.385 223.45 255.085 223.95C255.785 224.45 256.135 225.25 256.135 226.35C256.135 226.617 256.052 226.95 255.885 227.35C255.718 227.717 255.452 228.05 255.085 228.35C254.718 228.617 254.235 228.75 253.635 228.75C252.902 228.717 252.318 228.433 251.885 227.9C251.452 227.333 251.285 226.683 251.385 225.95C250.552 225.917 249.685 226.133 248.785 226.6C247.918 227.067 247.102 227.717 246.335 228.55C245.568 229.35 244.885 230.3 244.285 231.4L244.335 243.7C244.335 244.367 244.318 244.967 244.285 245.5C244.285 246 244.235 246.533 244.135 247.1C244.668 247.067 245.185 247.05 245.685 247.05C246.218 247.017 246.752 246.983 247.285 246.95V249H237.035V247.5ZM276.024 249C275.924 248.433 275.857 247.933 275.824 247.5C275.791 247.067 275.741 246.617 275.674 246.15C274.541 247.283 273.307 248.183 271.974 248.85C270.674 249.483 269.291 249.8 267.824 249.8C265.291 249.8 263.407 249.233 262.174 248.1C260.941 246.933 260.324 245.517 260.324 243.85C260.324 242.317 260.791 241 261.724 239.9C262.691 238.767 263.924 237.85 265.424 237.15C266.957 236.417 268.607 235.883 270.374 235.55C272.174 235.183 273.907 235.017 275.574 235.05V231.95C275.574 230.783 275.474 229.683 275.274 228.65C275.074 227.617 274.641 226.767 273.974 226.1C273.307 225.433 272.241 225.083 270.774 225.05C269.807 225.017 268.807 225.2 267.774 225.6C266.774 226 266.041 226.683 265.574 227.65C265.841 227.917 266.007 228.233 266.074 228.6C266.174 228.933 266.224 229.25 266.224 229.55C266.224 229.95 266.057 230.417 265.724 230.95C265.391 231.45 264.807 231.683 263.974 231.65C263.274 231.65 262.741 231.417 262.374 230.95C262.007 230.45 261.824 229.867 261.824 229.2C261.824 228.067 262.241 227.05 263.074 226.15C263.941 225.25 265.124 224.533 266.624 224C268.124 223.467 269.824 223.2 271.724 223.2C274.524 223.2 276.591 223.95 277.924 225.45C279.257 226.917 279.907 229.25 279.874 232.45C279.874 233.683 279.874 234.933 279.874 236.2C279.874 237.433 279.857 238.683 279.824 239.95C279.824 241.183 279.824 242.433 279.824 243.7C279.824 244.233 279.807 244.767 279.774 245.3C279.741 245.833 279.691 246.433 279.624 247.1C280.224 247.067 280.807 247.033 281.374 247C281.974 246.967 282.574 246.933 283.174 246.9V249H276.024ZM275.574 236.75C274.441 236.783 273.241 236.933 271.974 237.2C270.741 237.433 269.591 237.8 268.524 238.3C267.491 238.8 266.641 239.467 265.974 240.3C265.341 241.1 265.041 242.083 265.074 243.25C265.141 244.483 265.541 245.417 266.274 246.05C267.041 246.65 267.941 246.95 268.974 246.95C270.341 246.95 271.524 246.7 272.524 246.2C273.557 245.667 274.574 244.933 275.574 244C275.541 243.633 275.524 243.233 275.524 242.8C275.524 242.367 275.524 241.917 275.524 241.45C275.524 241.283 275.524 240.75 275.524 239.85C275.557 238.95 275.574 237.917 275.574 236.75ZM289.105 249V247.5C290.139 247.5 290.855 247.25 291.255 246.75C291.655 246.217 291.889 245.5 291.955 244.6C292.022 243.667 292.055 242.6 292.055 241.4L292.105 230C292.105 229.467 292.105 228.933 292.105 228.4C292.139 227.867 292.205 227.317 292.305 226.75C291.705 226.783 291.105 226.817 290.505 226.85C289.939 226.883 289.355 226.917 288.755 226.95V224.85C290.222 224.85 291.322 224.783 292.055 224.65C292.822 224.517 293.389 224.35 293.755 224.15C294.122 223.95 294.422 223.733 294.655 223.5H296.105C296.139 223.733 296.155 224 296.155 224.3C296.189 224.6 296.222 224.933 296.255 225.3C296.289 225.667 296.305 226.083 296.305 226.55C297.039 225.917 297.839 225.35 298.705 224.85C299.605 224.35 300.539 223.95 301.505 223.65C302.505 223.35 303.489 223.2 304.455 223.2C307.355 223.2 309.472 224.117 310.805 225.95C312.139 227.75 312.805 230.567 312.805 234.4V243.7C312.805 244.367 312.789 244.967 312.755 245.5C312.755 246 312.705 246.533 312.605 247.1C313.139 247.067 313.655 247.05 314.155 247.05C314.689 247.017 315.222 246.983 315.755 246.95V249H305.555V247.5C306.589 247.5 307.305 247.25 307.705 246.75C308.105 246.217 308.339 245.5 308.405 244.6C308.472 243.667 308.505 242.6 308.505 241.4V234.4C308.472 231.533 307.989 229.367 307.055 227.9C306.155 226.433 304.722 225.717 302.755 225.75C301.555 225.783 300.372 226.1 299.205 226.7C298.072 227.3 297.122 228.067 296.355 229C296.389 229.267 296.405 229.567 296.405 229.9C296.405 230.233 296.405 230.583 296.405 230.95L296.355 243.7C296.355 244.367 296.339 244.967 296.305 245.5C296.305 246 296.255 246.533 296.155 247.1C296.689 247.067 297.205 247.05 297.705 247.05C298.239 247.017 298.772 246.983 299.305 246.95V249H289.105ZM332.226 249.8C330.56 249.8 329.076 249.567 327.776 249.1C326.476 248.667 325.41 248.167 324.576 247.6L324.776 249.35H322.676L322.376 240.75H323.926C323.993 242.117 324.376 243.35 325.076 244.45C325.776 245.517 326.676 246.35 327.776 246.95C328.876 247.55 330.06 247.85 331.326 247.85C332.193 247.85 333.043 247.717 333.876 247.45C334.71 247.15 335.41 246.717 335.976 246.15C336.543 245.55 336.826 244.8 336.826 243.9C336.826 242.967 336.543 242.2 335.976 241.6C335.443 240.967 334.726 240.417 333.826 239.95C332.926 239.483 331.96 239.05 330.926 238.65C329.926 238.25 328.926 237.833 327.926 237.4C326.926 236.967 325.993 236.45 325.126 235.85C324.293 235.25 323.626 234.517 323.126 233.65C322.626 232.783 322.376 231.717 322.376 230.45C322.376 229.75 322.51 228.983 322.776 228.15C323.043 227.317 323.493 226.533 324.126 225.8C324.76 225.033 325.626 224.417 326.726 223.95C327.826 223.45 329.226 223.2 330.926 223.2C331.826 223.2 332.826 223.35 333.926 223.65C335.026 223.95 336.093 224.517 337.126 225.35L337.026 223.45H339.126V232.2H337.526C337.46 231.033 337.193 229.917 336.726 228.85C336.26 227.75 335.576 226.85 334.676 226.15C333.776 225.417 332.61 225.05 331.176 225.05C329.643 225.05 328.443 225.433 327.576 226.2C326.71 226.967 326.276 227.85 326.276 228.85C326.276 229.883 326.593 230.75 327.226 231.45C327.893 232.117 328.743 232.7 329.776 233.2C330.81 233.7 331.91 234.183 333.076 234.65C334.343 235.183 335.576 235.767 336.776 236.4C337.976 237.033 338.96 237.833 339.726 238.8C340.493 239.733 340.876 240.95 340.876 242.45C340.876 244.117 340.443 245.5 339.576 246.6C338.743 247.7 337.66 248.5 336.326 249C335.026 249.533 333.66 249.8 332.226 249.8ZM347.121 247.5C348.154 247.5 348.871 247.25 349.271 246.75C349.671 246.217 349.904 245.5 349.971 244.6C350.038 243.667 350.071 242.6 350.071 241.4V217.75C350.071 217.217 350.071 216.717 350.071 216.25C350.104 215.75 350.154 215.167 350.221 214.5C349.621 214.533 349.021 214.567 348.421 214.6C347.854 214.633 347.271 214.667 346.671 214.7V212.6C348.138 212.6 349.271 212.533 350.071 212.4C350.904 212.267 351.521 212.1 351.921 211.9C352.354 211.7 352.688 211.483 352.921 211.25H354.371L354.421 243.7C354.421 244.367 354.404 244.967 354.371 245.5C354.338 246 354.271 246.533 354.171 247.1C354.704 247.067 355.221 247.05 355.721 247.05C356.254 247.017 356.788 246.983 357.321 246.95V249H347.121V247.5ZM378.944 249C378.844 248.433 378.777 247.933 378.744 247.5C378.711 247.067 378.661 246.617 378.594 246.15C377.461 247.283 376.227 248.183 374.894 248.85C373.594 249.483 372.211 249.8 370.744 249.8C368.211 249.8 366.327 249.233 365.094 248.1C363.861 246.933 363.244 245.517 363.244 243.85C363.244 242.317 363.711 241 364.644 239.9C365.611 238.767 366.844 237.85 368.344 237.15C369.877 236.417 371.527 235.883 373.294 235.55C375.094 235.183 376.827 235.017 378.494 235.05V231.95C378.494 230.783 378.394 229.683 378.194 228.65C377.994 227.617 377.561 226.767 376.894 226.1C376.227 225.433 375.161 225.083 373.694 225.05C372.727 225.017 371.727 225.2 370.694 225.6C369.694 226 368.961 226.683 368.494 227.65C368.761 227.917 368.927 228.233 368.994 228.6C369.094 228.933 369.144 229.25 369.144 229.55C369.144 229.95 368.977 230.417 368.644 230.95C368.311 231.45 367.727 231.683 366.894 231.65C366.194 231.65 365.661 231.417 365.294 230.95C364.927 230.45 364.744 229.867 364.744 229.2C364.744 228.067 365.161 227.05 365.994 226.15C366.861 225.25 368.044 224.533 369.544 224C371.044 223.467 372.744 223.2 374.644 223.2C377.444 223.2 379.511 223.95 380.844 225.45C382.177 226.917 382.827 229.25 382.794 232.45C382.794 233.683 382.794 234.933 382.794 236.2C382.794 237.433 382.777 238.683 382.744 239.95C382.744 241.183 382.744 242.433 382.744 243.7C382.744 244.233 382.727 244.767 382.694 245.3C382.661 245.833 382.611 246.433 382.544 247.1C383.144 247.067 383.727 247.033 384.294 247C384.894 246.967 385.494 246.933 386.094 246.9V249H378.944ZM378.494 236.75C377.361 236.783 376.161 236.933 374.894 237.2C373.661 237.433 372.511 237.8 371.444 238.3C370.411 238.8 369.561 239.467 368.894 240.3C368.261 241.1 367.961 242.083 367.994 243.25C368.061 244.483 368.461 245.417 369.194 246.05C369.961 246.65 370.861 246.95 371.894 246.95C373.261 246.95 374.444 246.7 375.444 246.2C376.477 245.667 377.494 244.933 378.494 244C378.461 243.633 378.444 243.233 378.444 242.8C378.444 242.367 378.444 241.917 378.444 241.45C378.444 241.283 378.444 240.75 378.444 239.85C378.477 238.95 378.494 237.917 378.494 236.75ZM401.083 249.8C400.317 249.8 399.533 249.683 398.733 249.45C397.933 249.25 397.183 248.833 396.483 248.2C395.817 247.567 395.283 246.65 394.883 245.45C394.483 244.217 394.283 242.6 394.283 240.6L394.383 226.1L390.533 226.15V224C391.4 223.967 392.283 223.65 393.183 223.05C394.083 222.417 394.883 221.567 395.583 220.5C396.317 219.433 396.817 218.267 397.083 217H398.783V224H407.183V225.95L398.783 226.05L398.683 239.95C398.683 241.45 398.8 242.733 399.033 243.8C399.3 244.833 399.717 245.617 400.283 246.15C400.85 246.683 401.583 246.95 402.483 246.95C403.417 246.95 404.283 246.683 405.083 246.15C405.917 245.617 406.65 244.883 407.283 243.95L408.633 245.05C407.9 246.15 407.167 247.017 406.433 247.65C405.733 248.283 405.05 248.75 404.383 249.05C403.717 249.383 403.1 249.583 402.533 249.65C401.967 249.75 401.483 249.8 401.083 249.8ZM413.519 247.5C414.553 247.5 415.269 247.25 415.669 246.75C416.069 246.217 416.303 245.5 416.369 244.6C416.436 243.667 416.469 242.6 416.469 241.4V230C416.469 229.467 416.486 228.967 416.519 228.5C416.553 228 416.603 227.417 416.669 226.75C416.069 226.783 415.469 226.817 414.869 226.85C414.303 226.883 413.719 226.917 413.119 226.95V224.85C414.586 224.85 415.719 224.783 416.519 224.65C417.319 224.517 417.919 224.35 418.319 224.15C418.753 223.95 419.086 223.733 419.319 223.5H420.769V243.7C420.769 244.367 420.753 244.967 420.719 245.5C420.719 246 420.669 246.533 420.569 247.1C421.103 247.067 421.619 247.05 422.119 247.05C422.653 247.017 423.186 246.983 423.719 246.95V249H413.519V247.5ZM418.369 218.55C417.669 218.55 417.053 218.267 416.519 217.7C415.986 217.133 415.719 216.433 415.719 215.6C415.719 214.767 415.986 214.067 416.519 213.5C417.086 212.9 417.719 212.6 418.419 212.6C419.186 212.6 419.819 212.9 420.319 213.5C420.853 214.067 421.119 214.767 421.119 215.6C421.119 216.433 420.836 217.133 420.269 217.7C419.736 218.267 419.103 218.55 418.369 218.55ZM442.482 249.8C440.149 249.8 438.032 249.267 436.132 248.2C434.232 247.1 432.715 245.6 431.582 243.7C430.482 241.767 429.932 239.567 429.932 237.1C429.932 234.467 430.482 232.1 431.582 230C432.682 227.9 434.182 226.25 436.082 225.05C437.982 223.817 440.115 223.2 442.482 223.2C444.815 223.2 446.932 223.767 448.832 224.9C450.732 226 452.249 227.5 453.382 229.4C454.515 231.3 455.082 233.467 455.082 235.9C455.082 238.467 454.515 240.817 453.382 242.95C452.282 245.05 450.782 246.717 448.882 247.95C446.982 249.183 444.849 249.8 442.482 249.8ZM442.882 247.8C444.649 247.8 446.049 247.3 447.082 246.3C448.115 245.3 448.849 244 449.282 242.4C449.749 240.8 449.982 239.117 449.982 237.35C449.982 235.85 449.832 234.383 449.532 232.95C449.265 231.483 448.832 230.167 448.232 229C447.632 227.8 446.849 226.85 445.882 226.15C444.949 225.45 443.815 225.1 442.482 225.1C440.749 225.1 439.332 225.6 438.232 226.6C437.132 227.6 436.315 228.9 435.782 230.5C435.282 232.1 435.032 233.817 435.032 235.65C435.032 237.717 435.315 239.683 435.882 241.55C436.449 243.383 437.315 244.883 438.482 246.05C439.649 247.217 441.115 247.8 442.882 247.8ZM461.83 249V247.5C462.863 247.5 463.58 247.25 463.98 246.75C464.38 246.217 464.613 245.5 464.68 244.6C464.747 243.667 464.78 242.6 464.78 241.4L464.83 230C464.83 229.467 464.83 228.933 464.83 228.4C464.863 227.867 464.93 227.317 465.03 226.75C464.43 226.783 463.83 226.817 463.23 226.85C462.663 226.883 462.08 226.917 461.48 226.95V224.85C462.947 224.85 464.047 224.783 464.78 224.65C465.547 224.517 466.113 224.35 466.48 224.15C466.847 223.95 467.147 223.733 467.38 223.5H468.83C468.863 223.733 468.88 224 468.88 224.3C468.913 224.6 468.947 224.933 468.98 225.3C469.013 225.667 469.03 226.083 469.03 226.55C469.763 225.917 470.563 225.35 471.43 224.85C472.33 224.35 473.263 223.95 474.23 223.65C475.23 223.35 476.213 223.2 477.18 223.2C480.08 223.2 482.197 224.117 483.53 225.95C484.863 227.75 485.53 230.567 485.53 234.4V243.7C485.53 244.367 485.513 244.967 485.48 245.5C485.48 246 485.43 246.533 485.33 247.1C485.863 247.067 486.38 247.05 486.88 247.05C487.413 247.017 487.947 246.983 488.48 246.95V249H478.28V247.5C479.313 247.5 480.03 247.25 480.43 246.75C480.83 246.217 481.063 245.5 481.13 244.6C481.197 243.667 481.23 242.6 481.23 241.4V234.4C481.197 231.533 480.713 229.367 479.78 227.9C478.88 226.433 477.447 225.717 475.48 225.75C474.28 225.783 473.097 226.1 471.93 226.7C470.797 227.3 469.847 228.067 469.08 229C469.113 229.267 469.13 229.567 469.13 229.9C469.13 230.233 469.13 230.583 469.13 230.95L469.08 243.7C469.08 244.367 469.063 244.967 469.03 245.5C469.03 246 468.98 246.533 468.88 247.1C469.413 247.067 469.93 247.05 470.43 247.05C470.963 247.017 471.497 246.983 472.03 246.95V249H461.83Z" fill="black"/>
<g filter="url(#filter0_d_589_3051)">
<rect x="7" y="5" width="690" height="136" rx="4" fill="#181818" fill-opacity="0.9" shape-rendering="crispEdges"/>
<path d="M67.6221 69V67.35C68.8887 67.3167 69.7554 67.0333 70.2221 66.5C70.6887 65.9333 70.9387 65.1833 70.9721 64.25C71.0387 63.2833 71.0721 62.1833 71.0721 60.95V39.95C71.0721 39.05 71.0887 38.2833 71.1221 37.65C71.1554 36.9833 71.1887 36.4333 71.2221 36C70.6221 36.0333 70.0221 36.0667 69.4221 36.1C68.8221 36.1333 68.2221 36.1667 67.6221 36.2V34C69.4554 33.9667 71.2887 33.95 73.1221 33.95C74.9887 33.9167 76.9221 33.9 78.9221 33.9C82.7887 33.9 85.8054 34.5833 87.9721 35.95C90.1721 37.3167 91.2387 39.4833 91.1721 42.45C91.1721 43.5167 90.8554 44.5833 90.2221 45.65C89.6221 46.7167 88.7054 47.6667 87.4721 48.5C86.2721 49.3 84.7554 49.8667 82.9221 50.2V50.3C86.5887 50.3 89.3554 51.15 91.2221 52.85C93.0887 54.5167 94.0221 56.6333 94.0221 59.2C94.0221 61.2333 93.5054 62.9833 92.4721 64.45C91.4387 65.9167 90.0387 67.05 88.2721 67.85C86.5054 68.6167 84.4887 69 82.2221 69H67.6221ZM75.2721 67C75.8054 67.0333 76.4387 67.0667 77.1721 67.1C77.9387 67.1 78.6387 67.1 79.2721 67.1C79.9387 67.1 80.3721 67.1 80.5721 67.1C83.1387 67.1 85.2054 66.4667 86.7721 65.2C88.3721 63.9 89.1721 62 89.1721 59.5C89.1721 57.4667 88.7721 55.8833 87.9721 54.75C87.1721 53.6167 86.1221 52.8167 84.8221 52.35C83.5221 51.8833 82.1054 51.65 80.5721 51.65C79.5721 51.65 78.6554 51.6667 77.8221 51.7C77.0221 51.7 76.2221 51.7333 75.4221 51.8V63.1C75.4221 64 75.4054 64.7667 75.3721 65.4C75.3721 66.0333 75.3387 66.5667 75.2721 67ZM75.4221 49.85L79.0721 49.75C80.9721 49.7167 82.4721 49.3333 83.5721 48.6C84.6721 47.8333 85.4554 46.8833 85.9221 45.75C86.4221 44.6167 86.6554 43.4333 86.6221 42.2C86.5887 40.4 86.1721 39.0333 85.3721 38.1C84.6054 37.1667 83.6554 36.5333 82.5221 36.2C81.3887 35.8667 80.2721 35.7 79.1721 35.7C78.0721 35.7 77.2554 35.85 76.7221 36.15C76.1887 36.45 75.8387 36.95 75.6721 37.65C75.5054 38.35 75.4221 39.3167 75.4221 40.55V49.85ZM100.676 69V67.5C101.909 67.4667 102.709 67.0833 103.076 66.35C103.476 65.5833 103.676 64.55 103.676 63.25V49.3C103.676 48.6333 103.676 48.05 103.676 47.55C103.709 47.0167 103.776 46.4667 103.876 45.9C103.342 45.9333 102.809 45.9667 102.276 46C101.776 46 101.259 46.0167 100.726 46.05V44H110.926V45.5C109.926 45.5 109.209 45.7333 108.776 46.2C108.376 46.6667 108.142 47.25 108.076 47.95C108.009 48.6167 107.976 49.2667 107.976 49.9V54.5L110.526 54.4C113.226 54.3333 115.342 54.6333 116.876 55.3C118.442 55.9333 119.542 56.8167 120.176 57.95C120.842 59.05 121.176 60.2667 121.176 61.6C121.176 63.2 120.792 64.55 120.026 65.65C119.292 66.75 118.309 67.5833 117.076 68.15C115.842 68.7167 114.492 69 113.026 69H100.676ZM107.876 66.95C108.442 66.9833 108.992 67 109.526 67C110.059 67 110.609 67 111.176 67C112.742 67 114.059 66.6 115.126 65.8C116.226 65 116.776 63.6333 116.776 61.7C116.776 60 116.276 58.6833 115.276 57.75C114.309 56.7833 112.942 56.3 111.176 56.3C110.476 56.3 109.909 56.3167 109.476 56.35C109.042 56.35 108.542 56.3667 107.976 56.4V64.15C107.976 64.7833 107.959 65.3333 107.926 65.8C107.926 66.2667 107.909 66.65 107.876 66.95ZM123.076 69V67.5C124.109 67.5 124.826 67.25 125.226 66.75C125.626 66.2167 125.859 65.5 125.926 64.6C126.026 63.6667 126.076 62.6 126.076 61.4L126.126 49.3C126.126 48.6333 126.126 48.05 126.126 47.55C126.159 47.0167 126.226 46.4667 126.326 45.9C125.792 45.9333 125.259 45.9667 124.726 46C124.226 46 123.709 46.0167 123.176 46.05V44H133.376V45.5C132.376 45.5 131.659 45.7667 131.226 46.3C130.826 46.8 130.592 47.5167 130.526 48.45C130.459 49.35 130.426 50.4 130.426 51.6L130.326 63.7C130.326 64.3667 130.309 64.9667 130.276 65.5C130.276 66 130.226 66.5333 130.126 67.1C130.659 67.0667 131.176 67.05 131.676 67.05C132.209 67.0167 132.742 66.9833 133.276 66.95V69H123.076ZM151.735 69.75C149.602 69.75 147.652 69.1833 145.885 68.05C144.152 66.8833 142.768 65.15 141.735 62.85C140.702 60.5167 140.185 57.5833 140.185 54.05C140.185 51.1167 140.485 48.3667 141.085 45.8C141.718 43.2333 142.702 41.0167 144.035 39.15C145.402 37.25 147.185 35.8833 149.385 35.05C150.218 34.7167 151.068 34.4833 151.935 34.35C152.802 34.1833 153.668 34.05 154.535 33.95C155.435 33.8167 156.318 33.6333 157.185 33.4C158.052 33.1333 158.702 32.85 159.135 32.55C159.602 32.25 159.968 31.7333 160.235 31L161.985 31.55C161.752 32.6167 161.518 33.5333 161.285 34.3C161.052 35.0667 160.668 35.7167 160.135 36.25C159.635 36.7833 158.802 37.25 157.635 37.65C156.735 37.95 155.818 38.1833 154.885 38.35C153.952 38.5167 153.052 38.6667 152.185 38.8C151.318 38.9 150.485 39.0667 149.685 39.3C147.152 40.0667 145.302 41.5667 144.135 43.8C143.002 46 142.452 48.5333 142.485 51.4H142.835C143.602 49.4333 144.768 47.8667 146.335 46.7C147.935 45.5333 149.952 44.95 152.385 44.95C154.485 44.95 156.368 45.4 158.035 46.3C159.702 47.1667 161.018 48.4667 161.985 50.2C162.985 51.9 163.485 54 163.485 56.5C163.485 59.1667 162.952 61.5 161.885 63.5C160.852 65.5 159.435 67.05 157.635 68.15C155.868 69.2167 153.902 69.75 151.735 69.75ZM151.935 67.85C153.568 67.85 154.868 67.3833 155.835 66.45C156.835 65.4833 157.552 64.2333 157.985 62.7C158.418 61.1667 158.635 59.5667 158.635 57.9C158.635 56.0667 158.385 54.3 157.885 52.6C157.418 50.9 156.652 49.5 155.585 48.4C154.552 47.3 153.185 46.75 151.485 46.75C149.985 46.75 148.752 47.2 147.785 48.1C146.818 49 146.085 50.1833 145.585 51.65C145.118 53.0833 144.885 54.6333 144.885 56.3C144.885 58.7 145.152 60.7667 145.685 62.5C146.218 64.2 147.002 65.5167 148.035 66.45C149.102 67.3833 150.402 67.85 151.935 67.85ZM182.082 69.8C179.782 69.8 177.699 69.2667 175.832 68.2C173.999 67.1 172.549 65.5667 171.482 63.6C170.416 61.6 169.882 59.25 169.882 56.55C169.882 54.2167 170.399 52.0333 171.432 50C172.499 47.9667 173.982 46.3333 175.882 45.1C177.782 43.8333 179.982 43.2 182.482 43.2C183.882 43.2 185.182 43.4333 186.382 43.9C187.616 44.3333 188.699 45.0167 189.632 45.95C190.566 46.85 191.299 48 191.832 49.4C192.366 50.7667 192.632 52.3833 192.632 54.25L175.032 54.55C175.032 57.0833 175.299 59.3167 175.832 61.25C176.399 63.15 177.299 64.6333 178.532 65.7C179.766 66.7333 181.349 67.25 183.282 67.25C184.316 67.25 185.366 67.0667 186.432 66.7C187.532 66.3333 188.549 65.8333 189.482 65.2C190.416 64.5667 191.166 63.8667 191.732 63.1L192.932 64.1C192.032 65.5 190.949 66.6167 189.682 67.45C188.416 68.2833 187.116 68.8833 185.782 69.25C184.449 69.6167 183.216 69.8 182.082 69.8ZM175.182 52.45H187.932C187.932 51.25 187.749 50.1 187.382 49C187.049 47.8667 186.482 46.95 185.682 46.25C184.882 45.5167 183.832 45.15 182.532 45.15C180.599 45.15 178.982 45.7333 177.682 46.9C176.416 48.0333 175.582 49.8833 175.182 52.45ZM199.132 81.75V80.25C200.165 80.25 200.882 79.9833 201.282 79.45C201.682 78.95 201.915 78.2333 201.982 77.3C202.049 76.4 202.082 75.35 202.082 74.15L202.182 50C202.182 49.4667 202.182 48.9333 202.182 48.4C202.215 47.8667 202.282 47.3167 202.382 46.75C201.782 46.7833 201.182 46.8167 200.582 46.85C200.015 46.8833 199.432 46.9167 198.832 46.95V44.85C200.299 44.85 201.399 44.7833 202.132 44.65C202.899 44.5167 203.449 44.35 203.782 44.15C204.149 43.95 204.449 43.7333 204.682 43.5H206.182C206.215 43.8333 206.249 44.2333 206.282 44.7C206.315 45.1333 206.349 45.6333 206.382 46.2C207.382 45.3 208.565 44.5833 209.932 44.05C211.332 43.4833 212.732 43.2 214.132 43.2C216.065 43.2 217.865 43.7 219.532 44.7C221.199 45.7 222.549 47.1333 223.582 49C224.615 50.8333 225.132 53.0333 225.132 55.6C225.132 58.4333 224.532 60.9167 223.332 63.05C222.165 65.1833 220.615 66.85 218.682 68.05C216.749 69.2167 214.649 69.8 212.382 69.8C211.215 69.8 210.132 69.65 209.132 69.35C208.165 69.0833 207.249 68.6833 206.382 68.15V76.45C206.382 77.1167 206.365 77.7 206.332 78.2C206.332 78.7333 206.282 79.2833 206.182 79.85C206.715 79.8167 207.232 79.7833 207.732 79.75C208.265 79.75 208.799 79.7333 209.332 79.7V81.75H199.132ZM212.282 67.8C213.882 67.8 215.249 67.3167 216.382 66.35C217.549 65.35 218.432 64 219.032 62.3C219.665 60.5667 219.982 58.6 219.982 56.4C219.982 54.6 219.715 52.8833 219.182 51.25C218.682 49.5833 217.865 48.2333 216.732 47.2C215.632 46.1667 214.165 45.65 212.332 45.65C211.199 45.65 210.099 45.9333 209.032 46.5C207.999 47.0333 207.132 47.6833 206.432 48.45C206.432 48.5833 206.432 48.7833 206.432 49.05C206.465 49.2833 206.482 49.7167 206.482 50.35C206.482 50.95 206.482 51.8667 206.482 53.1C206.482 54.3 206.465 55.9333 206.432 58C206.432 60.0667 206.432 62.6833 206.432 65.85C207.265 66.4833 208.165 66.9667 209.132 67.3C210.132 67.6333 211.182 67.8 212.282 67.8ZM242.216 45.5C241.182 45.5 240.466 45.7667 240.066 46.3C239.666 46.8 239.432 47.5167 239.366 48.45C239.299 49.35 239.249 50.4 239.216 51.6L239.166 63.7C239.166 64.3667 239.149 64.9667 239.116 65.5C239.116 66 239.066 66.5333 238.966 67.1C239.499 67.0667 240.016 67.05 240.516 67.05C241.049 67.0167 241.582 66.9833 242.116 66.95V69H231.916V67.5C232.949 67.5 233.666 67.25 234.066 66.75C234.466 66.2167 234.699 65.5 234.766 64.6C234.866 63.6667 234.916 62.6 234.916 61.4V49.3C234.916 48.6333 234.916 48.05 234.916 47.55C234.949 47.0167 235.016 46.4667 235.116 45.9C234.582 45.9333 234.049 45.9667 233.516 46C233.016 46 232.499 46.0167 231.966 46.05V44H242.216V45.5ZM252.016 46.4L253.616 47.6L238.266 66.85L236.566 65.45L252.016 46.4ZM258.866 45.5C257.866 45.5 257.149 45.7667 256.716 46.3C256.316 46.8 256.082 47.5167 256.016 48.45C255.949 49.35 255.916 50.4 255.916 51.6L255.816 63.7C255.816 64.3667 255.799 64.9667 255.766 65.5C255.766 66 255.732 66.5333 255.666 67.1C256.199 67.0667 256.716 67.05 257.216 67.05C257.749 67.0167 258.282 66.9833 258.816 66.95V69H248.566V67.5C249.599 67.5 250.316 67.25 250.716 66.75C251.116 66.2167 251.349 65.5 251.416 64.6C251.516 63.6667 251.566 62.6 251.566 61.4L251.616 49.3C251.616 48.6333 251.616 48.05 251.616 47.55C251.649 47.0167 251.716 46.4667 251.816 45.9C251.282 45.9333 250.749 45.9667 250.216 46C249.716 46 249.199 46.0167 248.666 46.05V44H258.866V45.5ZM281.398 69V67.5C282.432 67.5 283.148 67.25 283.548 66.75C283.948 66.2167 284.182 65.5 284.248 64.6C284.348 63.6667 284.398 62.6 284.398 61.4V49.3C284.398 48.6333 284.398 48.05 284.398 47.55C284.432 47.0167 284.498 46.4667 284.598 45.9L281.448 46.05V44H307.748V45.5C306.748 45.5 306.032 45.7667 305.598 46.3C305.198 46.8 304.965 47.5167 304.898 48.45C304.832 49.35 304.798 50.4 304.798 51.6L304.698 63.7C304.698 64.3667 304.682 64.9667 304.648 65.5C304.648 66 304.598 66.5333 304.498 67.1L307.648 66.95V69H297.398V67.5C298.432 67.5 299.148 67.25 299.548 66.75C299.948 66.2167 300.182 65.5 300.248 64.6C300.348 63.6667 300.398 62.6 300.398 61.4L300.448 49.3C300.448 48.6333 300.448 48.05 300.448 47.55C300.482 47.0167 300.548 46.4667 300.648 45.9L291.748 46C290.715 46 289.998 46.2167 289.598 46.65C289.198 47.0833 288.965 47.7167 288.898 48.55C288.832 49.3833 288.782 50.4 288.748 51.6L288.698 63.7C288.698 64.3667 288.682 64.9667 288.648 65.5C288.648 66 288.598 66.5333 288.498 67.1L291.648 66.95V69H281.398ZM329.86 69C329.76 68.4333 329.693 67.9333 329.66 67.5C329.627 67.0667 329.577 66.6167 329.51 66.15C328.377 67.2833 327.143 68.1833 325.81 68.85C324.51 69.4833 323.127 69.8 321.66 69.8C319.127 69.8 317.243 69.2333 316.01 68.1C314.777 66.9333 314.16 65.5167 314.16 63.85C314.16 62.3167 314.627 61 315.56 59.9C316.527 58.7667 317.76 57.85 319.26 57.15C320.793 56.4167 322.443 55.8833 324.21 55.55C326.01 55.1833 327.743 55.0167 329.41 55.05V51.95C329.41 50.7833 329.31 49.6833 329.11 48.65C328.91 47.6167 328.477 46.7667 327.81 46.1C327.143 45.4333 326.077 45.0833 324.61 45.05C323.643 45.0167 322.643 45.2 321.61 45.6C320.61 46 319.877 46.6833 319.41 47.65C319.677 47.9167 319.843 48.2333 319.91 48.6C320.01 48.9333 320.06 49.25 320.06 49.55C320.06 49.95 319.893 50.4167 319.56 50.95C319.227 51.45 318.643 51.6833 317.81 51.65C317.11 51.65 316.577 51.4167 316.21 50.95C315.843 50.45 315.66 49.8667 315.66 49.2C315.66 48.0667 316.077 47.05 316.91 46.15C317.777 45.25 318.96 44.5333 320.46 44C321.96 43.4667 323.66 43.2 325.56 43.2C328.36 43.2 330.427 43.95 331.76 45.45C333.093 46.9167 333.743 49.25 333.71 52.45C333.71 53.6833 333.71 54.9333 333.71 56.2C333.71 57.4333 333.693 58.6833 333.66 59.95C333.66 61.1833 333.66 62.4333 333.66 63.7C333.66 64.2333 333.643 64.7667 333.61 65.3C333.577 65.8333 333.527 66.4333 333.46 67.1C334.06 67.0667 334.643 67.0333 335.21 67C335.81 66.9667 336.41 66.9333 337.01 66.9V69H329.86ZM329.41 56.75C328.277 56.7833 327.077 56.9333 325.81 57.2C324.577 57.4333 323.427 57.8 322.36 58.3C321.327 58.8 320.477 59.4667 319.81 60.3C319.177 61.1 318.877 62.0833 318.91 63.25C318.977 64.4833 319.377 65.4167 320.11 66.05C320.877 66.65 321.777 66.95 322.81 66.95C324.177 66.95 325.36 66.7 326.36 66.2C327.393 65.6667 328.41 64.9333 329.41 64C329.377 63.6333 329.36 63.2333 329.36 62.8C329.36 62.3667 329.36 61.9167 329.36 61.45C329.36 61.2833 329.36 60.75 329.36 59.85C329.393 58.95 329.41 57.9167 329.41 56.75ZM342.491 81.75V80.25C343.525 80.25 344.241 79.9833 344.641 79.45C345.041 78.95 345.275 78.2333 345.341 77.3C345.408 76.4 345.441 75.35 345.441 74.15L345.541 50C345.541 49.4667 345.541 48.9333 345.541 48.4C345.575 47.8667 345.641 47.3167 345.741 46.75C345.141 46.7833 344.541 46.8167 343.941 46.85C343.375 46.8833 342.791 46.9167 342.191 46.95V44.85C343.658 44.85 344.758 44.7833 345.491 44.65C346.258 44.5167 346.808 44.35 347.141 44.15C347.508 43.95 347.808 43.7333 348.041 43.5H349.541C349.575 43.8333 349.608 44.2333 349.641 44.7C349.675 45.1333 349.708 45.6333 349.741 46.2C350.741 45.3 351.925 44.5833 353.291 44.05C354.691 43.4833 356.091 43.2 357.491 43.2C359.425 43.2 361.225 43.7 362.891 44.7C364.558 45.7 365.908 47.1333 366.941 49C367.975 50.8333 368.491 53.0333 368.491 55.6C368.491 58.4333 367.891 60.9167 366.691 63.05C365.525 65.1833 363.975 66.85 362.041 68.05C360.108 69.2167 358.008 69.8 355.741 69.8C354.575 69.8 353.491 69.65 352.491 69.35C351.525 69.0833 350.608 68.6833 349.741 68.15V76.45C349.741 77.1167 349.725 77.7 349.691 78.2C349.691 78.7333 349.641 79.2833 349.541 79.85C350.075 79.8167 350.591 79.7833 351.091 79.75C351.625 79.75 352.158 79.7333 352.691 79.7V81.75H342.491ZM355.641 67.8C357.241 67.8 358.608 67.3167 359.741 66.35C360.908 65.35 361.791 64 362.391 62.3C363.025 60.5667 363.341 58.6 363.341 56.4C363.341 54.6 363.075 52.8833 362.541 51.25C362.041 49.5833 361.225 48.2333 360.091 47.2C358.991 46.1667 357.525 45.65 355.691 45.65C354.558 45.65 353.458 45.9333 352.391 46.5C351.358 47.0333 350.491 47.6833 349.791 48.45C349.791 48.5833 349.791 48.7833 349.791 49.05C349.825 49.2833 349.841 49.7167 349.841 50.35C349.841 50.95 349.841 51.8667 349.841 53.1C349.841 54.3 349.825 55.9333 349.791 58C349.791 60.0667 349.791 62.6833 349.791 65.85C350.625 66.4833 351.525 66.9667 352.491 67.3C353.491 67.6333 354.541 67.8 355.641 67.8ZM390.475 69C390.375 68.4333 390.309 67.9333 390.275 67.5C390.242 67.0667 390.192 66.6167 390.125 66.15C388.992 67.2833 387.759 68.1833 386.425 68.85C385.125 69.4833 383.742 69.8 382.275 69.8C379.742 69.8 377.859 69.2333 376.625 68.1C375.392 66.9333 374.775 65.5167 374.775 63.85C374.775 62.3167 375.242 61 376.175 59.9C377.142 58.7667 378.375 57.85 379.875 57.15C381.409 56.4167 383.059 55.8833 384.825 55.55C386.625 55.1833 388.359 55.0167 390.025 55.05V51.95C390.025 50.7833 389.925 49.6833 389.725 48.65C389.525 47.6167 389.092 46.7667 388.425 46.1C387.759 45.4333 386.692 45.0833 385.225 45.05C384.259 45.0167 383.259 45.2 382.225 45.6C381.225 46 380.492 46.6833 380.025 47.65C380.292 47.9167 380.459 48.2333 380.525 48.6C380.625 48.9333 380.675 49.25 380.675 49.55C380.675 49.95 380.509 50.4167 380.175 50.95C379.842 51.45 379.259 51.6833 378.425 51.65C377.725 51.65 377.192 51.4167 376.825 50.95C376.459 50.45 376.275 49.8667 376.275 49.2C376.275 48.0667 376.692 47.05 377.525 46.15C378.392 45.25 379.575 44.5333 381.075 44C382.575 43.4667 384.275 43.2 386.175 43.2C388.975 43.2 391.042 43.95 392.375 45.45C393.709 46.9167 394.359 49.25 394.325 52.45C394.325 53.6833 394.325 54.9333 394.325 56.2C394.325 57.4333 394.309 58.6833 394.275 59.95C394.275 61.1833 394.275 62.4333 394.275 63.7C394.275 64.2333 394.259 64.7667 394.225 65.3C394.192 65.8333 394.142 66.4333 394.075 67.1C394.675 67.0667 395.259 67.0333 395.825 67C396.425 66.9667 397.025 66.9333 397.625 66.9V69H390.475ZM390.025 56.75C388.892 56.7833 387.692 56.9333 386.425 57.2C385.192 57.4333 384.042 57.8 382.975 58.3C381.942 58.8 381.092 59.4667 380.425 60.3C379.792 61.1 379.492 62.0833 379.525 63.25C379.592 64.4833 379.992 65.4167 380.725 66.05C381.492 66.65 382.392 66.95 383.425 66.95C384.792 66.95 385.975 66.7 386.975 66.2C388.009 65.6667 389.025 64.9333 390.025 64C389.992 63.6333 389.975 63.2333 389.975 62.8C389.975 62.3667 389.975 61.9167 389.975 61.45C389.975 61.2833 389.975 60.75 389.975 59.85C390.009 58.95 390.025 57.9167 390.025 56.75ZM405.456 69.55C404.256 69.55 403.323 69.3167 402.656 68.85C402.023 68.35 401.706 67.7 401.706 66.9C401.706 66.1667 401.89 65.5667 402.256 65.1C402.623 64.6333 403.173 64.3833 403.906 64.35C404.706 64.35 405.273 64.55 405.606 64.95C405.973 65.35 406.156 65.75 406.156 66.15C406.156 66.25 406.14 66.3833 406.106 66.55C406.106 66.6833 406.09 66.8 406.056 66.9C406.256 66.9667 406.406 67 406.506 67C407.173 67 407.873 66.3333 408.606 65C409.34 63.6667 410.006 61.4667 410.606 58.4C411.24 55.3 411.673 51.15 411.906 45.95L407.206 46.15V44H428.756V45.5C427.756 45.5 427.04 45.7667 426.606 46.3C426.206 46.8 425.973 47.5167 425.906 48.45C425.84 49.35 425.806 50.4 425.806 51.6V63.7C425.773 64.3667 425.74 64.9667 425.706 65.5C425.673 66 425.606 66.5333 425.506 67.1L428.656 66.95V69H418.456V67.5C419.49 67.5 420.206 67.25 420.606 66.75C421.006 66.2167 421.24 65.5 421.306 64.6C421.406 63.6667 421.473 62.6 421.506 61.4V49.3C421.506 48.6333 421.506 48.05 421.506 47.55C421.54 47.0167 421.606 46.4667 421.706 45.9H417.306C416.173 45.9 415.39 46.2667 414.956 47C414.556 47.7 414.356 48.65 414.356 49.85C414.223 52.2167 413.973 54.5667 413.606 56.9C413.273 59.2333 412.773 61.35 412.106 63.25C411.44 65.15 410.556 66.6833 409.456 67.85C408.39 68.9833 407.056 69.55 405.456 69.55ZM437.546 69.55C436.346 69.55 435.413 69.3167 434.746 68.85C434.113 68.35 433.796 67.7 433.796 66.9C433.796 66.1667 433.98 65.5667 434.346 65.1C434.713 64.6333 435.263 64.3833 435.996 64.35C436.796 64.35 437.363 64.55 437.696 64.95C438.063 65.35 438.246 65.75 438.246 66.15C438.246 66.25 438.23 66.3833 438.196 66.55C438.196 66.6833 438.18 66.8 438.146 66.9C438.346 66.9667 438.496 67 438.596 67C439.263 67 439.963 66.3333 440.696 65C441.43 63.6667 442.096 61.4667 442.696 58.4C443.33 55.3 443.763 51.15 443.996 45.95L439.296 46.15V44H460.846V45.5C459.846 45.5 459.13 45.7667 458.696 46.3C458.296 46.8 458.063 47.5167 457.996 48.45C457.93 49.35 457.896 50.4 457.896 51.6V63.7C457.863 64.3667 457.83 64.9667 457.796 65.5C457.763 66 457.696 66.5333 457.596 67.1L460.746 66.95V69H450.546V67.5C451.58 67.5 452.296 67.25 452.696 66.75C453.096 66.2167 453.33 65.5 453.396 64.6C453.496 63.6667 453.563 62.6 453.596 61.4V49.3C453.596 48.6333 453.596 48.05 453.596 47.55C453.63 47.0167 453.696 46.4667 453.796 45.9H449.396C448.263 45.9 447.48 46.2667 447.046 47C446.646 47.7 446.446 48.65 446.446 49.85C446.313 52.2167 446.063 54.5667 445.696 56.9C445.363 59.2333 444.863 61.35 444.196 63.25C443.53 65.15 442.646 66.6833 441.546 67.85C440.48 68.9833 439.146 69.55 437.546 69.55ZM479.836 69.8C477.536 69.8 475.453 69.2667 473.586 68.2C471.753 67.1 470.303 65.5667 469.236 63.6C468.169 61.6 467.636 59.25 467.636 56.55C467.636 54.2167 468.153 52.0333 469.186 50C470.253 47.9667 471.736 46.3333 473.636 45.1C475.536 43.8333 477.736 43.2 480.236 43.2C481.636 43.2 482.936 43.4333 484.136 43.9C485.369 44.3333 486.453 45.0167 487.386 45.95C488.319 46.85 489.053 48 489.586 49.4C490.119 50.7667 490.386 52.3833 490.386 54.25L472.786 54.55C472.786 57.0833 473.053 59.3167 473.586 61.25C474.153 63.15 475.053 64.6333 476.286 65.7C477.519 66.7333 479.103 67.25 481.036 67.25C482.069 67.25 483.119 67.0667 484.186 66.7C485.286 66.3333 486.303 65.8333 487.236 65.2C488.169 64.5667 488.919 63.8667 489.486 63.1L490.686 64.1C489.786 65.5 488.703 66.6167 487.436 67.45C486.169 68.2833 484.869 68.8833 483.536 69.25C482.203 69.6167 480.969 69.8 479.836 69.8ZM472.936 52.45H485.686C485.686 51.25 485.503 50.1 485.136 49C484.803 47.8667 484.236 46.95 483.436 46.25C482.636 45.5167 481.586 45.15 480.286 45.15C478.353 45.15 476.736 45.7333 475.436 46.9C474.169 48.0333 473.336 49.8833 472.936 52.45ZM499.236 69.55C498.036 69.55 497.102 69.3167 496.436 68.85C495.802 68.35 495.486 67.7 495.486 66.9C495.486 66.1667 495.669 65.5667 496.036 65.1C496.402 64.6333 496.952 64.3833 497.686 64.35C498.486 64.35 499.052 64.55 499.386 64.95C499.752 65.35 499.936 65.75 499.936 66.15C499.936 66.25 499.919 66.3833 499.886 66.55C499.886 66.6833 499.869 66.8 499.836 66.9C500.036 66.9667 500.186 67 500.286 67C500.952 67 501.652 66.3333 502.386 65C503.119 63.6667 503.786 61.4667 504.386 58.4C505.019 55.3 505.452 51.15 505.686 45.95L500.986 46.15V44H522.536V45.5C521.536 45.5 520.819 45.7667 520.386 46.3C519.986 46.8 519.752 47.5167 519.686 48.45C519.619 49.35 519.586 50.4 519.586 51.6V63.7C519.552 64.3667 519.519 64.9667 519.486 65.5C519.452 66 519.386 66.5333 519.286 67.1L522.436 66.95V69H512.236V67.5C513.269 67.5 513.986 67.25 514.386 66.75C514.786 66.2167 515.019 65.5 515.086 64.6C515.186 63.6667 515.252 62.6 515.286 61.4V49.3C515.286 48.6333 515.286 48.05 515.286 47.55C515.319 47.0167 515.386 46.4667 515.486 45.9H511.086C509.952 45.9 509.169 46.2667 508.736 47C508.336 47.7 508.136 48.65 508.136 49.85C508.002 52.2167 507.752 54.5667 507.386 56.9C507.052 59.2333 506.552 61.35 505.886 63.25C505.219 65.15 504.336 66.6833 503.236 67.85C502.169 68.9833 500.836 69.55 499.236 69.55ZM529.426 69V67.5C530.659 67.4667 531.459 67.0833 531.826 66.35C532.226 65.5833 532.426 64.55 532.426 63.25V49.3C532.426 48.6333 532.426 48.05 532.426 47.55C532.459 47.0167 532.526 46.4667 532.626 45.9C532.092 45.9333 531.559 45.9667 531.026 46C530.526 46 530.009 46.0167 529.476 46.05V44H539.676V45.5C538.676 45.5 537.959 45.7333 537.526 46.2C537.126 46.6667 536.892 47.25 536.826 47.95C536.759 48.6167 536.726 49.2667 536.726 49.9V54.5L539.826 54.4C542.526 54.3333 544.642 54.6333 546.176 55.3C547.742 55.9333 548.842 56.8167 549.476 57.95C550.142 59.05 550.476 60.2667 550.476 61.6C550.476 63.2 550.092 64.55 549.326 65.65C548.592 66.75 547.609 67.5833 546.376 68.15C545.142 68.7167 543.792 69 542.326 69H529.426ZM536.626 66.95C536.992 66.9833 537.442 67 537.976 67C538.542 67 539.059 67 539.526 67C540.026 67 540.359 67 540.526 67C542.059 67 543.359 66.6 544.426 65.8C545.526 65 546.076 63.6333 546.076 61.7C546.076 60 545.576 58.6833 544.576 57.75C543.609 56.7833 542.259 56.3 540.526 56.3C539.792 56.3 539.109 56.3167 538.476 56.35C537.876 56.35 537.292 56.3667 536.726 56.4V64.15C536.726 64.7833 536.709 65.3333 536.676 65.8C536.676 66.2667 536.659 66.65 536.626 66.95ZM567.567 45.5C566.534 45.5 565.817 45.7667 565.417 46.3C565.017 46.8 564.784 47.5167 564.717 48.45C564.651 49.35 564.601 50.4 564.567 51.6L564.517 63.7C564.517 64.3667 564.501 64.9667 564.467 65.5C564.467 66 564.417 66.5333 564.317 67.1L567.467 66.95V69H557.267V67.5C558.301 67.5 559.017 67.25 559.417 66.75C559.817 66.2167 560.051 65.5 560.117 64.6C560.217 63.6667 560.267 62.6 560.267 61.4V49.3C560.267 48.6333 560.267 48.05 560.267 47.55C560.301 47.0167 560.367 46.4667 560.467 45.9L557.317 46.05V44H567.567V45.5ZM583.967 45.5C582.967 45.5 582.251 45.7667 581.817 46.3C581.417 46.8 581.184 47.5167 581.117 48.45C581.084 49.35 581.051 50.4 581.017 51.6L580.967 63.7C580.967 64.3667 580.951 64.9667 580.917 65.5C580.917 66 580.867 66.5333 580.767 67.1L583.917 66.95V69H573.717V67.5C574.751 67.5 575.467 67.25 575.867 66.75C576.267 66.2167 576.501 65.5 576.567 64.6C576.634 63.6667 576.667 62.6 576.667 61.4L576.717 49.3C576.717 48.6333 576.717 48.05 576.717 47.55C576.751 47.0167 576.817 46.4667 576.917 45.9L573.767 46.05V44H583.967V45.5ZM562.767 55.2H578.467V57.15L562.767 57.35V55.2ZM590.871 69V67.5C592.104 67.4667 592.904 67.0833 593.271 66.35C593.671 65.5833 593.871 64.55 593.871 63.25V49.3C593.871 48.6333 593.871 48.05 593.871 47.55C593.904 47.0167 593.971 46.4667 594.071 45.9C593.538 45.9333 593.004 45.9667 592.471 46C591.971 46 591.454 46.0167 590.921 46.05V44H601.121V45.5C600.121 45.5 599.404 45.7333 598.971 46.2C598.571 46.6667 598.338 47.25 598.271 47.95C598.204 48.6167 598.171 49.2667 598.171 49.9V54.5L600.721 54.4C603.421 54.3333 605.538 54.6333 607.071 55.3C608.638 55.9333 609.738 56.8167 610.371 57.95C611.038 59.05 611.371 60.2667 611.371 61.6C611.371 63.2 610.988 64.55 610.221 65.65C609.488 66.75 608.504 67.5833 607.271 68.15C606.038 68.7167 604.688 69 603.221 69H590.871ZM598.071 66.95C598.638 66.9833 599.188 67 599.721 67C600.254 67 600.804 67 601.371 67C602.938 67 604.254 66.6 605.321 65.8C606.421 65 606.971 63.6333 606.971 61.7C606.971 60 606.471 58.6833 605.471 57.75C604.504 56.7833 603.138 56.3 601.371 56.3C600.671 56.3 600.104 56.3167 599.671 56.35C599.238 56.35 598.738 56.3667 598.171 56.4V64.15C598.171 64.7833 598.154 65.3333 598.121 65.8C598.121 66.2667 598.104 66.65 598.071 66.95ZM613.271 69V67.5C614.304 67.5 615.021 67.25 615.421 66.75C615.821 66.2167 616.054 65.5 616.121 64.6C616.221 63.6667 616.271 62.6 616.271 61.4L616.321 49.3C616.321 48.6333 616.321 48.05 616.321 47.55C616.354 47.0167 616.421 46.4667 616.521 45.9C615.988 45.9333 615.454 45.9667 614.921 46C614.421 46 613.904 46.0167 613.371 46.05V44H623.571V45.5C622.571 45.5 621.854 45.7667 621.421 46.3C621.021 46.8 620.788 47.5167 620.721 48.45C620.654 49.35 620.621 50.4 620.621 51.6L620.521 63.7C620.521 64.3667 620.504 64.9667 620.471 65.5C620.471 66 620.421 66.5333 620.321 67.1C620.854 67.0667 621.371 67.05 621.871 67.05C622.404 67.0167 622.938 66.9833 623.471 66.95V69H613.271ZM640.78 45.5C639.747 45.5 639.03 45.7667 638.63 46.3C638.23 46.8 637.997 47.5167 637.93 48.45C637.864 49.35 637.814 50.4 637.78 51.6L637.73 63.7C637.73 64.3667 637.714 64.9667 637.68 65.5C637.68 66 637.63 66.5333 637.53 67.1C638.064 67.0667 638.58 67.05 639.08 67.05C639.614 67.0167 640.147 66.9833 640.68 66.95V69H630.48V67.5C631.514 67.5 632.23 67.25 632.63 66.75C633.03 66.2167 633.264 65.5 633.33 64.6C633.43 63.6667 633.48 62.6 633.48 61.4V49.3C633.48 48.6333 633.48 48.05 633.48 47.55C633.514 47.0167 633.58 46.4667 633.68 45.9C633.147 45.9333 632.614 45.9667 632.08 46C631.58 46 631.064 46.0167 630.53 46.05V44H640.78V45.5ZM650.58 46.4L652.18 47.6L636.83 66.85L635.13 65.45L650.58 46.4ZM657.43 45.5C656.43 45.5 655.714 45.7667 655.28 46.3C654.88 46.8 654.647 47.5167 654.58 48.45C654.514 49.35 654.48 50.4 654.48 51.6L654.38 63.7C654.38 64.3667 654.364 64.9667 654.33 65.5C654.33 66 654.297 66.5333 654.23 67.1C654.764 67.0667 655.28 67.05 655.78 67.05C656.314 67.0167 656.847 66.9833 657.38 66.95V69H647.13V67.5C648.164 67.5 648.88 67.25 649.28 66.75C649.68 66.2167 649.914 65.5 649.98 64.6C650.08 63.6667 650.13 62.6 650.13 61.4L650.18 49.3C650.18 48.6333 650.18 48.05 650.18 47.55C650.214 47.0167 650.28 46.4667 650.38 45.9C649.847 45.9333 649.314 45.9667 648.78 46C648.28 46 647.764 46.0167 647.23 46.05V44H657.43V45.5ZM643.98 40.15C642.047 40.15 640.397 39.7667 639.03 39C637.664 38.2 636.98 37.1333 636.98 35.8C636.98 35.2 637.147 34.6833 637.48 34.25C637.814 33.7833 638.297 33.5333 638.93 33.5C639.497 33.4667 639.93 33.5833 640.23 33.85C640.53 34.0833 640.73 34.3667 640.83 34.7C640.964 35 641.03 35.2833 641.03 35.55C641.03 35.8167 640.997 36.1167 640.93 36.45C640.864 36.7833 640.747 37.0833 640.58 37.35C640.747 37.6833 641.18 37.9333 641.88 38.1C642.614 38.2333 643.314 38.3 643.98 38.3C644.647 38.3 645.33 38.2333 646.03 38.1C646.73 37.9333 647.18 37.6833 647.38 37.35C647.214 37.0833 647.097 36.7833 647.03 36.45C646.964 36.1167 646.93 35.8167 646.93 35.55C646.93 35.2833 646.98 35 647.08 34.7C647.214 34.3667 647.43 34.0833 647.73 33.85C648.03 33.5833 648.464 33.4667 649.03 33.5C649.63 33.5333 650.097 33.7833 650.43 34.25C650.797 34.6833 650.98 35.2 650.98 35.8C650.98 37.1333 650.297 38.2 648.93 39C647.564 39.7667 645.914 40.15 643.98 40.15ZM257.121 114V112.5C258.154 112.5 258.871 112.25 259.271 111.75C259.671 111.217 259.904 110.5 259.971 109.6C260.071 108.667 260.121 107.6 260.121 106.4V94.3C260.121 93.6333 260.121 93.05 260.121 92.55C260.154 92.0167 260.221 91.4667 260.321 90.9L257.171 91.05V89H283.471V90.5C282.471 90.5 281.754 90.7667 281.321 91.3C280.921 91.8 280.688 92.5167 280.621 93.45C280.554 94.35 280.521 95.4 280.521 96.6L280.421 108.7C280.421 109.367 280.404 109.967 280.371 110.5C280.371 111 280.321 111.533 280.221 112.1L283.371 111.95V114H273.121V112.5C274.154 112.5 274.871 112.25 275.271 111.75C275.671 111.217 275.904 110.5 275.971 109.6C276.071 108.667 276.121 107.6 276.121 106.4L276.171 94.3C276.171 93.6333 276.171 93.05 276.171 92.55C276.204 92.0167 276.271 91.4667 276.371 90.9L267.471 91C266.438 91 265.721 91.2167 265.321 91.65C264.921 92.0833 264.688 92.7167 264.621 93.55C264.554 94.3833 264.504 95.4 264.471 96.6L264.421 108.7C264.421 109.367 264.404 109.967 264.371 110.5C264.371 111 264.321 111.533 264.221 112.1L267.371 111.95V114H257.121ZM302.483 114.8C300.183 114.8 298.099 114.267 296.233 113.2C294.399 112.1 292.949 110.567 291.883 108.6C290.816 106.6 290.283 104.25 290.283 101.55C290.283 99.2167 290.799 97.0333 291.833 95C292.899 92.9667 294.383 91.3333 296.283 90.1C298.183 88.8333 300.383 88.2 302.883 88.2C304.283 88.2 305.583 88.4333 306.783 88.9C308.016 89.3333 309.099 90.0167 310.033 90.95C310.966 91.85 311.699 93 312.233 94.4C312.766 95.7667 313.033 97.3833 313.033 99.25L295.433 99.55C295.433 102.083 295.699 104.317 296.233 106.25C296.799 108.15 297.699 109.633 298.933 110.7C300.166 111.733 301.749 112.25 303.683 112.25C304.716 112.25 305.766 112.067 306.833 111.7C307.933 111.333 308.949 110.833 309.883 110.2C310.816 109.567 311.566 108.867 312.133 108.1L313.333 109.1C312.433 110.5 311.349 111.617 310.083 112.45C308.816 113.283 307.516 113.883 306.183 114.25C304.849 114.617 303.616 114.8 302.483 114.8ZM295.583 97.45H308.333C308.333 96.25 308.149 95.1 307.783 94C307.449 92.8667 306.883 91.95 306.083 91.25C305.283 90.5167 304.233 90.15 302.933 90.15C300.999 90.15 299.383 90.7333 298.083 91.9C296.816 93.0333 295.983 94.8833 295.583 97.45ZM319.532 126.75V125.25C320.566 125.25 321.282 124.983 321.682 124.45C322.082 123.95 322.316 123.233 322.382 122.3C322.449 121.4 322.482 120.35 322.482 119.15L322.582 95C322.582 94.4667 322.582 93.9333 322.582 93.4C322.616 92.8667 322.682 92.3167 322.782 91.75C322.182 91.7833 321.582 91.8167 320.982 91.85C320.416 91.8833 319.832 91.9167 319.232 91.95V89.85C320.699 89.85 321.799 89.7833 322.532 89.65C323.299 89.5167 323.849 89.35 324.182 89.15C324.549 88.95 324.849 88.7333 325.082 88.5H326.582C326.616 88.8333 326.649 89.2333 326.682 89.7C326.716 90.1333 326.749 90.6333 326.782 91.2C327.782 90.3 328.966 89.5833 330.332 89.05C331.732 88.4833 333.132 88.2 334.532 88.2C336.466 88.2 338.266 88.7 339.932 89.7C341.599 90.7 342.949 92.1333 343.982 94C345.016 95.8333 345.532 98.0333 345.532 100.6C345.532 103.433 344.932 105.917 343.732 108.05C342.566 110.183 341.016 111.85 339.082 113.05C337.149 114.217 335.049 114.8 332.782 114.8C331.616 114.8 330.532 114.65 329.532 114.35C328.566 114.083 327.649 113.683 326.782 113.15V121.45C326.782 122.117 326.766 122.7 326.732 123.2C326.732 123.733 326.682 124.283 326.582 124.85C327.116 124.817 327.632 124.783 328.132 124.75C328.666 124.75 329.199 124.733 329.732 124.7V126.75H319.532ZM332.682 112.8C334.282 112.8 335.649 112.317 336.782 111.35C337.949 110.35 338.832 109 339.432 107.3C340.066 105.567 340.382 103.6 340.382 101.4C340.382 99.6 340.116 97.8833 339.582 96.25C339.082 94.5833 338.266 93.2333 337.132 92.2C336.032 91.1667 334.566 90.65 332.732 90.65C331.599 90.65 330.499 90.9333 329.432 91.5C328.399 92.0333 327.532 92.6833 326.832 93.45C326.832 93.5833 326.832 93.7833 326.832 94.05C326.866 94.2833 326.882 94.7167 326.882 95.35C326.882 95.95 326.882 96.8667 326.882 98.1C326.882 99.3 326.866 100.933 326.832 103C326.832 105.067 326.832 107.683 326.832 110.85C327.666 111.483 328.566 111.967 329.532 112.3C330.532 112.633 331.582 112.8 332.682 112.8ZM364.416 114.8C362.116 114.8 360.033 114.267 358.166 113.2C356.333 112.1 354.883 110.567 353.816 108.6C352.75 106.6 352.216 104.25 352.216 101.55C352.216 99.2167 352.733 97.0333 353.766 95C354.833 92.9667 356.316 91.3333 358.216 90.1C360.116 88.8333 362.316 88.2 364.816 88.2C366.216 88.2 367.516 88.4333 368.716 88.9C369.95 89.3333 371.033 90.0167 371.966 90.95C372.9 91.85 373.633 93 374.166 94.4C374.7 95.7667 374.966 97.3833 374.966 99.25L357.366 99.55C357.366 102.083 357.633 104.317 358.166 106.25C358.733 108.15 359.633 109.633 360.866 110.7C362.1 111.733 363.683 112.25 365.616 112.25C366.65 112.25 367.7 112.067 368.766 111.7C369.866 111.333 370.883 110.833 371.816 110.2C372.75 109.567 373.5 108.867 374.066 108.1L375.266 109.1C374.366 110.5 373.283 111.617 372.016 112.45C370.75 113.283 369.45 113.883 368.116 114.25C366.783 114.617 365.55 114.8 364.416 114.8ZM357.516 97.45H370.266C370.266 96.25 370.083 95.1 369.716 94C369.383 92.8667 368.816 91.95 368.016 91.25C367.216 90.5167 366.166 90.15 364.866 90.15C362.933 90.15 361.316 90.7333 360.016 91.9C358.75 93.0333 357.916 94.8833 357.516 97.45ZM381.916 114V112.5C383.149 112.467 383.949 112.083 384.316 111.35C384.716 110.583 384.916 109.55 384.916 108.25V93.8C384.916 93.2 384.932 92.6667 384.966 92.2C384.999 91.7333 385.049 91.3 385.116 90.9C384.582 90.9333 384.049 90.9667 383.516 91C383.016 91 382.499 91.0167 381.966 91.05V89C382.866 89 384.016 89 385.416 89C386.816 88.9667 388.349 88.95 390.016 88.95C391.716 88.95 393.399 88.95 395.066 88.95C397.399 88.95 399.299 89.4333 400.766 90.4C402.266 91.3333 402.999 92.7667 402.966 94.7C402.932 96.0333 402.466 97.2833 401.566 98.45C400.699 99.5833 399.316 100.383 397.416 100.85C399.682 100.95 401.399 101.567 402.566 102.7C403.732 103.8 404.316 105.2 404.316 106.9C404.316 108.4 403.916 109.683 403.116 110.75C402.316 111.817 401.266 112.633 399.966 113.2C398.666 113.733 397.266 114 395.766 114H381.916ZM389.116 111.95C389.482 111.983 389.966 112 390.566 112C391.199 112 391.782 112 392.316 112C392.882 112 393.232 112 393.366 112C395.232 112 396.716 111.617 397.816 110.85C398.949 110.05 399.516 108.783 399.516 107.05C399.516 105.283 398.899 104.033 397.666 103.3C396.432 102.533 394.999 102.15 393.366 102.15C392.666 102.15 391.932 102.167 391.166 102.2C390.432 102.2 389.782 102.217 389.216 102.25V109.15C389.216 109.783 389.199 110.333 389.166 110.8C389.166 111.267 389.149 111.65 389.116 111.95ZM389.216 100.35L392.966 100.3C394.332 100.267 395.416 99.9833 396.216 99.45C397.016 98.8833 397.582 98.2 397.916 97.4C398.249 96.5667 398.399 95.75 398.366 94.95C398.366 93.7833 398.116 92.9 397.616 92.3C397.116 91.7 396.466 91.3 395.666 91.1C394.899 90.8667 394.066 90.75 393.166 90.75C391.966 90.75 390.999 90.9667 390.266 91.4C389.566 91.8333 389.216 92.7667 389.216 94.2V100.35ZM422.89 114.8C420.557 114.8 418.44 114.267 416.54 113.2C414.64 112.1 413.123 110.6 411.99 108.7C410.89 106.767 410.34 104.567 410.34 102.1C410.34 99.4667 410.89 97.1 411.99 95C413.09 92.9 414.59 91.25 416.49 90.05C418.39 88.8167 420.523 88.2 422.89 88.2C425.223 88.2 427.34 88.7667 429.24 89.9C431.14 91 432.657 92.5 433.79 94.4C434.923 96.3 435.49 98.4667 435.49 100.9C435.49 103.467 434.923 105.817 433.79 107.95C432.69 110.05 431.19 111.717 429.29 112.95C427.39 114.183 425.257 114.8 422.89 114.8ZM423.29 112.8C425.057 112.8 426.457 112.3 427.49 111.3C428.523 110.3 429.257 109 429.69 107.4C430.157 105.8 430.39 104.117 430.39 102.35C430.39 100.85 430.24 99.3833 429.94 97.95C429.673 96.4833 429.24 95.1667 428.64 94C428.04 92.8 427.257 91.85 426.29 91.15C425.357 90.45 424.223 90.1 422.89 90.1C421.157 90.1 419.74 90.6 418.64 91.6C417.54 92.6 416.723 93.9 416.19 95.5C415.69 97.1 415.44 98.8167 415.44 100.65C415.44 102.717 415.723 104.683 416.29 106.55C416.857 108.383 417.723 109.883 418.89 111.05C420.057 112.217 421.523 112.8 423.29 112.8ZM441.138 122.9V112.1H443.188C443.988 112.1 444.655 111.917 445.188 111.55C445.721 111.15 446.238 110.283 446.738 108.95C447.105 107.95 447.421 106.85 447.688 105.65C447.988 104.45 448.238 103.117 448.438 101.65C448.638 100.15 448.805 98.5167 448.938 96.75C449.071 94.9833 449.171 93.05 449.238 90.95L444.838 91.15V89H466.938V90.5C465.905 90.5 465.188 90.7667 464.788 91.3C464.388 91.8 464.155 92.5167 464.088 93.45C464.021 94.35 463.988 95.4 463.988 96.6V108.7C463.955 109.367 463.921 109.967 463.888 110.5C463.855 111 463.788 111.533 463.688 112.1L468.238 111.9V122.9H466.338C466.338 120.167 466.055 118 465.488 116.4C464.955 114.8 463.855 114 462.188 114H447.238C445.605 114 444.488 114.783 443.888 116.35C443.321 117.95 443.038 120.133 443.038 122.9H441.138ZM447.688 112.1H456.638C457.671 112.1 458.388 111.85 458.788 111.35C459.221 110.817 459.471 110.1 459.538 109.2C459.638 108.267 459.688 107.2 459.688 106V94.3C459.688 93.6333 459.688 93.05 459.688 92.55C459.721 92.0167 459.771 91.4667 459.838 90.9H454.638C453.605 90.9 452.888 91.2 452.488 91.8C452.121 92.4 451.871 93.2167 451.738 94.25C451.571 96.4833 451.338 98.5833 451.038 100.55C450.771 102.483 450.488 104.2 450.188 105.7C449.921 107.167 449.638 108.317 449.338 109.15C449.105 109.783 448.855 110.35 448.588 110.85C448.321 111.317 448.021 111.733 447.688 112.1Z" fill="#F5F5F5"/>
<path d="M354.34 156C353.57 157.333 351.645 157.333 350.876 156L342.215 141H363L354.34 156Z" fill="#181818" fill-opacity="0.9"/>
</g>
<defs>
<filter id="filter0_d_589_3051" x="0" y="0" width="704" height="166" filterUnits="userSpaceOnUse" color-interpolation-filters="sRGB">
<feFlood flood-opacity="0" result="BackgroundImageFix"/>
<feColorMatrix in="SourceAlpha" type="matrix" values="0 0 0 0 0 0 0 0 0 0 0 0 0 0 0 0 0 0 127 0" result="hardAlpha"/>
<feOffset dy="2"/>
<feGaussianBlur stdDeviation="3.5"/>
<feComposite in2="hardAlpha" operator="out"/>
<feColorMatrix type="matrix" values="0 0 0 0 0 0 0 0 0 0 0 0 0 0 0 0 0 0 0.12 0"/>
<feBlend mode="normal" in2="BackgroundImageFix" result="effect1_dropShadow_589_3051"/>
<feBlend mode="normal" in="SourceGraphic" in2="effect1_dropShadow_589_3051" result="shape"/>
</filter>
</defs>
</svg>
