<svg width="704" height="258" viewBox="0 0 704 258" fill="none" xmlns="http://www.w3.org/2000/svg">
<path d="M77.107 202.6C77.007 201 76.6237 199.483 75.957 198.05C75.2904 196.617 74.3237 195.45 73.057 194.55C71.7904 193.65 70.1737 193.2 68.207 193.2C66.1404 193.2 64.557 193.783 63.457 194.95C62.357 196.117 61.807 197.483 61.807 199.05C61.807 200.45 62.207 201.633 63.007 202.6C63.807 203.533 64.8404 204.367 66.107 205.1C67.407 205.8 68.7737 206.483 70.207 207.15C71.4737 207.717 72.7404 208.333 74.007 209C75.2737 209.633 76.4237 210.367 77.457 211.2C78.4904 212.033 79.307 213.033 79.907 214.2C80.5404 215.333 80.857 216.7 80.857 218.3C80.857 220.133 80.3904 221.767 79.457 223.2C78.557 224.633 77.2404 225.767 75.507 226.6C73.7737 227.4 71.657 227.8 69.157 227.8C67.657 227.8 66.107 227.583 64.507 227.15C62.907 226.717 61.4904 226.083 60.257 225.25L60.507 227.4H57.907L57.607 216.75H59.557C59.7237 219.683 60.7404 221.917 62.607 223.45C64.4737 224.95 66.7237 225.7 69.357 225.7C70.657 225.7 71.857 225.467 72.957 225C74.057 224.5 74.9237 223.783 75.557 222.85C76.2237 221.917 76.557 220.783 76.557 219.45C76.557 217.95 76.157 216.7 75.357 215.7C74.557 214.7 73.5237 213.833 72.257 213.1C70.9904 212.367 69.6404 211.667 68.207 211C66.9404 210.433 65.6904 209.833 64.457 209.2C63.2237 208.567 62.0904 207.85 61.057 207.05C60.057 206.217 59.2404 205.233 58.607 204.1C58.007 202.967 57.707 201.6 57.707 200C57.707 199.133 57.857 198.2 58.157 197.2C58.457 196.2 58.9737 195.25 59.707 194.35C60.4737 193.417 61.507 192.667 62.807 192.1C64.1404 191.5 65.8237 191.2 67.857 191.2C69.1237 191.2 70.5404 191.383 72.107 191.75C73.707 192.083 75.1904 192.75 76.557 193.75L76.357 191.6H78.907V202.6H77.107ZM96.9809 227.8C96.2142 227.8 95.4309 227.683 94.6309 227.45C93.8309 227.25 93.0809 226.833 92.3809 226.2C91.7142 225.567 91.1809 224.65 90.7809 223.45C90.3809 222.217 90.1809 220.6 90.1809 218.6L90.2809 204.1L86.4309 204.15V202C87.2975 201.967 88.1809 201.65 89.0809 201.05C89.9809 200.417 90.7809 199.567 91.4809 198.5C92.2142 197.433 92.7142 196.267 92.9809 195H94.6809V202H103.081V203.95L94.6809 204.05L94.5809 217.95C94.5809 219.45 94.6975 220.733 94.9309 221.8C95.1975 222.833 95.6142 223.617 96.1809 224.15C96.7475 224.683 97.4809 224.95 98.3809 224.95C99.3142 224.95 100.181 224.683 100.981 224.15C101.814 223.617 102.548 222.883 103.181 221.95L104.531 223.05C103.798 224.15 103.064 225.017 102.331 225.65C101.631 226.283 100.948 226.75 100.281 227.05C99.6142 227.383 98.9975 227.583 98.4309 227.65C97.8642 227.75 97.3809 227.8 96.9809 227.8ZM119.967 227.8C118.167 227.8 116.65 227.467 115.417 226.8C114.217 226.133 113.3 225 112.667 223.4C112.067 221.8 111.767 219.633 111.767 216.9V208C111.767 207.467 111.767 206.933 111.767 206.4C111.8 205.867 111.867 205.317 111.967 204.75C111.4 204.783 110.817 204.817 110.217 204.85C109.65 204.85 109.083 204.867 108.517 204.9V202.85H110.067C111.5 202.85 112.533 202.717 113.167 202.45C113.833 202.15 114.35 201.833 114.717 201.5H116.167V216.75C116.167 219.617 116.567 221.767 117.367 223.2C118.2 224.6 119.6 225.283 121.567 225.25C122.833 225.217 124.033 224.833 125.167 224.1C126.333 223.333 127.267 222.433 127.967 221.4V208.55C127.967 207.75 127.983 207.067 128.017 206.5C128.05 205.9 128.117 205.317 128.217 204.75C127.617 204.783 127.017 204.817 126.417 204.85C125.817 204.85 125.217 204.867 124.617 204.9V202.85H126.167C127.6 202.85 128.633 202.717 129.267 202.45C129.933 202.15 130.45 201.833 130.817 201.5H132.267L132.217 220.4C132.217 220.933 132.2 221.683 132.167 222.65C132.133 223.617 132.083 224.433 132.017 225.1C132.617 225.067 133.217 225.033 133.817 225C134.417 224.967 135.017 224.933 135.617 224.9V227H128.467C128.367 226.433 128.283 225.9 128.217 225.4C128.183 224.9 128.15 224.433 128.117 224C127.083 225.033 125.833 225.933 124.367 226.7C122.9 227.433 121.433 227.8 119.967 227.8ZM152.451 227.8C150.417 227.8 148.584 227.3 146.951 226.3C145.317 225.267 144.017 223.8 143.051 221.9C142.117 220 141.651 217.767 141.651 215.2C141.651 212.467 142.201 210.05 143.301 207.95C144.401 205.85 145.917 204.2 147.851 203C149.817 201.8 152.034 201.2 154.501 201.2C155.601 201.2 156.684 201.35 157.751 201.65C158.851 201.917 159.717 202.233 160.351 202.6V195.75C160.351 195.217 160.351 194.717 160.351 194.25C160.384 193.75 160.434 193.167 160.501 192.5C159.901 192.533 159.301 192.567 158.701 192.6C158.134 192.633 157.551 192.667 156.951 192.7V190.6C158.417 190.6 159.551 190.533 160.351 190.4C161.151 190.267 161.751 190.1 162.151 189.9C162.584 189.7 162.917 189.483 163.151 189.25H164.601V221.7C164.601 222.233 164.584 222.767 164.551 223.3C164.517 223.833 164.467 224.433 164.401 225.1C165.001 225.067 165.584 225.033 166.151 225C166.751 224.967 167.351 224.933 167.951 224.9V227H160.801C160.701 226.5 160.617 226.05 160.551 225.65C160.517 225.217 160.484 224.8 160.451 224.4C159.517 225.433 158.367 226.267 157.001 226.9C155.634 227.5 154.117 227.8 152.451 227.8ZM154.251 225.35C155.351 225.35 156.451 225.033 157.551 224.4C158.684 223.767 159.617 222.983 160.351 222.05C160.317 221.65 160.301 221.233 160.301 220.8C160.301 220.333 160.301 219.833 160.301 219.3L160.351 204.9C159.551 204.3 158.667 203.867 157.701 203.6C156.767 203.3 155.801 203.15 154.801 203.15C153.134 203.15 151.684 203.633 150.451 204.6C149.217 205.567 148.284 206.917 147.651 208.65C147.017 210.383 146.734 212.417 146.801 214.75C146.867 216.783 147.184 218.6 147.751 220.2C148.351 221.8 149.184 223.067 150.251 224C151.351 224.9 152.684 225.35 154.251 225.35ZM177.691 240.55C176.657 240.55 175.774 240.3 175.041 239.8C174.307 239.3 173.941 238.533 173.941 237.5C173.941 236.9 174.141 236.35 174.541 235.85C174.941 235.35 175.457 235.1 176.091 235.1C176.891 235.067 177.424 235.317 177.691 235.85C177.991 236.383 178.141 236.85 178.141 237.25C178.141 237.35 178.141 237.45 178.141 237.55C178.141 237.683 178.124 237.817 178.091 237.95C178.191 238.017 178.374 238.05 178.641 238.05C179.041 238.05 179.474 237.883 179.941 237.55C180.407 237.217 180.824 236.733 181.191 236.1C181.624 235.367 182.124 234.267 182.691 232.8C183.291 231.333 183.957 229.583 184.691 227.55L176.891 210.85C176.024 208.983 175.391 207.5 174.991 206.4C174.624 205.3 174.374 204.483 174.241 203.95L171.841 204.05V202H182.191V203.5H181.991C180.591 203.6 179.824 204.133 179.691 205.1C179.557 206.033 179.941 207.467 180.841 209.4L186.691 221.95C187.457 219.817 188.191 217.717 188.891 215.65C189.591 213.55 190.291 211.467 190.991 209.4C191.257 208.667 191.524 207.917 191.791 207.15C192.091 206.35 192.374 205.65 192.641 205.05C192.941 204.417 193.207 204.017 193.441 203.85L189.991 204.05V202H197.841V203.5C196.607 203.967 195.674 204.75 195.041 205.85C194.441 206.917 193.824 208.3 193.191 210L186.941 227.45C185.941 230.25 185.024 232.617 184.191 234.55C183.357 236.517 182.441 238 181.441 239C180.441 240.033 179.191 240.55 177.691 240.55ZM226.991 227.15L220.441 207.95C220.208 207.25 219.991 206.65 219.791 206.15C219.625 205.65 219.491 205.217 219.391 204.85C219.291 204.483 219.208 204.167 219.141 203.9L216.491 204.05V202H227.091V203.5C225.591 203.533 224.758 204.05 224.591 205.05C224.458 206.017 224.658 207.3 225.191 208.9L227.491 215.9C227.758 216.7 228.025 217.517 228.291 218.35C228.558 219.15 228.825 219.95 229.091 220.75C229.391 219.85 229.691 218.95 229.991 218.05C230.325 217.117 230.641 216.183 230.941 215.25L235.391 202H237.441L242.491 216.55C242.758 217.283 243.025 218.033 243.291 218.8C243.558 219.567 243.825 220.333 244.091 221.1C244.358 220.367 244.608 219.65 244.841 218.95C245.108 218.217 245.358 217.483 245.591 216.75L248.891 207.25C249.125 206.583 249.358 205.95 249.591 205.35C249.825 204.75 250.091 204.267 250.391 203.9L247.491 204.05V202H256.191V203.5C255.325 203.533 254.608 203.65 254.041 203.85C253.508 204.05 253.058 204.317 252.691 204.65C252.325 204.983 252.025 205.383 251.791 205.85C251.558 206.317 251.341 206.85 251.141 207.45L243.941 227.15H241.941L237.191 213.5C236.991 212.9 236.791 212.317 236.591 211.75C236.391 211.15 236.191 210.567 235.991 210C235.791 209.4 235.591 208.817 235.391 208.25C235.191 208.817 234.991 209.4 234.791 210C234.591 210.567 234.391 211.15 234.191 211.75C233.991 212.317 233.791 212.9 233.591 213.5L228.891 227.15H226.991ZM260.93 225.5C261.964 225.5 262.68 225.25 263.08 224.75C263.48 224.217 263.714 223.5 263.78 222.6C263.847 221.667 263.88 220.6 263.88 219.4V208C263.88 207.467 263.897 206.967 263.93 206.5C263.964 206 264.014 205.417 264.08 204.75C263.48 204.783 262.88 204.817 262.28 204.85C261.714 204.883 261.13 204.917 260.53 204.95V202.85C261.997 202.85 263.13 202.783 263.93 202.65C264.73 202.517 265.33 202.35 265.73 202.15C266.164 201.95 266.497 201.733 266.73 201.5H268.18V221.7C268.18 222.367 268.164 222.967 268.13 223.5C268.13 224 268.08 224.533 267.98 225.1C268.514 225.067 269.03 225.05 269.53 225.05C270.064 225.017 270.597 224.983 271.13 224.95V227H260.93V225.5ZM265.78 196.55C265.08 196.55 264.464 196.267 263.93 195.7C263.397 195.133 263.13 194.433 263.13 193.6C263.13 192.767 263.397 192.067 263.93 191.5C264.497 190.9 265.13 190.6 265.83 190.6C266.597 190.6 267.23 190.9 267.73 191.5C268.264 192.067 268.53 192.767 268.53 193.6C268.53 194.433 268.247 195.133 267.68 195.7C267.147 196.267 266.514 196.55 265.78 196.55ZM287.674 227.8C286.908 227.8 286.124 227.683 285.324 227.45C284.524 227.25 283.774 226.833 283.074 226.2C282.408 225.567 281.874 224.65 281.474 223.45C281.074 222.217 280.874 220.6 280.874 218.6L280.974 204.1L277.124 204.15V202C277.991 201.967 278.874 201.65 279.774 201.05C280.674 200.417 281.474 199.567 282.174 198.5C282.908 197.433 283.408 196.267 283.674 195H285.374V202H293.774V203.95L285.374 204.05L285.274 217.95C285.274 219.45 285.391 220.733 285.624 221.8C285.891 222.833 286.308 223.617 286.874 224.15C287.441 224.683 288.174 224.95 289.074 224.95C290.008 224.95 290.874 224.683 291.674 224.15C292.508 223.617 293.241 222.883 293.874 221.95L295.224 223.05C294.491 224.15 293.758 225.017 293.024 225.65C292.324 226.283 291.641 226.75 290.974 227.05C290.308 227.383 289.691 227.583 289.124 227.65C288.558 227.75 288.074 227.8 287.674 227.8ZM316.16 225.5C317.193 225.5 317.91 225.25 318.31 224.75C318.71 224.217 318.943 223.5 319.01 222.6C319.077 221.667 319.11 220.6 319.11 219.4V212.4C319.11 209.533 318.643 207.383 317.71 205.95C316.81 204.517 315.377 203.817 313.41 203.85C312.177 203.883 310.96 204.183 309.76 204.75C308.593 205.317 307.643 206.05 306.91 206.95V221.7C306.91 222.367 306.893 222.967 306.86 223.5C306.827 224 306.76 224.533 306.66 225.1C307.193 225.067 307.71 225.05 308.21 225.05C308.743 225.017 309.277 224.983 309.81 224.95V227H299.61V225.5C300.643 225.5 301.36 225.25 301.76 224.75C302.16 224.217 302.393 223.5 302.46 222.6C302.56 221.667 302.61 220.6 302.61 219.4V195.75C302.61 195.217 302.61 194.717 302.61 194.25C302.643 193.75 302.693 193.167 302.76 192.5C302.16 192.533 301.56 192.567 300.96 192.6C300.393 192.633 299.81 192.667 299.21 192.7V190.6C300.677 190.6 301.81 190.533 302.61 190.4C303.443 190.267 304.06 190.1 304.46 189.9C304.893 189.7 305.227 189.483 305.46 189.25H306.91V204.5C307.643 203.867 308.46 203.317 309.36 202.85C310.293 202.35 311.243 201.95 312.21 201.65C313.21 201.35 314.177 201.2 315.11 201.2C318.01 201.2 320.093 202.117 321.36 203.95C322.66 205.75 323.327 208.567 323.36 212.4L323.41 221.7C323.41 222.367 323.393 222.967 323.36 223.5C323.36 224 323.31 224.533 323.21 225.1C323.743 225.067 324.26 225.05 324.76 225.05C325.293 225.017 325.827 224.983 326.36 224.95V227H316.16V225.5ZM344.942 227.8C342.608 227.8 340.492 227.267 338.592 226.2C336.692 225.1 335.175 223.6 334.042 221.7C332.942 219.767 332.392 217.567 332.392 215.1C332.392 212.467 332.942 210.1 334.042 208C335.142 205.9 336.642 204.25 338.542 203.05C340.442 201.817 342.575 201.2 344.942 201.2C347.275 201.2 349.392 201.767 351.292 202.9C353.192 204 354.708 205.5 355.842 207.4C356.975 209.3 357.542 211.467 357.542 213.9C357.542 216.467 356.975 218.817 355.842 220.95C354.742 223.05 353.242 224.717 351.342 225.95C349.442 227.183 347.308 227.8 344.942 227.8ZM345.342 225.8C347.108 225.8 348.508 225.3 349.542 224.3C350.575 223.3 351.308 222 351.742 220.4C352.208 218.8 352.442 217.117 352.442 215.35C352.442 213.85 352.292 212.383 351.992 210.95C351.725 209.483 351.292 208.167 350.692 207C350.092 205.8 349.308 204.85 348.342 204.15C347.408 203.45 346.275 203.1 344.942 203.1C343.208 203.1 341.792 203.6 340.692 204.6C339.592 205.6 338.775 206.9 338.242 208.5C337.742 210.1 337.492 211.817 337.492 213.65C337.492 215.717 337.775 217.683 338.342 219.55C338.908 221.383 339.775 222.883 340.942 224.05C342.108 225.217 343.575 225.8 345.342 225.8ZM374.84 227.8C373.04 227.8 371.523 227.467 370.29 226.8C369.09 226.133 368.173 225 367.54 223.4C366.94 221.8 366.64 219.633 366.64 216.9V208C366.64 207.467 366.64 206.933 366.64 206.4C366.673 205.867 366.74 205.317 366.84 204.75C366.273 204.783 365.69 204.817 365.09 204.85C364.523 204.85 363.957 204.867 363.39 204.9V202.85H364.94C366.373 202.85 367.407 202.717 368.04 202.45C368.707 202.15 369.223 201.833 369.59 201.5H371.04V216.75C371.04 219.617 371.44 221.767 372.24 223.2C373.073 224.6 374.473 225.283 376.44 225.25C377.707 225.217 378.907 224.833 380.04 224.1C381.207 223.333 382.14 222.433 382.84 221.4V208.55C382.84 207.75 382.857 207.067 382.89 206.5C382.923 205.9 382.99 205.317 383.09 204.75C382.49 204.783 381.89 204.817 381.29 204.85C380.69 204.85 380.09 204.867 379.49 204.9V202.85H381.04C382.473 202.85 383.507 202.717 384.14 202.45C384.807 202.15 385.323 201.833 385.69 201.5H387.14L387.09 220.4C387.09 220.933 387.073 221.683 387.04 222.65C387.007 223.617 386.957 224.433 386.89 225.1C387.49 225.067 388.09 225.033 388.69 225C389.29 224.967 389.89 224.933 390.49 224.9V227H383.34C383.24 226.433 383.157 225.9 383.09 225.4C383.057 224.9 383.023 224.433 382.99 224C381.957 225.033 380.707 225.933 379.24 226.7C377.773 227.433 376.307 227.8 374.84 227.8ZM406.024 227.8C405.257 227.8 404.474 227.683 403.674 227.45C402.874 227.25 402.124 226.833 401.424 226.2C400.757 225.567 400.224 224.65 399.824 223.45C399.424 222.217 399.224 220.6 399.224 218.6L399.324 204.1L395.474 204.15V202C396.34 201.967 397.224 201.65 398.124 201.05C399.024 200.417 399.824 199.567 400.524 198.5C401.257 197.433 401.757 196.267 402.024 195H403.724V202H412.124V203.95L403.724 204.05L403.624 217.95C403.624 219.45 403.74 220.733 403.974 221.8C404.24 222.833 404.657 223.617 405.224 224.15C405.79 224.683 406.524 224.95 407.424 224.95C408.357 224.95 409.224 224.683 410.024 224.15C410.857 223.617 411.59 222.883 412.224 221.95L413.574 223.05C412.84 224.15 412.107 225.017 411.374 225.65C410.674 226.283 409.99 226.75 409.324 227.05C408.657 227.383 408.04 227.583 407.474 227.65C406.907 227.75 406.424 227.8 406.024 227.8ZM444.795 227.8C442.761 227.8 440.928 227.3 439.295 226.3C437.661 225.267 436.361 223.8 435.395 221.9C434.461 220 433.995 217.767 433.995 215.2C433.995 212.467 434.545 210.05 435.645 207.95C436.745 205.85 438.261 204.2 440.195 203C442.161 201.8 444.378 201.2 446.845 201.2C447.945 201.2 449.028 201.35 450.095 201.65C451.195 201.917 452.061 202.233 452.695 202.6V195.75C452.695 195.217 452.695 194.717 452.695 194.25C452.728 193.75 452.778 193.167 452.845 192.5C452.245 192.533 451.645 192.567 451.045 192.6C450.478 192.633 449.895 192.667 449.295 192.7V190.6C450.761 190.6 451.895 190.533 452.695 190.4C453.495 190.267 454.095 190.1 454.495 189.9C454.928 189.7 455.261 189.483 455.495 189.25H456.945V221.7C456.945 222.233 456.928 222.767 456.895 223.3C456.861 223.833 456.811 224.433 456.745 225.1C457.345 225.067 457.928 225.033 458.495 225C459.095 224.967 459.695 224.933 460.295 224.9V227H453.145C453.045 226.5 452.961 226.05 452.895 225.65C452.861 225.217 452.828 224.8 452.795 224.4C451.861 225.433 450.711 226.267 449.345 226.9C447.978 227.5 446.461 227.8 444.795 227.8ZM446.595 225.35C447.695 225.35 448.795 225.033 449.895 224.4C451.028 223.767 451.961 222.983 452.695 222.05C452.661 221.65 452.645 221.233 452.645 220.8C452.645 220.333 452.645 219.833 452.645 219.3L452.695 204.9C451.895 204.3 451.011 203.867 450.045 203.6C449.111 203.3 448.145 203.15 447.145 203.15C445.478 203.15 444.028 203.633 442.795 204.6C441.561 205.567 440.628 206.917 439.995 208.65C439.361 210.383 439.078 212.417 439.145 214.75C439.211 216.783 439.528 218.6 440.095 220.2C440.695 221.8 441.528 223.067 442.595 224C443.695 224.9 445.028 225.35 446.595 225.35ZM466.477 225.5C467.511 225.5 468.227 225.25 468.627 224.75C469.027 224.217 469.261 223.5 469.327 222.6C469.394 221.667 469.427 220.6 469.427 219.4V208C469.427 207.467 469.444 206.967 469.477 206.5C469.511 206 469.561 205.417 469.627 204.75C469.027 204.783 468.427 204.817 467.827 204.85C467.261 204.883 466.677 204.917 466.077 204.95V202.85C467.544 202.85 468.677 202.783 469.477 202.65C470.277 202.517 470.877 202.35 471.277 202.15C471.711 201.95 472.044 201.733 472.277 201.5H473.727V221.7C473.727 222.367 473.711 222.967 473.677 223.5C473.677 224 473.627 224.533 473.527 225.1C474.061 225.067 474.577 225.05 475.077 225.05C475.611 225.017 476.144 224.983 476.677 224.95V227H466.477V225.5ZM471.327 196.55C470.627 196.55 470.011 196.267 469.477 195.7C468.944 195.133 468.677 194.433 468.677 193.6C468.677 192.767 468.944 192.067 469.477 191.5C470.044 190.9 470.677 190.6 471.377 190.6C472.144 190.6 472.777 190.9 473.277 191.5C473.811 192.067 474.077 192.767 474.077 193.6C474.077 194.433 473.794 195.133 473.227 195.7C472.694 196.267 472.061 196.55 471.327 196.55ZM486.19 200.95C486.19 197.25 486.857 194.333 488.19 192.2C489.557 190.067 491.89 189 495.19 189C495.923 189 496.69 189.133 497.49 189.4C498.323 189.633 499.04 190.033 499.64 190.6C500.24 191.133 500.54 191.833 500.54 192.7C500.54 193.333 500.357 193.867 499.99 194.3C499.657 194.733 499.157 194.95 498.49 194.95C497.69 194.983 497.123 194.75 496.79 194.25C496.49 193.717 496.34 193.267 496.34 192.9C496.34 192.7 496.357 192.5 496.39 192.3C496.423 192.1 496.49 191.883 496.59 191.65C496.357 191.35 496.023 191.133 495.59 191C495.19 190.867 494.807 190.8 494.44 190.8C493.407 190.8 492.607 191.1 492.04 191.7C491.473 192.3 491.073 193.05 490.84 193.95C490.607 194.85 490.49 195.783 490.49 196.75V202H497.24V203.95L490.49 204.1L490.54 221.7C490.54 222.367 490.523 222.967 490.49 223.5C490.49 224 490.44 224.533 490.34 225.1C490.873 225.067 491.39 225.05 491.89 225.05C492.423 225.017 492.957 224.983 493.49 224.95V227H483.29V225.5C484.323 225.5 485.04 225.25 485.44 224.75C485.84 224.217 486.073 223.5 486.14 222.6C486.207 221.667 486.24 220.6 486.24 219.4L486.19 204.15L482.09 204.25V202H486.19V200.95ZM503.223 227V225.5C504.256 225.5 504.973 225.25 505.373 224.75C505.773 224.217 506.006 223.5 506.073 222.6C506.139 221.667 506.173 220.6 506.173 219.4L506.073 204.15L501.973 204.25V202H506.073C506.073 197.833 507.073 194.633 509.073 192.4C511.106 190.133 513.989 189 517.723 189C519.456 189 521.023 189.183 522.423 189.55C523.856 189.917 525.006 190.433 525.873 191.1C526.739 191.767 527.173 192.533 527.173 193.4C527.173 194.033 526.989 194.583 526.623 195.05C526.256 195.517 525.723 195.75 525.023 195.75C524.189 195.783 523.606 195.55 523.273 195.05C522.939 194.517 522.773 194.05 522.773 193.65C522.773 193.417 522.789 193.183 522.823 192.95C522.856 192.717 522.923 192.5 523.023 192.3C522.456 191.867 521.756 191.533 520.923 191.3C520.123 191.033 519.189 190.9 518.123 190.9C516.623 190.9 515.289 191.233 514.123 191.9C512.956 192.567 512.039 193.583 511.373 194.95C510.706 196.317 510.373 198.05 510.373 200.15V202H521.823C522.589 202 523.239 201.983 523.773 201.95C524.339 201.883 524.789 201.817 525.123 201.75C525.456 201.65 525.656 201.567 525.723 201.5H527.173V221.7C527.173 222.367 527.156 222.967 527.123 223.5C527.123 224 527.073 224.533 526.973 225.1C527.506 225.067 528.023 225.05 528.523 225.05C529.056 225.017 529.589 224.983 530.123 224.95V227H519.923V225.5C520.956 225.5 521.673 225.25 522.073 224.75C522.473 224.217 522.706 223.5 522.773 222.6C522.839 221.667 522.873 220.6 522.873 219.4V207C522.873 206.467 522.889 205.967 522.923 205.5C522.956 205 523.006 204.417 523.073 203.75L510.373 204.05L510.423 221.75C510.423 222.417 510.406 223 510.373 223.5C510.373 224 510.323 224.533 510.223 225.1C510.756 225.067 511.273 225.05 511.773 225.05C512.306 225.017 512.839 224.983 513.373 224.95V227H503.223ZM548.775 227.8C546.542 227.8 544.475 227.3 542.575 226.3C540.708 225.267 539.208 223.8 538.075 221.9C536.975 219.967 536.425 217.65 536.425 214.95C536.425 213.217 536.742 211.533 537.375 209.9C538.008 208.267 538.892 206.8 540.025 205.5C541.192 204.167 542.575 203.117 544.175 202.35C545.775 201.583 547.542 201.2 549.475 201.2C551.342 201.2 552.958 201.483 554.325 202.05C555.725 202.617 556.808 203.367 557.575 204.3C558.342 205.233 558.725 206.25 558.725 207.35C558.725 208.083 558.525 208.717 558.125 209.25C557.725 209.75 557.142 210 556.375 210C555.542 210.033 554.942 209.783 554.575 209.25C554.242 208.683 554.075 208.183 554.075 207.75C554.075 207.417 554.125 207.083 554.225 206.75C554.325 206.383 554.525 206.05 554.825 205.75C554.558 204.95 554.092 204.367 553.425 204C552.758 203.6 552.058 203.35 551.325 203.25C550.625 203.117 550.042 203.05 549.575 203.05C547.308 203.05 545.392 203.967 543.825 205.8C542.292 207.6 541.525 210.233 541.525 213.7C541.525 215.933 541.875 217.917 542.575 219.65C543.308 221.383 544.325 222.75 545.625 223.75C546.925 224.717 548.425 225.2 550.125 225.2C551.692 225.2 553.192 224.783 554.625 223.95C556.058 223.117 557.175 222.1 557.975 220.9L559.275 221.9C558.408 223.3 557.358 224.433 556.125 225.3C554.925 226.167 553.675 226.8 552.375 227.2C551.108 227.6 549.908 227.8 548.775 227.8ZM576.236 227.8C574.436 227.8 572.92 227.467 571.686 226.8C570.486 226.133 569.57 225 568.936 223.4C568.336 221.8 568.036 219.633 568.036 216.9V208C568.036 207.467 568.036 206.933 568.036 206.4C568.07 205.867 568.136 205.317 568.236 204.75C567.67 204.783 567.086 204.817 566.486 204.85C565.92 204.85 565.353 204.867 564.786 204.9V202.85H566.336C567.77 202.85 568.803 202.717 569.436 202.45C570.103 202.15 570.62 201.833 570.986 201.5H572.436V216.75C572.436 219.617 572.836 221.767 573.636 223.2C574.47 224.6 575.87 225.283 577.836 225.25C579.103 225.217 580.303 224.833 581.436 224.1C582.603 223.333 583.536 222.433 584.236 221.4V208.55C584.236 207.75 584.253 207.067 584.286 206.5C584.32 205.9 584.386 205.317 584.486 204.75C583.886 204.783 583.286 204.817 582.686 204.85C582.086 204.85 581.486 204.867 580.886 204.9V202.85H582.436C583.87 202.85 584.903 202.717 585.536 202.45C586.203 202.15 586.72 201.833 587.086 201.5H588.536L588.486 220.4C588.486 220.933 588.47 221.683 588.436 222.65C588.403 223.617 588.353 224.433 588.286 225.1C588.886 225.067 589.486 225.033 590.086 225C590.686 224.967 591.286 224.933 591.886 224.9V227H584.736C584.636 226.433 584.553 225.9 584.486 225.4C584.453 224.9 584.42 224.433 584.386 224C583.353 225.033 582.103 225.933 580.636 226.7C579.17 227.433 577.703 227.8 576.236 227.8ZM597.52 225.5C598.554 225.5 599.27 225.25 599.67 224.75C600.07 224.217 600.304 223.5 600.37 222.6C600.437 221.667 600.47 220.6 600.47 219.4V195.75C600.47 195.217 600.47 194.717 600.47 194.25C600.504 193.75 600.554 193.167 600.62 192.5C600.02 192.533 599.42 192.567 598.82 192.6C598.254 192.633 597.67 192.667 597.07 192.7V190.6C598.537 190.6 599.67 190.533 600.47 190.4C601.304 190.267 601.92 190.1 602.32 189.9C602.754 189.7 603.087 189.483 603.32 189.25H604.77L604.82 221.7C604.82 222.367 604.804 222.967 604.77 223.5C604.737 224 604.67 224.533 604.57 225.1C605.104 225.067 605.62 225.05 606.12 225.05C606.654 225.017 607.187 224.983 607.72 224.95V227H597.52V225.5ZM623.543 227.8C622.777 227.8 621.993 227.683 621.193 227.45C620.393 227.25 619.643 226.833 618.943 226.2C618.277 225.567 617.743 224.65 617.343 223.45C616.943 222.217 616.743 220.6 616.743 218.6L616.843 204.1L612.993 204.15V202C613.86 201.967 614.743 201.65 615.643 201.05C616.543 200.417 617.343 199.567 618.043 198.5C618.777 197.433 619.277 196.267 619.543 195H621.243V202H629.643V203.95L621.243 204.05L621.143 217.95C621.143 219.45 621.26 220.733 621.493 221.8C621.76 222.833 622.177 223.617 622.743 224.15C623.31 224.683 624.043 224.95 624.943 224.95C625.877 224.95 626.743 224.683 627.543 224.15C628.377 223.617 629.11 222.883 629.743 221.95L631.093 223.05C630.36 224.15 629.627 225.017 628.893 225.65C628.193 226.283 627.51 226.75 626.843 227.05C626.177 227.383 625.56 227.583 624.993 227.65C624.427 227.75 623.943 227.8 623.543 227.8ZM639.927 240.55C638.894 240.55 638.01 240.3 637.277 239.8C636.544 239.3 636.177 238.533 636.177 237.5C636.177 236.9 636.377 236.35 636.777 235.85C637.177 235.35 637.694 235.1 638.327 235.1C639.127 235.067 639.66 235.317 639.927 235.85C640.227 236.383 640.377 236.85 640.377 237.25C640.377 237.35 640.377 237.45 640.377 237.55C640.377 237.683 640.36 237.817 640.327 237.95C640.427 238.017 640.61 238.05 640.877 238.05C641.277 238.05 641.71 237.883 642.177 237.55C642.644 237.217 643.06 236.733 643.427 236.1C643.86 235.367 644.36 234.267 644.927 232.8C645.527 231.333 646.194 229.583 646.927 227.55L639.127 210.85C638.26 208.983 637.627 207.5 637.227 206.4C636.86 205.3 636.61 204.483 636.477 203.95L634.077 204.05V202H644.427V203.5H644.227C642.827 203.6 642.06 204.133 641.927 205.1C641.794 206.033 642.177 207.467 643.077 209.4L648.927 221.95C649.694 219.817 650.427 217.717 651.127 215.65C651.827 213.55 652.527 211.467 653.227 209.4C653.494 208.667 653.76 207.917 654.027 207.15C654.327 206.35 654.61 205.65 654.877 205.05C655.177 204.417 655.444 204.017 655.677 203.85L652.227 204.05V202H660.077V203.5C658.844 203.967 657.91 204.75 657.277 205.85C656.677 206.917 656.06 208.3 655.427 210L649.177 227.45C648.177 230.25 647.26 232.617 646.427 234.55C645.594 236.517 644.677 238 643.677 239C642.677 240.033 641.427 240.55 639.927 240.55Z" fill="black"/>
<g filter="url(#filter0_d_662_1803)">
<rect x="7" y="5" width="690" height="136" rx="4" fill="#181818" fill-opacity="0.9" shape-rendering="crispEdges"/>
<path d="M150.835 57.65C149.602 57.6833 148.735 57.9667 148.235 58.5C147.768 59.0333 147.502 59.75 147.435 60.65C147.402 61.55 147.385 62.6 147.385 63.8V85.05C147.385 85.95 147.368 86.7333 147.335 87.4C147.335 88.0333 147.302 88.5667 147.235 89C147.835 88.9667 148.435 88.9333 149.035 88.9C149.635 88.8667 150.235 88.8333 150.835 88.8V91H139.585V89.35C140.852 89.2833 141.718 89 142.185 88.5C142.652 87.9667 142.902 87.25 142.935 86.35C143.002 85.4167 143.035 84.3667 143.035 83.2V61.6C143.035 60.9333 143.052 60.3 143.085 59.7C143.118 59.0667 143.152 58.5 143.185 58C142.585 58.0333 141.985 58.0667 141.385 58.1C140.785 58.1333 140.185 58.1667 139.585 58.2V56H150.835V57.65ZM173.585 57.65C172.352 57.6833 171.485 57.9667 170.985 58.5C170.518 59.0333 170.252 59.75 170.185 60.65C170.152 61.55 170.135 62.6 170.135 63.8V85.05C170.135 85.95 170.118 86.7333 170.085 87.4C170.085 88.0333 170.052 88.5667 169.985 89C170.585 88.9667 171.185 88.9333 171.785 88.9C172.385 88.8667 172.985 88.8333 173.585 88.8V91H162.335V89.35C163.602 89.2833 164.468 89 164.935 88.5C165.402 87.9667 165.652 87.25 165.685 86.35C165.752 85.4167 165.785 84.3667 165.785 83.2V61.6C165.785 60.9333 165.802 60.3 165.835 59.7C165.868 59.0667 165.902 58.5 165.935 58C165.335 58.0333 164.735 58.0667 164.135 58.1C163.535 58.1333 162.935 58.1667 162.335 58.2V56H173.585V57.65ZM167.035 58.45L168.435 59.8L145.535 88.4L143.985 86.95L167.035 58.45ZM190.237 91.8C188.07 91.8 186.237 91.5167 184.737 90.95C183.27 90.3833 182.154 89.6833 181.387 88.85C180.654 87.9833 180.287 87.1 180.287 86.2C180.287 85.3667 180.487 84.6667 180.887 84.1C181.287 83.5333 181.854 83.25 182.587 83.25C183.454 83.2167 184.054 83.4833 184.387 84.05C184.754 84.5833 184.937 85.0667 184.937 85.5C184.937 85.8333 184.87 86.1833 184.737 86.55C184.637 86.8833 184.437 87.2 184.137 87.5C184.604 88.5 185.404 89.1833 186.537 89.55C187.704 89.8833 188.837 90.05 189.937 90.05C191.404 90.05 192.704 89.6333 193.837 88.8C194.97 87.9333 195.537 86.55 195.537 84.65C195.537 82.6833 194.92 81.2833 193.687 80.45C192.454 79.5833 191.004 79.15 189.337 79.15H187.087V77.3H189.137C190.404 77.3 191.404 77.0667 192.137 76.6C192.904 76.1333 193.454 75.5 193.787 74.7C194.154 73.8667 194.337 72.9333 194.337 71.9C194.337 70.4 193.954 69.2167 193.187 68.35C192.42 67.4833 191.32 67.05 189.887 67.05C188.52 67.05 187.37 67.4167 186.437 68.15C185.504 68.85 184.77 69.75 184.237 70.85C183.737 71.9167 183.454 73.0333 183.387 74.2H181.787V65.45H183.887L183.787 67.35C184.82 66.5167 185.92 65.95 187.087 65.65C188.287 65.35 189.42 65.2 190.487 65.2C192.887 65.2 194.887 65.7833 196.487 66.95C198.12 68.0833 198.937 69.6333 198.937 71.6C198.937 73.0333 198.47 74.3167 197.537 75.45C196.637 76.55 195.32 77.3333 193.587 77.8C195.587 77.9667 197.204 78.6333 198.437 79.8C199.704 80.9333 200.337 82.4333 200.337 84.3C200.337 85.8 199.904 87.1167 199.037 88.25C198.204 89.35 197.02 90.2167 195.487 90.85C193.987 91.4833 192.237 91.8 190.237 91.8ZM210.336 104.55C209.303 104.55 208.419 104.3 207.686 103.8C206.953 103.3 206.586 102.533 206.586 101.5C206.586 100.9 206.786 100.35 207.186 99.85C207.586 99.35 208.103 99.1 208.736 99.1C209.536 99.0667 210.069 99.3167 210.336 99.85C210.636 100.383 210.786 100.85 210.786 101.25C210.786 101.35 210.786 101.45 210.786 101.55C210.786 101.683 210.769 101.817 210.736 101.95C210.836 102.017 211.019 102.05 211.286 102.05C211.686 102.05 212.119 101.883 212.586 101.55C213.053 101.217 213.469 100.733 213.836 100.1C214.269 99.3667 214.769 98.2667 215.336 96.8C215.936 95.3333 216.603 93.5833 217.336 91.55L209.536 74.85C208.669 72.9833 208.036 71.5 207.636 70.4C207.269 69.3 207.019 68.4833 206.886 67.95L204.486 68.05V66H214.836V67.5H214.636C213.236 67.6 212.469 68.1333 212.336 69.1C212.203 70.0333 212.586 71.4667 213.486 73.4L219.336 85.95C220.103 83.8167 220.836 81.7167 221.536 79.65C222.236 77.55 222.936 75.4667 223.636 73.4C223.903 72.6667 224.169 71.9167 224.436 71.15C224.736 70.35 225.019 69.65 225.286 69.05C225.586 68.4167 225.853 68.0167 226.086 67.85L222.636 68.05V66H230.486V67.5C229.253 67.9667 228.319 68.75 227.686 69.85C227.086 70.9167 226.469 72.3 225.836 74L219.586 91.45C218.586 94.25 217.669 96.6167 216.836 98.55C216.003 100.517 215.086 102 214.086 103C213.086 104.033 211.836 104.55 210.336 104.55ZM248.652 91V89.5C249.685 89.5 250.402 89.25 250.802 88.75C251.202 88.2167 251.435 87.5 251.502 86.6C251.569 85.6667 251.602 84.6 251.602 83.4V80.55C250.635 80.7833 249.635 80.9667 248.602 81.1C247.569 81.2 246.685 81.25 245.952 81.25C242.819 81.25 240.535 80.45 239.102 78.85C237.702 77.2167 237.002 74.85 237.002 71.75C237.002 71.0833 237.019 70.4 237.052 69.7C237.085 68.9667 237.135 68.3667 237.202 67.9L234.052 68.05V66H244.252V67.5C243.119 67.5 242.352 67.9 241.952 68.7C241.552 69.4667 241.335 70.9167 241.302 73.05C241.302 74.7167 241.752 76.0833 242.652 77.15C243.585 78.1833 244.985 78.7 246.852 78.7C247.519 78.7 248.269 78.65 249.102 78.55C249.969 78.45 250.802 78.3 251.602 78.1L251.652 71.3C251.652 70.6333 251.652 70.05 251.652 69.55C251.685 69.0167 251.752 68.4667 251.852 67.9L248.702 68.05V66H258.902V67.5C257.902 67.5 257.202 67.7667 256.802 68.3C256.402 68.8 256.169 69.5167 256.102 70.45C256.035 71.35 255.985 72.4 255.952 73.6L255.902 85.7C255.902 86.3667 255.885 86.9667 255.852 87.5C255.852 88 255.802 88.5333 255.702 89.1L258.852 88.95V91H248.652ZM280.983 91C280.883 90.4333 280.816 89.9333 280.783 89.5C280.75 89.0667 280.7 88.6167 280.633 88.15C279.5 89.2833 278.266 90.1833 276.933 90.85C275.633 91.4833 274.25 91.8 272.783 91.8C270.25 91.8 268.366 91.2333 267.133 90.1C265.9 88.9333 265.283 87.5167 265.283 85.85C265.283 84.3167 265.75 83 266.683 81.9C267.65 80.7667 268.883 79.85 270.383 79.15C271.916 78.4167 273.566 77.8833 275.333 77.55C277.133 77.1833 278.866 77.0167 280.533 77.05V73.95C280.533 72.7833 280.433 71.6833 280.233 70.65C280.033 69.6167 279.6 68.7667 278.933 68.1C278.266 67.4333 277.2 67.0833 275.733 67.05C274.766 67.0167 273.766 67.2 272.733 67.6C271.733 68 271 68.6833 270.533 69.65C270.8 69.9167 270.966 70.2333 271.033 70.6C271.133 70.9333 271.183 71.25 271.183 71.55C271.183 71.95 271.016 72.4167 270.683 72.95C270.35 73.45 269.766 73.6833 268.933 73.65C268.233 73.65 267.7 73.4167 267.333 72.95C266.966 72.45 266.783 71.8667 266.783 71.2C266.783 70.0667 267.2 69.05 268.033 68.15C268.9 67.25 270.083 66.5333 271.583 66C273.083 65.4667 274.783 65.2 276.683 65.2C279.483 65.2 281.55 65.95 282.883 67.45C284.216 68.9167 284.866 71.25 284.833 74.45C284.833 75.6833 284.833 76.9333 284.833 78.2C284.833 79.4333 284.816 80.6833 284.783 81.95C284.783 83.1833 284.783 84.4333 284.783 85.7C284.783 86.2333 284.766 86.7667 284.733 87.3C284.7 87.8333 284.65 88.4333 284.583 89.1C285.183 89.0667 285.766 89.0333 286.333 89C286.933 88.9667 287.533 88.9333 288.133 88.9V91H280.983ZM280.533 78.75C279.4 78.7833 278.2 78.9333 276.933 79.2C275.7 79.4333 274.55 79.8 273.483 80.3C272.45 80.8 271.6 81.4667 270.933 82.3C270.3 83.1 270 84.0833 270.033 85.25C270.1 86.4833 270.5 87.4167 271.233 88.05C272 88.65 272.9 88.95 273.933 88.95C275.3 88.95 276.483 88.7 277.483 88.2C278.516 87.6667 279.533 86.9333 280.533 86C280.5 85.6333 280.483 85.2333 280.483 84.8C280.483 84.3667 280.483 83.9167 280.483 83.45C280.483 83.2833 280.483 82.75 280.483 81.85C280.516 80.95 280.533 79.9167 280.533 78.75ZM304.364 67.5C303.331 67.5 302.614 67.7667 302.214 68.3C301.814 68.8 301.581 69.5167 301.514 70.45C301.448 71.35 301.398 72.4 301.364 73.6L301.314 85.7C301.314 86.3667 301.298 86.9667 301.264 87.5C301.264 88 301.214 88.5333 301.114 89.1C301.648 89.0667 302.164 89.05 302.664 89.05C303.198 89.0167 303.731 88.9833 304.264 88.95V91H294.064V89.5C295.098 89.5 295.814 89.25 296.214 88.75C296.614 88.2167 296.848 87.5 296.914 86.6C297.014 85.6667 297.064 84.6 297.064 83.4V71.3C297.064 70.6333 297.064 70.05 297.064 69.55C297.098 69.0167 297.164 68.4667 297.264 67.9C296.731 67.9333 296.198 67.9667 295.664 68C295.164 68 294.648 68.0167 294.114 68.05V66H304.364V67.5ZM314.164 68.4L315.764 69.6L300.414 88.85L298.714 87.45L314.164 68.4ZM321.014 67.5C320.014 67.5 319.298 67.7667 318.864 68.3C318.464 68.8 318.231 69.5167 318.164 70.45C318.098 71.35 318.064 72.4 318.064 73.6L317.964 85.7C317.964 86.3667 317.948 86.9667 317.914 87.5C317.914 88 317.881 88.5333 317.814 89.1C318.348 89.0667 318.864 89.05 319.364 89.05C319.898 89.0167 320.431 88.9833 320.964 88.95V91H310.714V89.5C311.748 89.5 312.464 89.25 312.864 88.75C313.264 88.2167 313.498 87.5 313.564 86.6C313.664 85.6667 313.714 84.6 313.714 83.4L313.764 71.3C313.764 70.6333 313.764 70.05 313.764 69.55C313.798 69.0167 313.864 68.4667 313.964 67.9C313.431 67.9333 312.898 67.9667 312.364 68C311.864 68 311.348 68.0167 310.814 68.05V66H321.014V67.5ZM307.564 62.15C305.631 62.15 303.981 61.7667 302.614 61C301.248 60.2 300.564 59.1333 300.564 57.8C300.564 57.2 300.731 56.6833 301.064 56.25C301.398 55.7833 301.881 55.5333 302.514 55.5C303.081 55.4667 303.514 55.5833 303.814 55.85C304.114 56.0833 304.314 56.3667 304.414 56.7C304.548 57 304.614 57.2833 304.614 57.55C304.614 57.8167 304.581 58.1167 304.514 58.45C304.448 58.7833 304.331 59.0833 304.164 59.35C304.331 59.6833 304.764 59.9333 305.464 60.1C306.198 60.2333 306.898 60.3 307.564 60.3C308.231 60.3 308.914 60.2333 309.614 60.1C310.314 59.9333 310.764 59.6833 310.964 59.35C310.798 59.0833 310.681 58.7833 310.614 58.45C310.548 58.1167 310.514 57.8167 310.514 57.55C310.514 57.2833 310.564 57 310.664 56.7C310.798 56.3667 311.014 56.0833 311.314 55.85C311.614 55.5833 312.048 55.4667 312.614 55.5C313.214 55.5333 313.681 55.7833 314.014 56.25C314.381 56.6833 314.564 57.2 314.564 57.8C314.564 59.1333 313.881 60.2 312.514 61C311.148 61.7667 309.498 62.15 307.564 62.15ZM354.997 91.75C352.863 91.75 350.913 91.1833 349.147 90.05C347.413 88.8833 346.03 87.15 344.997 84.85C343.963 82.5167 343.447 79.5833 343.447 76.05C343.447 73.1167 343.747 70.3667 344.347 67.8C344.98 65.2333 345.963 63.0167 347.297 61.15C348.663 59.25 350.447 57.8833 352.647 57.05C353.48 56.7167 354.33 56.4833 355.197 56.35C356.063 56.1833 356.93 56.05 357.797 55.95C358.697 55.8167 359.58 55.6333 360.447 55.4C361.313 55.1333 361.963 54.85 362.397 54.55C362.863 54.25 363.23 53.7333 363.497 53L365.247 53.55C365.013 54.6167 364.78 55.5333 364.547 56.3C364.313 57.0667 363.93 57.7167 363.397 58.25C362.897 58.7833 362.063 59.25 360.897 59.65C359.997 59.95 359.08 60.1833 358.147 60.35C357.213 60.5167 356.313 60.6667 355.447 60.8C354.58 60.9 353.747 61.0667 352.947 61.3C350.413 62.0667 348.563 63.5667 347.397 65.8C346.263 68 345.713 70.5333 345.747 73.4H346.097C346.863 71.4333 348.03 69.8667 349.597 68.7C351.197 67.5333 353.213 66.95 355.647 66.95C357.747 66.95 359.63 67.4 361.297 68.3C362.963 69.1667 364.28 70.4667 365.247 72.2C366.247 73.9 366.747 76 366.747 78.5C366.747 81.1667 366.213 83.5 365.147 85.5C364.113 87.5 362.697 89.05 360.897 90.15C359.13 91.2167 357.163 91.75 354.997 91.75ZM355.197 89.85C356.83 89.85 358.13 89.3833 359.097 88.45C360.097 87.4833 360.813 86.2333 361.247 84.7C361.68 83.1667 361.897 81.5667 361.897 79.9C361.897 78.0667 361.647 76.3 361.147 74.6C360.68 72.9 359.913 71.5 358.847 70.4C357.813 69.3 356.447 68.75 354.747 68.75C353.247 68.75 352.013 69.2 351.047 70.1C350.08 71 349.347 72.1833 348.847 73.65C348.38 75.0833 348.147 76.6333 348.147 78.3C348.147 80.7 348.413 82.7667 348.947 84.5C349.48 86.2 350.263 87.5167 351.297 88.45C352.363 89.3833 353.663 89.85 355.197 89.85ZM385.344 91.8C383.044 91.8 380.961 91.2667 379.094 90.2C377.261 89.1 375.811 87.5667 374.744 85.6C373.677 83.6 373.144 81.25 373.144 78.55C373.144 76.2167 373.661 74.0333 374.694 72C375.761 69.9667 377.244 68.3333 379.144 67.1C381.044 65.8333 383.244 65.2 385.744 65.2C387.144 65.2 388.444 65.4333 389.644 65.9C390.877 66.3333 391.961 67.0167 392.894 67.95C393.827 68.85 394.561 70 395.094 71.4C395.627 72.7667 395.894 74.3833 395.894 76.25L378.294 76.55C378.294 79.0833 378.561 81.3167 379.094 83.25C379.661 85.15 380.561 86.6333 381.794 87.7C383.027 88.7333 384.611 89.25 386.544 89.25C387.577 89.25 388.627 89.0667 389.694 88.7C390.794 88.3333 391.811 87.8333 392.744 87.2C393.677 86.5667 394.427 85.8667 394.994 85.1L396.194 86.1C395.294 87.5 394.211 88.6167 392.944 89.45C391.677 90.2833 390.377 90.8833 389.044 91.25C387.711 91.6167 386.477 91.8 385.344 91.8ZM378.444 74.45H391.194C391.194 73.25 391.011 72.1 390.644 71C390.311 69.8667 389.744 68.95 388.944 68.25C388.144 67.5167 387.094 67.15 385.794 67.15C383.861 67.15 382.244 67.7333 380.944 68.9C379.677 70.0333 378.844 71.8833 378.444 74.45ZM412.044 91.8C409.877 91.8 408.044 91.5167 406.544 90.95C405.077 90.3833 403.96 89.6833 403.194 88.85C402.46 87.9833 402.094 87.1 402.094 86.2C402.094 85.3667 402.294 84.6667 402.694 84.1C403.094 83.5333 403.66 83.25 404.394 83.25C405.26 83.2167 405.86 83.4833 406.194 84.05C406.56 84.5833 406.744 85.0667 406.744 85.5C406.744 85.8333 406.677 86.1833 406.544 86.55C406.444 86.8833 406.244 87.2 405.944 87.5C406.41 88.5 407.21 89.1833 408.344 89.55C409.51 89.8833 410.644 90.05 411.744 90.05C413.21 90.05 414.51 89.6333 415.644 88.8C416.777 87.9333 417.344 86.55 417.344 84.65C417.344 82.6833 416.727 81.2833 415.494 80.45C414.26 79.5833 412.81 79.15 411.144 79.15H408.894V77.3H410.944C412.21 77.3 413.21 77.0667 413.944 76.6C414.71 76.1333 415.26 75.5 415.594 74.7C415.96 73.8667 416.144 72.9333 416.144 71.9C416.144 70.4 415.76 69.2167 414.994 68.35C414.227 67.4833 413.127 67.05 411.694 67.05C410.327 67.05 409.177 67.4167 408.244 68.15C407.31 68.85 406.577 69.75 406.044 70.85C405.544 71.9167 405.26 73.0333 405.194 74.2H403.594V65.45H405.694L405.594 67.35C406.627 66.5167 407.727 65.95 408.894 65.65C410.094 65.35 411.227 65.2 412.294 65.2C414.694 65.2 416.694 65.7833 418.294 66.95C419.927 68.0833 420.744 69.6333 420.744 71.6C420.744 73.0333 420.277 74.3167 419.344 75.45C418.444 76.55 417.127 77.3333 415.394 77.8C417.394 77.9667 419.01 78.6333 420.244 79.8C421.51 80.9333 422.144 82.4333 422.144 84.3C422.144 85.8 421.71 87.1167 420.844 88.25C420.01 89.35 418.827 90.2167 417.294 90.85C415.794 91.4833 414.044 91.8 412.044 91.8ZM448.928 91V89.5C449.961 89.5 450.678 89.25 451.078 88.75C451.478 88.2167 451.711 87.5 451.778 86.6C451.878 85.6667 451.928 84.6 451.928 83.4V71.3C451.928 70.6333 451.928 70.0833 451.928 69.65C451.961 69.1833 452.028 68.6667 452.128 68.1H448.578C447.244 68.1 446.261 68.4833 445.628 69.25C445.028 70.0167 444.728 71.45 444.728 73.55H442.828L443.028 66H465.128L465.378 73.55H463.478C463.444 71.45 463.128 70.0167 462.528 69.25C461.961 68.4833 460.894 68.1 459.328 68.1H456.228V85.7C456.228 86.3667 456.211 86.9667 456.178 87.5C456.178 88 456.128 88.5333 456.028 89.1L459.178 88.95V91H448.928ZM470.733 103.75V102.25C471.767 102.25 472.483 101.983 472.883 101.45C473.283 100.95 473.517 100.233 473.583 99.3C473.65 98.4 473.683 97.35 473.683 96.15L473.783 72C473.783 71.4667 473.783 70.9333 473.783 70.4C473.817 69.8667 473.883 69.3167 473.983 68.75C473.383 68.7833 472.783 68.8167 472.183 68.85C471.617 68.8833 471.033 68.9167 470.433 68.95V66.85C471.9 66.85 473 66.7833 473.733 66.65C474.5 66.5167 475.05 66.35 475.383 66.15C475.75 65.95 476.05 65.7333 476.283 65.5H477.783C477.817 65.8333 477.85 66.2333 477.883 66.7C477.917 67.1333 477.95 67.6333 477.983 68.2C478.983 67.3 480.167 66.5833 481.533 66.05C482.933 65.4833 484.333 65.2 485.733 65.2C487.667 65.2 489.467 65.7 491.133 66.7C492.8 67.7 494.15 69.1333 495.183 71C496.217 72.8333 496.733 75.0333 496.733 77.6C496.733 80.4333 496.133 82.9167 494.933 85.05C493.767 87.1833 492.217 88.85 490.283 90.05C488.35 91.2167 486.25 91.8 483.983 91.8C482.817 91.8 481.733 91.65 480.733 91.35C479.767 91.0833 478.85 90.6833 477.983 90.15V98.45C477.983 99.1167 477.967 99.7 477.933 100.2C477.933 100.733 477.883 101.283 477.783 101.85C478.317 101.817 478.833 101.783 479.333 101.75C479.867 101.75 480.4 101.733 480.933 101.7V103.75H470.733ZM483.883 89.8C485.483 89.8 486.85 89.3167 487.983 88.35C489.15 87.35 490.033 86 490.633 84.3C491.267 82.5667 491.583 80.6 491.583 78.4C491.583 76.6 491.317 74.8833 490.783 73.25C490.283 71.5833 489.467 70.2333 488.333 69.2C487.233 68.1667 485.767 67.65 483.933 67.65C482.8 67.65 481.7 67.9333 480.633 68.5C479.6 69.0333 478.733 69.6833 478.033 70.45C478.033 70.5833 478.033 70.7833 478.033 71.05C478.067 71.2833 478.083 71.7167 478.083 72.35C478.083 72.95 478.083 73.8667 478.083 75.1C478.083 76.3 478.067 77.9333 478.033 80C478.033 82.0667 478.033 84.6833 478.033 87.85C478.867 88.4833 479.767 88.9667 480.733 89.3C481.733 89.6333 482.783 89.8 483.883 89.8ZM506.977 104.55C505.943 104.55 505.06 104.3 504.327 103.8C503.593 103.3 503.227 102.533 503.227 101.5C503.227 100.9 503.427 100.35 503.827 99.85C504.227 99.35 504.743 99.1 505.377 99.1C506.177 99.0667 506.71 99.3167 506.977 99.85C507.277 100.383 507.427 100.85 507.427 101.25C507.427 101.35 507.427 101.45 507.427 101.55C507.427 101.683 507.41 101.817 507.377 101.95C507.477 102.017 507.66 102.05 507.927 102.05C508.327 102.05 508.76 101.883 509.227 101.55C509.693 101.217 510.11 100.733 510.477 100.1C510.91 99.3667 511.41 98.2667 511.977 96.8C512.577 95.3333 513.243 93.5833 513.977 91.55L506.177 74.85C505.31 72.9833 504.677 71.5 504.277 70.4C503.91 69.3 503.66 68.4833 503.527 67.95L501.127 68.05V66H511.477V67.5H511.277C509.877 67.6 509.11 68.1333 508.977 69.1C508.843 70.0333 509.227 71.4667 510.127 73.4L515.977 85.95C516.743 83.8167 517.477 81.7167 518.177 79.65C518.877 77.55 519.577 75.4667 520.277 73.4C520.543 72.6667 520.81 71.9167 521.077 71.15C521.377 70.35 521.66 69.65 521.927 69.05C522.227 68.4167 522.493 68.0167 522.727 67.85L519.277 68.05V66H527.127V67.5C525.893 67.9667 524.96 68.75 524.327 69.85C523.727 70.9167 523.11 72.3 522.477 74L516.227 91.45C515.227 94.25 514.31 96.6167 513.477 98.55C512.643 100.517 511.727 102 510.727 103C509.727 104.033 508.477 104.55 506.977 104.55ZM530.943 99.9V89.1H532.993C533.793 89.1 534.459 88.9167 534.993 88.55C535.526 88.15 536.043 87.2833 536.543 85.95C536.909 84.95 537.226 83.85 537.493 82.65C537.793 81.45 538.043 80.1167 538.243 78.65C538.443 77.15 538.609 75.5167 538.743 73.75C538.876 71.9833 538.976 70.05 539.043 67.95L534.643 68.15V66H556.743V67.5C555.709 67.5 554.993 67.7667 554.593 68.3C554.193 68.8 553.959 69.5167 553.893 70.45C553.826 71.35 553.793 72.4 553.793 73.6V85.7C553.759 86.3667 553.726 86.9667 553.693 87.5C553.659 88 553.593 88.5333 553.493 89.1L558.043 88.9V99.9H556.143C556.143 97.1667 555.859 95 555.293 93.4C554.759 91.8 553.659 91 551.993 91H537.043C535.409 91 534.293 91.7833 533.693 93.35C533.126 94.95 532.843 97.1333 532.843 99.9H530.943ZM537.493 89.1H546.443C547.476 89.1 548.193 88.85 548.593 88.35C549.026 87.8167 549.276 87.1 549.343 86.2C549.443 85.2667 549.493 84.2 549.493 83V71.3C549.493 70.6333 549.493 70.05 549.493 69.55C549.526 69.0167 549.576 68.4667 549.643 67.9H544.443C543.409 67.9 542.693 68.2 542.293 68.8C541.926 69.4 541.676 70.2167 541.543 71.25C541.376 73.4833 541.143 75.5833 540.843 77.55C540.576 79.4833 540.293 81.2 539.993 82.7C539.726 84.1667 539.443 85.3167 539.143 86.15C538.909 86.7833 538.659 87.35 538.393 87.85C538.126 88.3167 537.826 88.7333 537.493 89.1ZM579.284 91C579.184 90.4333 579.117 89.9333 579.084 89.5C579.05 89.0667 579 88.6167 578.934 88.15C577.8 89.2833 576.567 90.1833 575.234 90.85C573.934 91.4833 572.55 91.8 571.084 91.8C568.55 91.8 566.667 91.2333 565.434 90.1C564.2 88.9333 563.584 87.5167 563.584 85.85C563.584 84.3167 564.05 83 564.984 81.9C565.95 80.7667 567.184 79.85 568.684 79.15C570.217 78.4167 571.867 77.8833 573.634 77.55C575.434 77.1833 577.167 77.0167 578.834 77.05V73.95C578.834 72.7833 578.734 71.6833 578.534 70.65C578.334 69.6167 577.9 68.7667 577.234 68.1C576.567 67.4333 575.5 67.0833 574.034 67.05C573.067 67.0167 572.067 67.2 571.034 67.6C570.034 68 569.3 68.6833 568.834 69.65C569.1 69.9167 569.267 70.2333 569.334 70.6C569.434 70.9333 569.484 71.25 569.484 71.55C569.484 71.95 569.317 72.4167 568.984 72.95C568.65 73.45 568.067 73.6833 567.234 73.65C566.534 73.65 566 73.4167 565.634 72.95C565.267 72.45 565.084 71.8667 565.084 71.2C565.084 70.0667 565.5 69.05 566.334 68.15C567.2 67.25 568.384 66.5333 569.884 66C571.384 65.4667 573.084 65.2 574.984 65.2C577.784 65.2 579.85 65.95 581.184 67.45C582.517 68.9167 583.167 71.25 583.134 74.45C583.134 75.6833 583.134 76.9333 583.134 78.2C583.134 79.4333 583.117 80.6833 583.084 81.95C583.084 83.1833 583.084 84.4333 583.084 85.7C583.084 86.2333 583.067 86.7667 583.034 87.3C583 87.8333 582.95 88.4333 582.884 89.1C583.484 89.0667 584.067 89.0333 584.634 89C585.234 88.9667 585.834 88.9333 586.434 88.9V91H579.284ZM578.834 78.75C577.7 78.7833 576.5 78.9333 575.234 79.2C574 79.4333 572.85 79.8 571.784 80.3C570.75 80.8 569.9 81.4667 569.234 82.3C568.6 83.1 568.3 84.0833 568.334 85.25C568.4 86.4833 568.8 87.4167 569.534 88.05C570.3 88.65 571.2 88.95 572.234 88.95C573.6 88.95 574.784 88.7 575.784 88.2C576.817 87.6667 577.834 86.9333 578.834 86C578.8 85.6333 578.784 85.2333 578.784 84.8C578.784 84.3667 578.784 83.9167 578.784 83.45C578.784 83.2833 578.784 82.75 578.784 81.85C578.817 80.95 578.834 79.9167 578.834 78.75Z" fill="#F5F5F5"/>
<path d="M354.34 156C353.57 157.333 351.645 157.333 350.876 156L342.215 141H363L354.34 156Z" fill="#181818" fill-opacity="0.9"/>
</g>
<defs>
<filter id="filter0_d_662_1803" x="0" y="0" width="704" height="166" filterUnits="userSpaceOnUse" color-interpolation-filters="sRGB">
<feFlood flood-opacity="0" result="BackgroundImageFix"/>
<feColorMatrix in="SourceAlpha" type="matrix" values="0 0 0 0 0 0 0 0 0 0 0 0 0 0 0 0 0 0 127 0" result="hardAlpha"/>
<feOffset dy="2"/>
<feGaussianBlur stdDeviation="3.5"/>
<feComposite in2="hardAlpha" operator="out"/>
<feColorMatrix type="matrix" values="0 0 0 0 0 0 0 0 0 0 0 0 0 0 0 0 0 0 0.12 0"/>
<feBlend mode="normal" in2="BackgroundImageFix" result="effect1_dropShadow_662_1803"/>
<feBlend mode="normal" in="SourceGraphic" in2="effect1_dropShadow_662_1803" result="shape"/>
</filter>
</defs>
</svg>
