<svg width="23" height="23" viewBox="0 0 23 23" fill="none" xmlns="http://www.w3.org/2000/svg">
<path d="M21.4922 20.9017L15.6262 15.0357C17.0358 13.3434 17.7388 11.1728 17.5888 8.9754C17.4388 6.77803 16.4474 4.72307 14.8209 3.23803C13.1944 1.75298 11.0579 0.952179 8.856 1.00221C6.65409 1.05224 4.55623 1.94926 2.99883 3.50665C1.44144 5.06404 0.54443 7.1619 0.494398 9.36381C0.444367 11.5657 1.24517 13.7022 2.73022 15.3287C4.21526 16.9552 6.27022 17.9466 8.46759 18.0966C10.665 18.2466 12.8356 17.5436 14.5279 16.134L20.3939 22L21.4922 20.9017ZM2.07346 9.57202C2.07346 8.18938 2.48346 6.83779 3.25161 5.68817C4.01977 4.53855 5.11157 3.64253 6.38896 3.11341C7.66635 2.5843 9.07196 2.44586 10.428 2.7156C11.7841 2.98534 13.0297 3.65114 14.0074 4.62882C14.9851 5.60649 15.6509 6.85212 15.9206 8.20819C16.1904 9.56426 16.0519 10.9699 15.5228 12.2473C14.9937 13.5246 14.0977 14.6165 12.9481 15.3846C11.7984 16.1528 10.4468 16.5628 9.0642 16.5628C7.21077 16.5607 5.43385 15.8235 4.12327 14.5129C2.8127 13.2024 2.07552 11.4254 2.07346 9.57202Z" fill="#979797" stroke="#979797"/>
</svg>
