<svg width="704" height="258" viewBox="0 0 704 258" fill="none" xmlns="http://www.w3.org/2000/svg">
<path d="M89.5469 225.35C90.8135 225.283 91.6802 225 92.1469 224.5C92.6135 223.967 92.8635 223.25 92.8969 222.35C92.9635 221.417 92.9969 220.367 92.9969 219.2V197.6C92.9969 196.933 93.0135 196.3 93.0469 195.7C93.0802 195.067 93.1135 194.5 93.1469 194C92.5469 194.033 91.9469 194.067 91.3469 194.1C90.7469 194.133 90.1469 194.167 89.5469 194.2V192L101.347 191.95C104.347 191.95 107.097 192.3 109.597 193C112.097 193.7 114.247 194.783 116.047 196.25C117.88 197.683 119.28 199.517 120.247 201.75C121.247 203.95 121.747 206.55 121.747 209.55C121.747 211.85 121.347 214.05 120.547 216.15C119.747 218.25 118.547 220.117 116.947 221.75C115.347 223.35 113.347 224.633 110.947 225.6C108.58 226.533 105.83 227 102.697 227H89.5469V225.35ZM97.3469 221.1C97.3469 222 97.3302 222.767 97.2969 223.4C97.2969 224.033 97.2635 224.567 97.1969 225C98.0969 225.033 98.9135 225.067 99.6469 225.1C100.414 225.1 101.047 225.1 101.547 225.1C102.08 225.1 102.414 225.1 102.547 225.1C104.714 225.1 106.664 224.7 108.397 223.9C110.164 223.1 111.664 222 112.897 220.6C114.164 219.167 115.13 217.5 115.797 215.6C116.497 213.667 116.847 211.583 116.847 209.35C116.847 206.183 116.264 203.45 115.097 201.15C113.964 198.817 112.214 197.017 109.847 195.75C107.48 194.45 104.464 193.8 100.797 193.8C99.5635 193.8 98.6969 194.05 98.1969 194.55C97.7302 195.05 97.4635 195.75 97.3969 196.65C97.3635 197.55 97.3469 198.6 97.3469 199.8V221.1ZM141.153 227.8C138.819 227.8 136.703 227.267 134.803 226.2C132.903 225.1 131.386 223.6 130.253 221.7C129.153 219.767 128.603 217.567 128.603 215.1C128.603 212.467 129.153 210.1 130.253 208C131.353 205.9 132.853 204.25 134.753 203.05C136.653 201.817 138.786 201.2 141.153 201.2C143.486 201.2 145.603 201.767 147.503 202.9C149.403 204 150.919 205.5 152.053 207.4C153.186 209.3 153.753 211.467 153.753 213.9C153.753 216.467 153.186 218.817 152.053 220.95C150.953 223.05 149.453 224.717 147.553 225.95C145.653 227.183 143.519 227.8 141.153 227.8ZM141.553 225.8C143.319 225.8 144.719 225.3 145.753 224.3C146.786 223.3 147.519 222 147.953 220.4C148.419 218.8 148.653 217.117 148.653 215.35C148.653 213.85 148.503 212.383 148.203 210.95C147.936 209.483 147.503 208.167 146.903 207C146.303 205.8 145.519 204.85 144.553 204.15C143.619 203.45 142.486 203.1 141.153 203.1C139.419 203.1 138.003 203.6 136.903 204.6C135.803 205.6 134.986 206.9 134.453 208.5C133.953 210.1 133.703 211.817 133.703 213.65C133.703 215.717 133.986 217.683 134.553 219.55C135.119 221.383 135.986 222.883 137.153 224.05C138.319 225.217 139.786 225.8 141.553 225.8ZM171.051 227.8C169.251 227.8 167.734 227.467 166.501 226.8C165.301 226.133 164.384 225 163.751 223.4C163.151 221.8 162.851 219.633 162.851 216.9V208C162.851 207.467 162.851 206.933 162.851 206.4C162.884 205.867 162.951 205.317 163.051 204.75C162.484 204.783 161.901 204.817 161.301 204.85C160.734 204.85 160.167 204.867 159.601 204.9V202.85H161.151C162.584 202.85 163.617 202.717 164.251 202.45C164.917 202.15 165.434 201.833 165.801 201.5H167.251V216.75C167.251 219.617 167.651 221.767 168.451 223.2C169.284 224.6 170.684 225.283 172.651 225.25C173.917 225.217 175.117 224.833 176.251 224.1C177.417 223.333 178.351 222.433 179.051 221.4V208.55C179.051 207.75 179.067 207.067 179.101 206.5C179.134 205.9 179.201 205.317 179.301 204.75C178.701 204.783 178.101 204.817 177.501 204.85C176.901 204.85 176.301 204.867 175.701 204.9V202.85H177.251C178.684 202.85 179.717 202.717 180.351 202.45C181.017 202.15 181.534 201.833 181.901 201.5H183.351L183.301 220.4C183.301 220.933 183.284 221.683 183.251 222.65C183.217 223.617 183.167 224.433 183.101 225.1C183.701 225.067 184.301 225.033 184.901 225C185.501 224.967 186.101 224.933 186.701 224.9V227H179.551C179.451 226.433 179.367 225.9 179.301 225.4C179.267 224.9 179.234 224.433 179.201 224C178.167 225.033 176.917 225.933 175.451 226.7C173.984 227.433 172.517 227.8 171.051 227.8ZM194.435 195.75C194.435 195.217 194.435 194.717 194.435 194.25C194.468 193.75 194.518 193.167 194.585 192.5C193.985 192.533 193.385 192.567 192.785 192.6C192.218 192.633 191.635 192.667 191.035 192.7V190.6C192.501 190.6 193.635 190.533 194.435 190.4C195.268 190.267 195.885 190.1 196.285 189.9C196.718 189.7 197.051 189.483 197.285 189.25H198.735V204.15C199.668 203.217 200.768 202.5 202.035 202C203.335 201.467 204.751 201.2 206.285 201.2C208.418 201.2 210.335 201.717 212.035 202.75C213.768 203.783 215.135 205.25 216.135 207.15C217.135 209.05 217.635 211.3 217.635 213.9C217.635 216.733 217.018 219.2 215.785 221.3C214.551 223.367 212.951 224.967 210.985 226.1C209.018 227.233 206.901 227.8 204.635 227.8C203.501 227.8 202.251 227.583 200.885 227.15C199.551 226.75 198.351 225.95 197.285 224.75L196.085 227H194.335L194.435 195.75ZM198.735 219.15C198.735 220.917 199.018 222.283 199.585 223.25C200.151 224.183 200.885 224.833 201.785 225.2C202.685 225.567 203.635 225.75 204.635 225.75C206.235 225.75 207.618 225.3 208.785 224.4C209.951 223.5 210.851 222.267 211.485 220.7C212.151 219.1 212.485 217.25 212.485 215.15C212.485 212.883 212.201 210.9 211.635 209.2C211.068 207.467 210.218 206.117 209.085 205.15C207.951 204.15 206.518 203.65 204.785 203.65C203.685 203.65 202.585 203.917 201.485 204.45C200.418 204.95 199.501 205.633 198.735 206.5V219.15ZM223.936 225.5C224.97 225.5 225.686 225.25 226.086 224.75C226.486 224.217 226.72 223.5 226.786 222.6C226.853 221.667 226.886 220.6 226.886 219.4V195.75C226.886 195.217 226.886 194.717 226.886 194.25C226.92 193.75 226.97 193.167 227.036 192.5C226.436 192.533 225.836 192.567 225.236 192.6C224.67 192.633 224.086 192.667 223.486 192.7V190.6C224.953 190.6 226.086 190.533 226.886 190.4C227.72 190.267 228.336 190.1 228.736 189.9C229.17 189.7 229.503 189.483 229.736 189.25H231.186L231.236 221.7C231.236 222.367 231.22 222.967 231.186 223.5C231.153 224 231.086 224.533 230.986 225.1C231.52 225.067 232.036 225.05 232.536 225.05C233.07 225.017 233.603 224.983 234.136 224.95V227H223.936V225.5ZM252.659 227.8C250.359 227.8 248.276 227.267 246.409 226.2C244.576 225.1 243.126 223.567 242.059 221.6C240.993 219.6 240.459 217.25 240.459 214.55C240.459 212.217 240.976 210.033 242.009 208C243.076 205.967 244.559 204.333 246.459 203.1C248.359 201.833 250.559 201.2 253.059 201.2C254.459 201.2 255.759 201.433 256.959 201.9C258.193 202.333 259.276 203.017 260.209 203.95C261.143 204.85 261.876 206 262.409 207.4C262.943 208.767 263.209 210.383 263.209 212.25L245.609 212.55C245.609 215.083 245.876 217.317 246.409 219.25C246.976 221.15 247.876 222.633 249.109 223.7C250.343 224.733 251.926 225.25 253.859 225.25C254.893 225.25 255.943 225.067 257.009 224.7C258.109 224.333 259.126 223.833 260.059 223.2C260.993 222.567 261.743 221.867 262.309 221.1L263.509 222.1C262.609 223.5 261.526 224.617 260.259 225.45C258.993 226.283 257.693 226.883 256.359 227.25C255.026 227.617 253.793 227.8 252.659 227.8ZM245.759 210.45H258.509C258.509 209.25 258.326 208.1 257.959 207C257.626 205.867 257.059 204.95 256.259 204.25C255.459 203.517 254.409 203.15 253.109 203.15C251.176 203.15 249.559 203.733 248.259 204.9C246.993 206.033 246.159 207.883 245.759 210.45ZM295.194 227.8C294.427 227.8 293.644 227.683 292.844 227.45C292.044 227.25 291.294 226.833 290.594 226.2C289.927 225.567 289.394 224.65 288.994 223.45C288.594 222.217 288.394 220.6 288.394 218.6L288.494 204.1L284.644 204.15V202C285.51 201.967 286.394 201.65 287.294 201.05C288.194 200.417 288.994 199.567 289.694 198.5C290.427 197.433 290.927 196.267 291.194 195H292.894V202H301.294V203.95L292.894 204.05L292.794 217.95C292.794 219.45 292.91 220.733 293.144 221.8C293.41 222.833 293.827 223.617 294.394 224.15C294.96 224.683 295.694 224.95 296.594 224.95C297.527 224.95 298.394 224.683 299.194 224.15C300.027 223.617 300.76 222.883 301.394 221.95L302.744 223.05C302.01 224.15 301.277 225.017 300.544 225.65C299.844 226.283 299.16 226.75 298.494 227.05C297.827 227.383 297.21 227.583 296.644 227.65C296.077 227.75 295.594 227.8 295.194 227.8ZM323.68 225.5C324.713 225.5 325.43 225.25 325.83 224.75C326.23 224.217 326.463 223.5 326.53 222.6C326.596 221.667 326.63 220.6 326.63 219.4V212.4C326.63 209.533 326.163 207.383 325.23 205.95C324.33 204.517 322.896 203.817 320.93 203.85C319.696 203.883 318.48 204.183 317.28 204.75C316.113 205.317 315.163 206.05 314.43 206.95V221.7C314.43 222.367 314.413 222.967 314.38 223.5C314.346 224 314.28 224.533 314.18 225.1C314.713 225.067 315.23 225.05 315.73 225.05C316.263 225.017 316.796 224.983 317.33 224.95V227H307.13V225.5C308.163 225.5 308.88 225.25 309.28 224.75C309.68 224.217 309.913 223.5 309.98 222.6C310.08 221.667 310.13 220.6 310.13 219.4V195.75C310.13 195.217 310.13 194.717 310.13 194.25C310.163 193.75 310.213 193.167 310.28 192.5C309.68 192.533 309.08 192.567 308.48 192.6C307.913 192.633 307.33 192.667 306.73 192.7V190.6C308.196 190.6 309.33 190.533 310.13 190.4C310.963 190.267 311.58 190.1 311.98 189.9C312.413 189.7 312.746 189.483 312.98 189.25H314.43V204.5C315.163 203.867 315.98 203.317 316.88 202.85C317.813 202.35 318.763 201.95 319.73 201.65C320.73 201.35 321.696 201.2 322.63 201.2C325.53 201.2 327.613 202.117 328.88 203.95C330.18 205.75 330.846 208.567 330.88 212.4L330.93 221.7C330.93 222.367 330.913 222.967 330.88 223.5C330.88 224 330.83 224.533 330.73 225.1C331.263 225.067 331.78 225.05 332.28 225.05C332.813 225.017 333.346 224.983 333.88 224.95V227H323.68V225.5ZM352.161 227.8C349.861 227.8 347.778 227.267 345.911 226.2C344.078 225.1 342.628 223.567 341.561 221.6C340.495 219.6 339.961 217.25 339.961 214.55C339.961 212.217 340.478 210.033 341.511 208C342.578 205.967 344.061 204.333 345.961 203.1C347.861 201.833 350.061 201.2 352.561 201.2C353.961 201.2 355.261 201.433 356.461 201.9C357.695 202.333 358.778 203.017 359.711 203.95C360.645 204.85 361.378 206 361.911 207.4C362.445 208.767 362.711 210.383 362.711 212.25L345.111 212.55C345.111 215.083 345.378 217.317 345.911 219.25C346.478 221.15 347.378 222.633 348.611 223.7C349.845 224.733 351.428 225.25 353.361 225.25C354.395 225.25 355.445 225.067 356.511 224.7C357.611 224.333 358.628 223.833 359.561 223.2C360.495 222.567 361.245 221.867 361.811 221.1L363.011 222.1C362.111 223.5 361.028 224.617 359.761 225.45C358.495 226.283 357.195 226.883 355.861 227.25C354.528 227.617 353.295 227.8 352.161 227.8ZM345.261 210.45H358.011C358.011 209.25 357.828 208.1 357.461 207C357.128 205.867 356.561 204.95 355.761 204.25C354.961 203.517 353.911 203.15 352.611 203.15C350.678 203.15 349.061 203.733 347.761 204.9C346.495 206.033 345.661 207.883 345.261 210.45ZM384.846 239.75V238.25C385.879 238.25 386.596 237.983 386.996 237.45C387.396 236.95 387.629 236.233 387.696 235.3C387.762 234.4 387.796 233.35 387.796 232.15L387.896 208C387.896 207.467 387.896 206.933 387.896 206.4C387.929 205.867 387.996 205.317 388.096 204.75C387.496 204.783 386.896 204.817 386.296 204.85C385.729 204.883 385.146 204.917 384.546 204.95V202.85C386.012 202.85 387.112 202.783 387.846 202.65C388.612 202.517 389.162 202.35 389.496 202.15C389.862 201.95 390.162 201.733 390.396 201.5H391.896C391.929 201.833 391.962 202.233 391.996 202.7C392.029 203.133 392.062 203.633 392.096 204.2C393.096 203.3 394.279 202.583 395.646 202.05C397.046 201.483 398.446 201.2 399.846 201.2C401.779 201.2 403.579 201.7 405.246 202.7C406.912 203.7 408.262 205.133 409.296 207C410.329 208.833 410.846 211.033 410.846 213.6C410.846 216.433 410.246 218.917 409.046 221.05C407.879 223.183 406.329 224.85 404.396 226.05C402.462 227.217 400.362 227.8 398.096 227.8C396.929 227.8 395.846 227.65 394.846 227.35C393.879 227.083 392.962 226.683 392.096 226.15V234.45C392.096 235.117 392.079 235.7 392.046 236.2C392.046 236.733 391.996 237.283 391.896 237.85C392.429 237.817 392.946 237.783 393.446 237.75C393.979 237.75 394.512 237.733 395.046 237.7V239.75H384.846ZM397.996 225.8C399.596 225.8 400.962 225.317 402.096 224.35C403.262 223.35 404.146 222 404.746 220.3C405.379 218.567 405.696 216.6 405.696 214.4C405.696 212.6 405.429 210.883 404.896 209.25C404.396 207.583 403.579 206.233 402.446 205.2C401.346 204.167 399.879 203.65 398.046 203.65C396.912 203.65 395.812 203.933 394.746 204.5C393.712 205.033 392.846 205.683 392.146 206.45C392.146 206.583 392.146 206.783 392.146 207.05C392.179 207.283 392.196 207.717 392.196 208.35C392.196 208.95 392.196 209.867 392.196 211.1C392.196 212.3 392.179 213.933 392.146 216C392.146 218.067 392.146 220.683 392.146 223.85C392.979 224.483 393.879 224.967 394.846 225.3C395.846 225.633 396.896 225.8 397.996 225.8ZM417.13 225.5C418.163 225.5 418.88 225.25 419.28 224.75C419.68 224.217 419.913 223.5 419.98 222.6C420.046 221.667 420.08 220.6 420.08 219.4V195.75C420.08 195.217 420.08 194.717 420.08 194.25C420.113 193.75 420.163 193.167 420.23 192.5C419.63 192.533 419.03 192.567 418.43 192.6C417.863 192.633 417.28 192.667 416.68 192.7V190.6C418.146 190.6 419.28 190.533 420.08 190.4C420.913 190.267 421.53 190.1 421.93 189.9C422.363 189.7 422.696 189.483 422.93 189.25H424.38L424.43 221.7C424.43 222.367 424.413 222.967 424.38 223.5C424.346 224 424.28 224.533 424.18 225.1C424.713 225.067 425.23 225.05 425.73 225.05C426.263 225.017 426.796 224.983 427.33 224.95V227H417.13V225.5ZM445.853 227.8C443.553 227.8 441.469 227.267 439.603 226.2C437.769 225.1 436.319 223.567 435.253 221.6C434.186 219.6 433.653 217.25 433.653 214.55C433.653 212.217 434.169 210.033 435.203 208C436.269 205.967 437.753 204.333 439.653 203.1C441.553 201.833 443.753 201.2 446.253 201.2C447.653 201.2 448.953 201.433 450.153 201.9C451.386 202.333 452.469 203.017 453.403 203.95C454.336 204.85 455.069 206 455.603 207.4C456.136 208.767 456.403 210.383 456.403 212.25L438.803 212.55C438.803 215.083 439.069 217.317 439.603 219.25C440.169 221.15 441.069 222.633 442.303 223.7C443.536 224.733 445.119 225.25 447.053 225.25C448.086 225.25 449.136 225.067 450.203 224.7C451.303 224.333 452.319 223.833 453.253 223.2C454.186 222.567 454.936 221.867 455.503 221.1L456.703 222.1C455.803 223.5 454.719 224.617 453.453 225.45C452.186 226.283 450.886 226.883 449.553 227.25C448.219 227.617 446.986 227.8 445.853 227.8ZM438.953 210.45H451.703C451.703 209.25 451.519 208.1 451.153 207C450.819 205.867 450.253 204.95 449.453 204.25C448.653 203.517 447.603 203.15 446.303 203.15C444.369 203.15 442.753 203.733 441.453 204.9C440.186 206.033 439.353 207.883 438.953 210.45ZM478.455 227C478.355 226.433 478.288 225.933 478.255 225.5C478.221 225.067 478.171 224.617 478.105 224.15C476.971 225.283 475.738 226.183 474.405 226.85C473.105 227.483 471.721 227.8 470.255 227.8C467.721 227.8 465.838 227.233 464.605 226.1C463.371 224.933 462.755 223.517 462.755 221.85C462.755 220.317 463.221 219 464.155 217.9C465.121 216.767 466.355 215.85 467.855 215.15C469.388 214.417 471.038 213.883 472.805 213.55C474.605 213.183 476.338 213.017 478.005 213.05V209.95C478.005 208.783 477.905 207.683 477.705 206.65C477.505 205.617 477.071 204.767 476.405 204.1C475.738 203.433 474.671 203.083 473.205 203.05C472.238 203.017 471.238 203.2 470.205 203.6C469.205 204 468.471 204.683 468.005 205.65C468.271 205.917 468.438 206.233 468.505 206.6C468.605 206.933 468.655 207.25 468.655 207.55C468.655 207.95 468.488 208.417 468.155 208.95C467.821 209.45 467.238 209.683 466.405 209.65C465.705 209.65 465.171 209.417 464.805 208.95C464.438 208.45 464.255 207.867 464.255 207.2C464.255 206.067 464.671 205.05 465.505 204.15C466.371 203.25 467.555 202.533 469.055 202C470.555 201.467 472.255 201.2 474.155 201.2C476.955 201.2 479.021 201.95 480.355 203.45C481.688 204.917 482.338 207.25 482.305 210.45C482.305 211.683 482.305 212.933 482.305 214.2C482.305 215.433 482.288 216.683 482.255 217.95C482.255 219.183 482.255 220.433 482.255 221.7C482.255 222.233 482.238 222.767 482.205 223.3C482.171 223.833 482.121 224.433 482.055 225.1C482.655 225.067 483.238 225.033 483.805 225C484.405 224.967 485.005 224.933 485.605 224.9V227H478.455ZM478.005 214.75C476.871 214.783 475.671 214.933 474.405 215.2C473.171 215.433 472.021 215.8 470.955 216.3C469.921 216.8 469.071 217.467 468.405 218.3C467.771 219.1 467.471 220.083 467.505 221.25C467.571 222.483 467.971 223.417 468.705 224.05C469.471 224.65 470.371 224.95 471.405 224.95C472.771 224.95 473.955 224.7 474.955 224.2C475.988 223.667 477.005 222.933 478.005 222C477.971 221.633 477.955 221.233 477.955 220.8C477.955 220.367 477.955 219.917 477.955 219.45C477.955 219.283 477.955 218.75 477.955 217.85C477.988 216.95 478.005 215.917 478.005 214.75ZM501.786 227.8C500.119 227.8 498.636 227.567 497.336 227.1C496.036 226.667 494.969 226.167 494.136 225.6L494.336 227.35H492.236L491.936 218.75H493.486C493.553 220.117 493.936 221.35 494.636 222.45C495.336 223.517 496.236 224.35 497.336 224.95C498.436 225.55 499.619 225.85 500.886 225.85C501.753 225.85 502.603 225.717 503.436 225.45C504.269 225.15 504.969 224.717 505.536 224.15C506.103 223.55 506.386 222.8 506.386 221.9C506.386 220.967 506.103 220.2 505.536 219.6C505.003 218.967 504.286 218.417 503.386 217.95C502.486 217.483 501.519 217.05 500.486 216.65C499.486 216.25 498.486 215.833 497.486 215.4C496.486 214.967 495.553 214.45 494.686 213.85C493.853 213.25 493.186 212.517 492.686 211.65C492.186 210.783 491.936 209.717 491.936 208.45C491.936 207.75 492.069 206.983 492.336 206.15C492.603 205.317 493.053 204.533 493.686 203.8C494.319 203.033 495.186 202.417 496.286 201.95C497.386 201.45 498.786 201.2 500.486 201.2C501.386 201.2 502.386 201.35 503.486 201.65C504.586 201.95 505.653 202.517 506.686 203.35L506.586 201.45H508.686V210.2H507.086C507.019 209.033 506.753 207.917 506.286 206.85C505.819 205.75 505.136 204.85 504.236 204.15C503.336 203.417 502.169 203.05 500.736 203.05C499.203 203.05 498.003 203.433 497.136 204.2C496.269 204.967 495.836 205.85 495.836 206.85C495.836 207.883 496.153 208.75 496.786 209.45C497.453 210.117 498.303 210.7 499.336 211.2C500.369 211.7 501.469 212.183 502.636 212.65C503.903 213.183 505.136 213.767 506.336 214.4C507.536 215.033 508.519 215.833 509.286 216.8C510.053 217.733 510.436 218.95 510.436 220.45C510.436 222.117 510.003 223.5 509.136 224.6C508.303 225.7 507.219 226.5 505.886 227C504.586 227.533 503.219 227.8 501.786 227.8ZM527.73 227.8C525.93 227.8 524.414 227.467 523.18 226.8C521.98 226.133 521.064 225 520.43 223.4C519.83 221.8 519.53 219.633 519.53 216.9V208C519.53 207.467 519.53 206.933 519.53 206.4C519.564 205.867 519.63 205.317 519.73 204.75C519.164 204.783 518.58 204.817 517.98 204.85C517.414 204.85 516.847 204.867 516.28 204.9V202.85H517.83C519.264 202.85 520.297 202.717 520.93 202.45C521.597 202.15 522.114 201.833 522.48 201.5H523.93V216.75C523.93 219.617 524.33 221.767 525.13 223.2C525.964 224.6 527.364 225.283 529.33 225.25C530.597 225.217 531.797 224.833 532.93 224.1C534.097 223.333 535.03 222.433 535.73 221.4V208.55C535.73 207.75 535.747 207.067 535.78 206.5C535.814 205.9 535.88 205.317 535.98 204.75C535.38 204.783 534.78 204.817 534.18 204.85C533.58 204.85 532.98 204.867 532.38 204.9V202.85H533.93C535.364 202.85 536.397 202.717 537.03 202.45C537.697 202.15 538.214 201.833 538.58 201.5H540.03L539.98 220.4C539.98 220.933 539.964 221.683 539.93 222.65C539.897 223.617 539.847 224.433 539.78 225.1C540.38 225.067 540.98 225.033 541.58 225C542.18 224.967 542.78 224.933 543.38 224.9V227H536.23C536.13 226.433 536.047 225.9 535.98 225.4C535.947 224.9 535.914 224.433 535.88 224C534.847 225.033 533.597 225.933 532.13 226.7C530.664 227.433 529.197 227.8 527.73 227.8ZM549.514 225.5C550.548 225.5 551.264 225.25 551.664 224.75C552.064 224.217 552.298 223.5 552.364 222.6C552.431 221.667 552.464 220.6 552.464 219.4V208C552.464 207.467 552.464 206.933 552.464 206.4C552.498 205.867 552.564 205.317 552.664 204.75C552.064 204.783 551.464 204.817 550.864 204.85C550.298 204.85 549.714 204.867 549.114 204.9V202.85H550.664C552.098 202.85 553.081 202.717 553.614 202.45C554.181 202.15 554.648 201.833 555.014 201.5H556.464C556.531 202.033 556.581 202.7 556.614 203.5C556.648 204.267 556.681 205.25 556.714 206.45C557.214 205.617 557.898 204.8 558.764 204C559.631 203.2 560.598 202.533 561.664 202C562.764 201.467 563.914 201.2 565.114 201.2C566.048 201.2 566.864 201.45 567.564 201.95C568.264 202.45 568.614 203.25 568.614 204.35C568.614 204.617 568.531 204.95 568.364 205.35C568.198 205.717 567.931 206.05 567.564 206.35C567.198 206.617 566.714 206.75 566.114 206.75C565.381 206.717 564.798 206.433 564.364 205.9C563.931 205.333 563.764 204.683 563.864 203.95C563.031 203.917 562.164 204.133 561.264 204.6C560.398 205.067 559.581 205.717 558.814 206.55C558.048 207.35 557.364 208.3 556.764 209.4L556.814 221.7C556.814 222.367 556.798 222.967 556.764 223.5C556.764 224 556.714 224.533 556.614 225.1C557.148 225.067 557.664 225.05 558.164 225.05C558.698 225.017 559.231 224.983 559.764 224.95V227H549.514V225.5ZM585.404 227.8C583.104 227.8 581.02 227.267 579.154 226.2C577.32 225.1 575.87 223.567 574.804 221.6C573.737 219.6 573.204 217.25 573.204 214.55C573.204 212.217 573.72 210.033 574.754 208C575.82 205.967 577.304 204.333 579.204 203.1C581.104 201.833 583.304 201.2 585.804 201.2C587.204 201.2 588.504 201.433 589.704 201.9C590.937 202.333 592.02 203.017 592.954 203.95C593.887 204.85 594.62 206 595.154 207.4C595.687 208.767 595.954 210.383 595.954 212.25L578.354 212.55C578.354 215.083 578.62 217.317 579.154 219.25C579.72 221.15 580.62 222.633 581.854 223.7C583.087 224.733 584.67 225.25 586.604 225.25C587.637 225.25 588.687 225.067 589.754 224.7C590.854 224.333 591.87 223.833 592.804 223.2C593.737 222.567 594.487 221.867 595.054 221.1L596.254 222.1C595.354 223.5 594.27 224.617 593.004 225.45C591.737 226.283 590.437 226.883 589.104 227.25C587.77 227.617 586.537 227.8 585.404 227.8ZM578.504 210.45H591.254C591.254 209.25 591.07 208.1 590.704 207C590.37 205.867 589.804 204.95 589.004 204.25C588.204 203.517 587.154 203.15 585.854 203.15C583.92 203.15 582.304 203.733 581.004 204.9C579.737 206.033 578.904 207.883 578.504 210.45Z" fill="black"/>
<g filter="url(#filter0_d_589_3045)">
<rect x="7" y="5" width="690" height="136" rx="4" fill="#181818" fill-opacity="0.9" shape-rendering="crispEdges"/>
<path d="M104.795 91.85C104.095 91.85 103.428 91.75 102.795 91.55C102.195 91.3833 101.695 91.0833 101.295 90.65C100.895 90.1833 100.695 89.5667 100.695 88.8C100.695 88 100.928 87.35 101.395 86.85C101.861 86.3167 102.478 86.0333 103.245 86C104.011 85.9667 104.578 86.1833 104.945 86.65C105.345 87.1167 105.545 87.6167 105.545 88.15C105.545 88.45 105.511 88.7 105.445 88.9C105.378 89.0667 105.261 89.2333 105.095 89.4C105.261 89.4333 105.411 89.4833 105.545 89.55C105.678 89.5833 105.811 89.6 105.945 89.6C106.678 89.6 107.461 88.85 108.295 87.35C108.528 86.9833 108.878 86.2667 109.345 85.2C109.811 84.1 110.361 82.7833 110.995 81.25C111.628 79.7167 112.295 78.1 112.995 76.4C113.695 74.6667 114.361 72.9667 114.995 71.3C115.661 69.6 116.261 68.0667 116.795 66.7C117.328 65.3 117.728 64.2 117.995 63.4C118.328 62.4 118.695 61.3667 119.095 60.3C119.528 59.2333 119.911 58.4833 120.245 58.05L116.295 58.2V56H126.545V57.65C125.311 57.7167 124.345 58 123.645 58.5C122.945 58.9667 122.361 59.6667 121.895 60.6C121.461 61.5 120.961 62.6333 120.395 64L112.295 83.55C111.528 85.3833 110.795 86.9167 110.095 88.15C109.395 89.3833 108.628 90.3167 107.795 90.95C106.961 91.55 105.961 91.85 104.795 91.85ZM110.345 83.65L100.295 63.7C99.6279 62.3667 99.1445 61.2667 98.8445 60.4C98.5779 59.5 98.3779 58.7333 98.2445 58.1L95.1445 58.2V56H107.195V57.65C105.795 57.65 104.811 57.8833 104.245 58.35C103.711 58.8167 103.495 59.4667 103.595 60.3C103.728 61.1 104.061 62.0333 104.595 63.1L109.745 73.45C110.211 74.3833 110.678 75.3 111.145 76.2C111.611 77.1 112.061 78.0167 112.495 78.95L110.345 83.65ZM129.512 99.9V89.1H131.562C132.362 89.1 133.029 88.9167 133.562 88.55C134.095 88.15 134.612 87.2833 135.112 85.95C135.479 84.95 135.795 83.85 136.062 82.65C136.362 81.45 136.612 80.1167 136.812 78.65C137.012 77.15 137.179 75.5167 137.312 73.75C137.445 71.9833 137.545 70.05 137.612 67.95L133.212 68.15V66H155.312V67.5C154.279 67.5 153.562 67.7667 153.162 68.3C152.762 68.8 152.529 69.5167 152.462 70.45C152.395 71.35 152.362 72.4 152.362 73.6V85.7C152.329 86.3667 152.295 86.9667 152.262 87.5C152.229 88 152.162 88.5333 152.062 89.1L156.612 88.9V99.9H154.712C154.712 97.1667 154.429 95 153.862 93.4C153.329 91.8 152.229 91 150.562 91H135.612C133.979 91 132.862 91.7833 132.262 93.35C131.695 94.95 131.412 97.1333 131.412 99.9H129.512ZM136.062 89.1H145.012C146.045 89.1 146.762 88.85 147.162 88.35C147.595 87.8167 147.845 87.1 147.912 86.2C148.012 85.2667 148.062 84.2 148.062 83V71.3C148.062 70.6333 148.062 70.05 148.062 69.55C148.095 69.0167 148.145 68.4667 148.212 67.9H143.012C141.979 67.9 141.262 68.2 140.862 68.8C140.495 69.4 140.245 70.2167 140.112 71.25C139.945 73.4833 139.712 75.5833 139.412 77.55C139.145 79.4833 138.862 81.2 138.562 82.7C138.295 84.1667 138.012 85.3167 137.712 86.15C137.479 86.7833 137.229 87.35 136.962 87.85C136.695 88.3167 136.395 88.7333 136.062 89.1ZM162.653 91V89.5C163.886 89.4667 164.686 89.0833 165.053 88.35C165.453 87.5833 165.653 86.55 165.653 85.25V70.8C165.653 70.2 165.67 69.6667 165.703 69.2C165.736 68.7333 165.786 68.3 165.853 67.9C165.32 67.9333 164.786 67.9667 164.253 68C163.753 68 163.236 68.0167 162.703 68.05V66C163.603 66 164.753 66 166.153 66C167.553 65.9667 169.086 65.95 170.753 65.95C172.453 65.95 174.136 65.95 175.803 65.95C178.136 65.95 180.036 66.4333 181.503 67.4C183.003 68.3333 183.736 69.7667 183.703 71.7C183.67 73.0333 183.203 74.2833 182.303 75.45C181.436 76.5833 180.053 77.3833 178.153 77.85C180.42 77.95 182.136 78.5667 183.303 79.7C184.47 80.8 185.053 82.2 185.053 83.9C185.053 85.4 184.653 86.6833 183.853 87.75C183.053 88.8167 182.003 89.6333 180.703 90.2C179.403 90.7333 178.003 91 176.503 91H162.653ZM169.853 88.95C170.22 88.9833 170.703 89 171.303 89C171.936 89 172.52 89 173.053 89C173.62 89 173.97 89 174.103 89C175.97 89 177.453 88.6167 178.553 87.85C179.686 87.05 180.253 85.7833 180.253 84.05C180.253 82.2833 179.636 81.0333 178.403 80.3C177.17 79.5333 175.736 79.15 174.103 79.15C173.403 79.15 172.67 79.1667 171.903 79.2C171.17 79.2 170.52 79.2167 169.953 79.25V86.15C169.953 86.7833 169.936 87.3333 169.903 87.8C169.903 88.2667 169.886 88.65 169.853 88.95ZM169.953 77.35L173.703 77.3C175.07 77.2667 176.153 76.9833 176.953 76.45C177.753 75.8833 178.32 75.2 178.653 74.4C178.986 73.5667 179.136 72.75 179.103 71.95C179.103 70.7833 178.853 69.9 178.353 69.3C177.853 68.7 177.203 68.3 176.403 68.1C175.636 67.8667 174.803 67.75 173.903 67.75C172.703 67.75 171.736 67.9667 171.003 68.4C170.303 68.8333 169.953 69.7667 169.953 71.2V77.35ZM203.627 91.8C201.294 91.8 199.177 91.2667 197.277 90.2C195.377 89.1 193.861 87.6 192.727 85.7C191.627 83.7667 191.077 81.5667 191.077 79.1C191.077 76.4667 191.627 74.1 192.727 72C193.827 69.9 195.327 68.25 197.227 67.05C199.127 65.8167 201.261 65.2 203.627 65.2C205.961 65.2 208.077 65.7667 209.977 66.9C211.877 68 213.394 69.5 214.527 71.4C215.661 73.3 216.227 75.4667 216.227 77.9C216.227 80.4667 215.661 82.8167 214.527 84.95C213.427 87.05 211.927 88.7167 210.027 89.95C208.127 91.1833 205.994 91.8 203.627 91.8ZM204.027 89.8C205.794 89.8 207.194 89.3 208.227 88.3C209.261 87.3 209.994 86 210.427 84.4C210.894 82.8 211.127 81.1167 211.127 79.35C211.127 77.85 210.977 76.3833 210.677 74.95C210.411 73.4833 209.977 72.1667 209.377 71C208.777 69.8 207.994 68.85 207.027 68.15C206.094 67.45 204.961 67.1 203.627 67.1C201.894 67.1 200.477 67.6 199.377 68.6C198.277 69.6 197.461 70.9 196.927 72.5C196.427 74.1 196.177 75.8167 196.177 77.65C196.177 79.7167 196.461 81.6833 197.027 83.55C197.594 85.3833 198.461 86.8833 199.627 88.05C200.794 89.2167 202.261 89.8 204.027 89.8ZM233.275 67.5C232.242 67.5 231.525 67.7667 231.125 68.3C230.725 68.8 230.492 69.5167 230.425 70.45C230.359 71.35 230.309 72.4 230.275 73.6L230.225 85.7C230.225 86.3667 230.209 86.9667 230.175 87.5C230.175 88 230.125 88.5333 230.025 89.1C230.559 89.0667 231.075 89.05 231.575 89.05C232.109 89.0167 232.642 88.9833 233.175 88.95V91H222.975V89.5C224.009 89.5 224.725 89.25 225.125 88.75C225.525 88.2167 225.759 87.5 225.825 86.6C225.925 85.6667 225.975 84.6 225.975 83.4V71.3C225.975 70.6333 225.975 70.05 225.975 69.55C226.009 69.0167 226.075 68.4667 226.175 67.9C225.642 67.9333 225.109 67.9667 224.575 68C224.075 68 223.559 68.0167 223.025 68.05V66H233.275V67.5ZM243.075 68.4L244.675 69.6L229.325 88.85L227.625 87.45L243.075 68.4ZM249.925 67.5C248.925 67.5 248.209 67.7667 247.775 68.3C247.375 68.8 247.142 69.5167 247.075 70.45C247.009 71.35 246.975 72.4 246.975 73.6L246.875 85.7C246.875 86.3667 246.859 86.9667 246.825 87.5C246.825 88 246.792 88.5333 246.725 89.1C247.259 89.0667 247.775 89.05 248.275 89.05C248.809 89.0167 249.342 88.9833 249.875 88.95V91H239.625V89.5C240.659 89.5 241.375 89.25 241.775 88.75C242.175 88.2167 242.409 87.5 242.475 86.6C242.575 85.6667 242.625 84.6 242.625 83.4L242.675 71.3C242.675 70.6333 242.675 70.05 242.675 69.55C242.709 69.0167 242.775 68.4667 242.875 67.9C242.342 67.9333 241.809 67.9667 241.275 68C240.775 68 240.259 68.0167 239.725 68.05V66H249.925V67.5ZM236.475 62.15C234.542 62.15 232.892 61.7667 231.525 61C230.159 60.2 229.475 59.1333 229.475 57.8C229.475 57.2 229.642 56.6833 229.975 56.25C230.309 55.7833 230.792 55.5333 231.425 55.5C231.992 55.4667 232.425 55.5833 232.725 55.85C233.025 56.0833 233.225 56.3667 233.325 56.7C233.459 57 233.525 57.2833 233.525 57.55C233.525 57.8167 233.492 58.1167 233.425 58.45C233.359 58.7833 233.242 59.0833 233.075 59.35C233.242 59.6833 233.675 59.9333 234.375 60.1C235.109 60.2333 235.809 60.3 236.475 60.3C237.142 60.3 237.825 60.2333 238.525 60.1C239.225 59.9333 239.675 59.6833 239.875 59.35C239.709 59.0833 239.592 58.7833 239.525 58.45C239.459 58.1167 239.425 57.8167 239.425 57.55C239.425 57.2833 239.475 57 239.575 56.7C239.709 56.3667 239.925 56.0833 240.225 55.85C240.525 55.5833 240.959 55.4667 241.525 55.5C242.125 55.5333 242.592 55.7833 242.925 56.25C243.292 56.6833 243.475 57.2 243.475 57.8C243.475 59.1333 242.792 60.2 241.425 61C240.059 61.7667 238.409 62.15 236.475 62.15ZM276.308 104.55C275.274 104.55 274.391 104.3 273.658 103.8C272.924 103.3 272.558 102.533 272.558 101.5C272.558 100.9 272.758 100.35 273.158 99.85C273.558 99.35 274.074 99.1 274.708 99.1C275.508 99.0667 276.041 99.3167 276.308 99.85C276.608 100.383 276.758 100.85 276.758 101.25C276.758 101.35 276.758 101.45 276.758 101.55C276.758 101.683 276.741 101.817 276.708 101.95C276.808 102.017 276.991 102.05 277.258 102.05C277.658 102.05 278.091 101.883 278.558 101.55C279.024 101.217 279.441 100.733 279.808 100.1C280.241 99.3667 280.741 98.2667 281.308 96.8C281.908 95.3333 282.574 93.5833 283.308 91.55L275.508 74.85C274.641 72.9833 274.008 71.5 273.608 70.4C273.241 69.3 272.991 68.4833 272.858 67.95L270.458 68.05V66H280.808V67.5H280.608C279.208 67.6 278.441 68.1333 278.308 69.1C278.174 70.0333 278.558 71.4667 279.458 73.4L285.308 85.95C286.074 83.8167 286.808 81.7167 287.508 79.65C288.208 77.55 288.908 75.4667 289.608 73.4C289.874 72.6667 290.141 71.9167 290.408 71.15C290.708 70.35 290.991 69.65 291.258 69.05C291.558 68.4167 291.824 68.0167 292.058 67.85L288.608 68.05V66H296.458V67.5C295.224 67.9667 294.291 68.75 293.658 69.85C293.058 70.9167 292.441 72.3 291.808 74L285.558 91.45C284.558 94.25 283.641 96.6167 282.808 98.55C281.974 100.517 281.058 102 280.058 103C279.058 104.033 277.808 104.55 276.308 104.55ZM300.274 99.9V89.1H302.324C303.124 89.1 303.79 88.9167 304.324 88.55C304.857 88.15 305.374 87.2833 305.874 85.95C306.24 84.95 306.557 83.85 306.824 82.65C307.124 81.45 307.374 80.1167 307.574 78.65C307.774 77.15 307.94 75.5167 308.074 73.75C308.207 71.9833 308.307 70.05 308.374 67.95L303.974 68.15V66H326.074V67.5C325.04 67.5 324.324 67.7667 323.924 68.3C323.524 68.8 323.29 69.5167 323.224 70.45C323.157 71.35 323.124 72.4 323.124 73.6V85.7C323.09 86.3667 323.057 86.9667 323.024 87.5C322.99 88 322.924 88.5333 322.824 89.1L327.374 88.9V99.9H325.474C325.474 97.1667 325.19 95 324.624 93.4C324.09 91.8 322.99 91 321.324 91H306.374C304.74 91 303.624 91.7833 303.024 93.35C302.457 94.95 302.174 97.1333 302.174 99.9H300.274ZM306.824 89.1H315.774C316.807 89.1 317.524 88.85 317.924 88.35C318.357 87.8167 318.607 87.1 318.674 86.2C318.774 85.2667 318.824 84.2 318.824 83V71.3C318.824 70.6333 318.824 70.05 318.824 69.55C318.857 69.0167 318.907 68.4667 318.974 67.9H313.774C312.74 67.9 312.024 68.2 311.624 68.8C311.257 69.4 311.007 70.2167 310.874 71.25C310.707 73.4833 310.474 75.5833 310.174 77.55C309.907 79.4833 309.624 81.2 309.324 82.7C309.057 84.1667 308.774 85.3167 308.474 86.15C308.24 86.7833 307.99 87.35 307.724 87.85C307.457 88.3167 307.157 88.7333 306.824 89.1ZM345.815 91.8C343.482 91.8 341.365 91.2667 339.465 90.2C337.565 89.1 336.048 87.6 334.915 85.7C333.815 83.7667 333.265 81.5667 333.265 79.1C333.265 76.4667 333.815 74.1 334.915 72C336.015 69.9 337.515 68.25 339.415 67.05C341.315 65.8167 343.448 65.2 345.815 65.2C348.148 65.2 350.265 65.7667 352.165 66.9C354.065 68 355.582 69.5 356.715 71.4C357.848 73.3 358.415 75.4667 358.415 77.9C358.415 80.4667 357.848 82.8167 356.715 84.95C355.615 87.05 354.115 88.7167 352.215 89.95C350.315 91.1833 348.182 91.8 345.815 91.8ZM346.215 89.8C347.982 89.8 349.382 89.3 350.415 88.3C351.448 87.3 352.182 86 352.615 84.4C353.082 82.8 353.315 81.1167 353.315 79.35C353.315 77.85 353.165 76.3833 352.865 74.95C352.598 73.4833 352.165 72.1667 351.565 71C350.965 69.8 350.182 68.85 349.215 68.15C348.282 67.45 347.148 67.1 345.815 67.1C344.082 67.1 342.665 67.6 341.565 68.6C340.465 69.6 339.648 70.9 339.115 72.5C338.615 74.1 338.365 75.8167 338.365 77.65C338.365 79.7167 338.648 81.6833 339.215 83.55C339.782 85.3833 340.648 86.8833 341.815 88.05C342.982 89.2167 344.448 89.8 346.215 89.8ZM365.163 91V89.5C366.396 89.4667 367.196 89.0833 367.563 88.35C367.963 87.5833 368.163 86.55 368.163 85.25V70.8C368.163 70.2 368.18 69.6667 368.213 69.2C368.246 68.7333 368.296 68.3 368.363 67.9C367.83 67.9333 367.296 67.9667 366.763 68C366.263 68 365.746 68.0167 365.213 68.05V66C366.113 66 367.263 66 368.663 66C370.063 65.9667 371.596 65.95 373.263 65.95C374.963 65.95 376.646 65.95 378.313 65.95C380.646 65.95 382.546 66.4333 384.013 67.4C385.513 68.3333 386.246 69.7667 386.213 71.7C386.18 73.0333 385.713 74.2833 384.813 75.45C383.946 76.5833 382.563 77.3833 380.663 77.85C382.93 77.95 384.646 78.5667 385.813 79.7C386.98 80.8 387.563 82.2 387.563 83.9C387.563 85.4 387.163 86.6833 386.363 87.75C385.563 88.8167 384.513 89.6333 383.213 90.2C381.913 90.7333 380.513 91 379.013 91H365.163ZM372.363 88.95C372.73 88.9833 373.213 89 373.813 89C374.446 89 375.03 89 375.563 89C376.13 89 376.48 89 376.613 89C378.48 89 379.963 88.6167 381.063 87.85C382.196 87.05 382.763 85.7833 382.763 84.05C382.763 82.2833 382.146 81.0333 380.913 80.3C379.68 79.5333 378.246 79.15 376.613 79.15C375.913 79.15 375.18 79.1667 374.413 79.2C373.68 79.2 373.03 79.2167 372.463 79.25V86.15C372.463 86.7833 372.446 87.3333 372.413 87.8C372.413 88.2667 372.396 88.65 372.363 88.95ZM372.463 77.35L376.213 77.3C377.58 77.2667 378.663 76.9833 379.463 76.45C380.263 75.8833 380.83 75.2 381.163 74.4C381.496 73.5667 381.646 72.75 381.613 71.95C381.613 70.7833 381.363 69.9 380.863 69.3C380.363 68.7 379.713 68.3 378.913 68.1C378.146 67.8667 377.313 67.75 376.413 67.75C375.213 67.75 374.246 67.9667 373.513 68.4C372.813 68.8333 372.463 69.7667 372.463 71.2V77.35ZM406.137 91.8C403.804 91.8 401.687 91.2667 399.787 90.2C397.887 89.1 396.37 87.6 395.237 85.7C394.137 83.7667 393.587 81.5667 393.587 79.1C393.587 76.4667 394.137 74.1 395.237 72C396.337 69.9 397.837 68.25 399.737 67.05C401.637 65.8167 403.77 65.2 406.137 65.2C408.47 65.2 410.587 65.7667 412.487 66.9C414.387 68 415.904 69.5 417.037 71.4C418.17 73.3 418.737 75.4667 418.737 77.9C418.737 80.4667 418.17 82.8167 417.037 84.95C415.937 87.05 414.437 88.7167 412.537 89.95C410.637 91.1833 408.504 91.8 406.137 91.8ZM406.537 89.8C408.304 89.8 409.704 89.3 410.737 88.3C411.77 87.3 412.504 86 412.937 84.4C413.404 82.8 413.637 81.1167 413.637 79.35C413.637 77.85 413.487 76.3833 413.187 74.95C412.92 73.4833 412.487 72.1667 411.887 71C411.287 69.8 410.504 68.85 409.537 68.15C408.604 67.45 407.47 67.1 406.137 67.1C404.404 67.1 402.987 67.6 401.887 68.6C400.787 69.6 399.97 70.9 399.437 72.5C398.937 74.1 398.687 75.8167 398.687 77.65C398.687 79.7167 398.97 81.6833 399.537 83.55C400.104 85.3833 400.97 86.8833 402.137 88.05C403.304 89.2167 404.77 89.8 406.537 89.8ZM427.385 91.55C426.185 91.55 425.252 91.3167 424.585 90.85C423.952 90.35 423.635 89.7 423.635 88.9C423.635 88.1667 423.818 87.5667 424.185 87.1C424.552 86.6333 425.102 86.3833 425.835 86.35C426.635 86.35 427.202 86.55 427.535 86.95C427.902 87.35 428.085 87.75 428.085 88.15C428.085 88.25 428.068 88.3833 428.035 88.55C428.035 88.6833 428.018 88.8 427.985 88.9C428.185 88.9667 428.335 89 428.435 89C429.102 89 429.802 88.3333 430.535 87C431.268 85.6667 431.935 83.4667 432.535 80.4C433.168 77.3 433.602 73.15 433.835 67.95L429.135 68.15V66H450.685V67.5C449.685 67.5 448.968 67.7667 448.535 68.3C448.135 68.8 447.902 69.5167 447.835 70.45C447.768 71.35 447.735 72.4 447.735 73.6V85.7C447.702 86.3667 447.668 86.9667 447.635 87.5C447.602 88 447.535 88.5333 447.435 89.1L450.585 88.95V91H440.385V89.5C441.418 89.5 442.135 89.25 442.535 88.75C442.935 88.2167 443.168 87.5 443.235 86.6C443.335 85.6667 443.402 84.6 443.435 83.4V71.3C443.435 70.6333 443.435 70.05 443.435 69.55C443.468 69.0167 443.535 68.4667 443.635 67.9H439.235C438.102 67.9 437.318 68.2667 436.885 69C436.485 69.7 436.285 70.65 436.285 71.85C436.152 74.2167 435.902 76.5667 435.535 78.9C435.202 81.2333 434.702 83.35 434.035 85.25C433.368 87.15 432.485 88.6833 431.385 89.85C430.318 90.9833 428.985 91.55 427.385 91.55ZM457.575 91V89.5C458.808 89.4667 459.608 89.0833 459.975 88.35C460.375 87.5833 460.575 86.55 460.575 85.25V71.3C460.575 70.6333 460.575 70.05 460.575 69.55C460.608 69.0167 460.675 68.4667 460.775 67.9C460.242 67.9333 459.708 67.9667 459.175 68C458.675 68 458.158 68.0167 457.625 68.05V66H467.825V67.5C466.825 67.5 466.108 67.7333 465.675 68.2C465.275 68.6667 465.042 69.25 464.975 69.95C464.908 70.6167 464.875 71.2667 464.875 71.9V76.5L467.975 76.4C470.675 76.3333 472.792 76.6333 474.325 77.3C475.892 77.9333 476.992 78.8167 477.625 79.95C478.292 81.05 478.625 82.2667 478.625 83.6C478.625 85.2 478.242 86.55 477.475 87.65C476.742 88.75 475.758 89.5833 474.525 90.15C473.292 90.7167 471.942 91 470.475 91H457.575ZM464.775 88.95C465.142 88.9833 465.592 89 466.125 89C466.692 89 467.208 89 467.675 89C468.175 89 468.508 89 468.675 89C470.208 89 471.508 88.6 472.575 87.8C473.675 87 474.225 85.6333 474.225 83.7C474.225 82 473.725 80.6833 472.725 79.75C471.758 78.7833 470.408 78.3 468.675 78.3C467.942 78.3 467.258 78.3167 466.625 78.35C466.025 78.35 465.442 78.3667 464.875 78.4V86.15C464.875 86.7833 464.858 87.3333 464.825 87.8C464.825 88.2667 464.808 88.65 464.775 88.95ZM497.617 91.8C495.383 91.8 493.317 91.3 491.417 90.3C489.55 89.2667 488.05 87.8 486.917 85.9C485.817 83.9667 485.267 81.65 485.267 78.95C485.267 77.2167 485.583 75.5333 486.217 73.9C486.85 72.2667 487.733 70.8 488.867 69.5C490.033 68.1667 491.417 67.1167 493.017 66.35C494.617 65.5833 496.383 65.2 498.317 65.2C500.183 65.2 501.8 65.4833 503.167 66.05C504.567 66.6167 505.65 67.3667 506.417 68.3C507.183 69.2333 507.567 70.25 507.567 71.35C507.567 72.0833 507.367 72.7167 506.967 73.25C506.567 73.75 505.983 74 505.217 74C504.383 74.0333 503.783 73.7833 503.417 73.25C503.083 72.6833 502.917 72.1833 502.917 71.75C502.917 71.4167 502.967 71.0833 503.067 70.75C503.167 70.3833 503.367 70.05 503.667 69.75C503.4 68.95 502.933 68.3667 502.267 68C501.6 67.6 500.9 67.35 500.167 67.25C499.467 67.1167 498.883 67.05 498.417 67.05C496.15 67.05 494.233 67.9667 492.667 69.8C491.133 71.6 490.367 74.2333 490.367 77.7C490.367 79.9333 490.717 81.9167 491.417 83.65C492.15 85.3833 493.167 86.75 494.467 87.75C495.767 88.7167 497.267 89.2 498.967 89.2C500.533 89.2 502.033 88.7833 503.467 87.95C504.9 87.1167 506.017 86.1 506.817 84.9L508.117 85.9C507.25 87.3 506.2 88.4333 504.967 89.3C503.767 90.1667 502.517 90.8 501.217 91.2C499.95 91.6 498.75 91.8 497.617 91.8ZM519.528 91V89.5C520.561 89.5 521.278 89.25 521.678 88.75C522.078 88.2167 522.311 87.5 522.378 86.6C522.478 85.6667 522.528 84.6 522.528 83.4V71.3C522.528 70.6333 522.528 70.0833 522.528 69.65C522.561 69.1833 522.628 68.6667 522.728 68.1H519.178C517.845 68.1 516.861 68.4833 516.228 69.25C515.628 70.0167 515.328 71.45 515.328 73.55H513.428L513.628 66H535.728L535.978 73.55H534.078C534.045 71.45 533.728 70.0167 533.128 69.25C532.561 68.4833 531.495 68.1 529.928 68.1H526.828V85.7C526.828 86.3667 526.811 86.9667 526.778 87.5C526.778 88 526.728 88.5333 526.628 89.1L529.778 88.95V91H519.528ZM541.784 91V89.5C543.017 89.4667 543.817 89.0833 544.184 88.35C544.584 87.5833 544.784 86.55 544.784 85.25V70.8C544.784 70.2 544.801 69.6667 544.834 69.2C544.867 68.7333 544.917 68.3 544.984 67.9C544.451 67.9333 543.917 67.9667 543.384 68C542.884 68 542.367 68.0167 541.834 68.05V66C542.734 66 543.884 66 545.284 66C546.684 65.9667 548.217 65.95 549.884 65.95C551.584 65.95 553.267 65.95 554.934 65.95C557.267 65.95 559.167 66.4333 560.634 67.4C562.134 68.3333 562.867 69.7667 562.834 71.7C562.801 73.0333 562.334 74.2833 561.434 75.45C560.567 76.5833 559.184 77.3833 557.284 77.85C559.551 77.95 561.267 78.5667 562.434 79.7C563.601 80.8 564.184 82.2 564.184 83.9C564.184 85.4 563.784 86.6833 562.984 87.75C562.184 88.8167 561.134 89.6333 559.834 90.2C558.534 90.7333 557.134 91 555.634 91H541.784ZM548.984 88.95C549.351 88.9833 549.834 89 550.434 89C551.067 89 551.651 89 552.184 89C552.751 89 553.101 89 553.234 89C555.101 89 556.584 88.6167 557.684 87.85C558.817 87.05 559.384 85.7833 559.384 84.05C559.384 82.2833 558.767 81.0333 557.534 80.3C556.301 79.5333 554.867 79.15 553.234 79.15C552.534 79.15 551.801 79.1667 551.034 79.2C550.301 79.2 549.651 79.2167 549.084 79.25V86.15C549.084 86.7833 549.067 87.3333 549.034 87.8C549.034 88.2667 549.017 88.65 548.984 88.95ZM549.084 77.35L552.834 77.3C554.201 77.2667 555.284 76.9833 556.084 76.45C556.884 75.8833 557.451 75.2 557.784 74.4C558.117 73.5667 558.267 72.75 558.234 71.95C558.234 70.7833 557.984 69.9 557.484 69.3C556.984 68.7 556.334 68.3 555.534 68.1C554.767 67.8667 553.934 67.75 553.034 67.75C551.834 67.75 550.867 67.9667 550.134 68.4C549.434 68.8333 549.084 69.7667 549.084 71.2V77.35ZM580.658 67.5C579.625 67.5 578.908 67.7667 578.508 68.3C578.108 68.8 577.875 69.5167 577.808 70.45C577.742 71.35 577.692 72.4 577.658 73.6L577.608 85.7C577.608 86.3667 577.592 86.9667 577.558 87.5C577.558 88 577.508 88.5333 577.408 89.1C577.942 89.0667 578.458 89.05 578.958 89.05C579.492 89.0167 580.025 88.9833 580.558 88.95V91H570.358V89.5C571.392 89.5 572.108 89.25 572.508 88.75C572.908 88.2167 573.142 87.5 573.208 86.6C573.308 85.6667 573.358 84.6 573.358 83.4V71.3C573.358 70.6333 573.358 70.05 573.358 69.55C573.392 69.0167 573.458 68.4667 573.558 67.9C573.025 67.9333 572.492 67.9667 571.958 68C571.458 68 570.942 68.0167 570.408 68.05V66H580.658V67.5ZM590.458 68.4L592.058 69.6L576.708 88.85L575.008 87.45L590.458 68.4ZM597.308 67.5C596.308 67.5 595.592 67.7667 595.158 68.3C594.758 68.8 594.525 69.5167 594.458 70.45C594.392 71.35 594.358 72.4 594.358 73.6L594.258 85.7C594.258 86.3667 594.242 86.9667 594.208 87.5C594.208 88 594.175 88.5333 594.108 89.1C594.642 89.0667 595.158 89.05 595.658 89.05C596.192 89.0167 596.725 88.9833 597.258 88.95V91H587.008V89.5C588.042 89.5 588.758 89.25 589.158 88.75C589.558 88.2167 589.792 87.5 589.858 86.6C589.958 85.6667 590.008 84.6 590.008 83.4L590.058 71.3C590.058 70.6333 590.058 70.05 590.058 69.55C590.092 69.0167 590.158 68.4667 590.258 67.9C589.725 67.9333 589.192 67.9667 588.658 68C588.158 68 587.642 68.0167 587.108 68.05V66H597.308V67.5ZM616.306 91.8C614.006 91.8 611.923 91.2667 610.056 90.2C608.223 89.1 606.773 87.5667 605.706 85.6C604.639 83.6 604.106 81.25 604.106 78.55C604.106 76.2167 604.623 74.0333 605.656 72C606.723 69.9667 608.206 68.3333 610.106 67.1C612.006 65.8333 614.206 65.2 616.706 65.2C618.106 65.2 619.406 65.4333 620.606 65.9C621.839 66.3333 622.923 67.0167 623.856 67.95C624.789 68.85 625.523 70 626.056 71.4C626.589 72.7667 626.856 74.3833 626.856 76.25L609.256 76.55C609.256 79.0833 609.523 81.3167 610.056 83.25C610.623 85.15 611.523 86.6333 612.756 87.7C613.989 88.7333 615.573 89.25 617.506 89.25C618.539 89.25 619.589 89.0667 620.656 88.7C621.756 88.3333 622.773 87.8333 623.706 87.2C624.639 86.5667 625.389 85.8667 625.956 85.1L627.156 86.1C626.256 87.5 625.173 88.6167 623.906 89.45C622.639 90.2833 621.339 90.8833 620.006 91.25C618.673 91.6167 617.439 91.8 616.306 91.8ZM609.406 74.45H622.156C622.156 73.25 621.973 72.1 621.606 71C621.273 69.8667 620.706 68.95 619.906 68.25C619.106 67.5167 618.056 67.15 616.756 67.15C614.823 67.15 613.206 67.7333 611.906 68.9C610.639 70.0333 609.806 71.8833 609.406 74.45Z" fill="#F5F5F5"/>
<path d="M354.34 156C353.57 157.333 351.645 157.333 350.876 156L342.215 141H363L354.34 156Z" fill="#181818" fill-opacity="0.9"/>
</g>
<defs>
<filter id="filter0_d_589_3045" x="0" y="0" width="704" height="166" filterUnits="userSpaceOnUse" color-interpolation-filters="sRGB">
<feFlood flood-opacity="0" result="BackgroundImageFix"/>
<feColorMatrix in="SourceAlpha" type="matrix" values="0 0 0 0 0 0 0 0 0 0 0 0 0 0 0 0 0 0 127 0" result="hardAlpha"/>
<feOffset dy="2"/>
<feGaussianBlur stdDeviation="3.5"/>
<feComposite in2="hardAlpha" operator="out"/>
<feColorMatrix type="matrix" values="0 0 0 0 0 0 0 0 0 0 0 0 0 0 0 0 0 0 0.12 0"/>
<feBlend mode="normal" in2="BackgroundImageFix" result="effect1_dropShadow_589_3045"/>
<feBlend mode="normal" in="SourceGraphic" in2="effect1_dropShadow_589_3045" result="shape"/>
</filter>
</defs>
</svg>
